<mxfile host="Electron" modified="2023-12-27T13:18:17.101Z" agent="Mozilla/5.0 (X11; Linux x86_64) AppleWebKit/537.36 (KHTML, like Gecko) draw.io/22.1.11 Chrome/114.0.5735.289 Electron/25.9.8 Safari/537.36" etag="N8tXC8RbsT3bo0GTFqkq" version="22.1.11" type="device">
  <diagram name="Страница — 1" id="rdJPi81iyjyXsliXh4Vw">
    <mxGraphModel dx="3030" dy="1785" grid="1" gridSize="10" guides="1" tooltips="1" connect="1" arrows="1" fold="1" page="1" pageScale="1" pageWidth="7000" pageHeight="700" math="0" shadow="0">
      <root>
        <mxCell id="0" />
        <mxCell id="1" parent="0" />
        <mxCell id="QiNylJVKQGGoiYYaniBf-22" value="" style="shape=tableRow;horizontal=0;startSize=0;swimlaneHead=0;swimlaneBody=0;strokeColor=inherit;top=0;left=0;bottom=0;right=0;collapsible=0;dropTarget=0;fillColor=none;points=[[0,0.5],[1,0.5]];portConstraint=eastwest;fontSize=16;" parent="1" vertex="1">
          <mxGeometry x="50" y="113" width="300" height="100" as="geometry" />
        </mxCell>
        <mxCell id="QiNylJVKQGGoiYYaniBf-28" value="Раздельные пункты" style="rounded=0;whiteSpace=wrap;html=1;" parent="1" vertex="1">
          <mxGeometry x="40" y="140" width="200" height="40" as="geometry" />
        </mxCell>
        <mxCell id="QiNylJVKQGGoiYYaniBf-29" value="Стрелочные переводы, мосты, тоннели, переезды" style="rounded=0;whiteSpace=wrap;html=1;" parent="1" vertex="1">
          <mxGeometry x="40" y="180" width="200" height="80" as="geometry" />
        </mxCell>
        <mxCell id="QiNylJVKQGGoiYYaniBf-30" value="Продольный профиль" style="rounded=0;whiteSpace=wrap;html=1;" parent="1" vertex="1">
          <mxGeometry x="40" y="260" width="200" height="40" as="geometry" />
        </mxCell>
        <mxCell id="QiNylJVKQGGoiYYaniBf-31" value="" style="shape=tableRow;horizontal=0;startSize=0;swimlaneHead=0;swimlaneBody=0;strokeColor=inherit;top=0;left=0;bottom=0;right=0;collapsible=0;dropTarget=0;fillColor=none;points=[[0,0.5],[1,0.5]];portConstraint=eastwest;fontSize=16;" parent="1" vertex="1">
          <mxGeometry x="50" y="293" width="180" height="100" as="geometry" />
        </mxCell>
        <mxCell id="QiNylJVKQGGoiYYaniBf-32" value="План линии" style="rounded=0;whiteSpace=wrap;html=1;" parent="1" vertex="1">
          <mxGeometry x="40" y="300" width="200" height="70" as="geometry" />
        </mxCell>
        <mxCell id="QiNylJVKQGGoiYYaniBf-33" value="Установленная скорость (пасс./гр.), км/ч" style="rounded=0;whiteSpace=wrap;html=1;" parent="1" vertex="1">
          <mxGeometry x="40" y="370" width="200" height="40" as="geometry" />
        </mxCell>
        <mxCell id="QiNylJVKQGGoiYYaniBf-34" value="&lt;font style=&quot;font-size: 10px;&quot;&gt;Грузонапряженность (млн. тонн брутто/км в год) / класс и спец-я линии / код группы&lt;/font&gt;" style="rounded=0;whiteSpace=wrap;html=1;" parent="1" vertex="1">
          <mxGeometry x="40" y="483" width="200" height="40" as="geometry" />
        </mxCell>
        <mxCell id="QiNylJVKQGGoiYYaniBf-35" value="" style="shape=tableRow;horizontal=0;startSize=0;swimlaneHead=0;swimlaneBody=0;strokeColor=inherit;top=0;left=0;bottom=0;right=0;collapsible=0;dropTarget=0;fillColor=none;points=[[0,0.5],[1,0.5]];portConstraint=eastwest;fontSize=16;" parent="1" vertex="1">
          <mxGeometry x="50" y="516" width="180" height="100" as="geometry" />
        </mxCell>
        <mxCell id="QiNylJVKQGGoiYYaniBf-36" value="&lt;font style=&quot;font-size: 10px;&quot;&gt;Тип рельсов, тип пути, категория рельсов, термоупрочнение, завод-изготовитель, год укладки&lt;/font&gt;" style="rounded=0;whiteSpace=wrap;html=1;" parent="1" vertex="1">
          <mxGeometry x="40" y="523" width="200" height="40" as="geometry" />
        </mxCell>
        <mxCell id="QiNylJVKQGGoiYYaniBf-37" value="&lt;font style=&quot;font-size: 10px;&quot;&gt;Тип скрепления,&amp;nbsp;&lt;br&gt;род шпал, кол-во шпал, &lt;br&gt;род балласта, высота призмы&lt;/font&gt;" style="rounded=0;whiteSpace=wrap;html=1;" parent="1" vertex="1">
          <mxGeometry x="40" y="563" width="200" height="40" as="geometry" />
        </mxCell>
        <mxCell id="QiNylJVKQGGoiYYaniBf-38" value="&lt;font style=&quot;font-size: 10px;&quot;&gt;Год и тип капитального ремонта, год и тип промежуточного ремонта&lt;/font&gt;" style="rounded=0;whiteSpace=wrap;html=1;" parent="1" vertex="1">
          <mxGeometry x="40" y="603" width="200" height="40" as="geometry" />
        </mxCell>
        <mxCell id="QiNylJVKQGGoiYYaniBf-39" value="" style="shape=tableRow;horizontal=0;startSize=0;swimlaneHead=0;swimlaneBody=0;strokeColor=inherit;top=0;left=0;bottom=0;right=0;collapsible=0;dropTarget=0;fillColor=none;points=[[0,0.5],[1,0.5]];portConstraint=eastwest;fontSize=16;" parent="1" vertex="1">
          <mxGeometry x="50" y="563" width="180" height="100" as="geometry" />
        </mxCell>
        <mxCell id="QiNylJVKQGGoiYYaniBf-40" value="Предприятие и линейные участки служб П и Ш, обслуживающие км" style="rounded=0;whiteSpace=wrap;html=1;" parent="1" vertex="1">
          <mxGeometry x="40" y="643" width="200" height="40" as="geometry" />
        </mxCell>
        <mxCell id="QiNylJVKQGGoiYYaniBf-43" value="" style="shape=tableRow;horizontal=0;startSize=0;swimlaneHead=0;swimlaneBody=0;strokeColor=inherit;top=0;left=0;bottom=0;right=0;collapsible=0;dropTarget=0;fillColor=none;points=[[0,0.5],[1,0.5]];portConstraint=eastwest;fontSize=16;" parent="1" vertex="1">
          <mxGeometry x="50" y="593" width="180" height="100" as="geometry" />
        </mxCell>
        <mxCell id="QiNylJVKQGGoiYYaniBf-47" value="&lt;font style=&quot;font-size: 12px;&quot;&gt;Номер километра &lt;br&gt;(длина нестандартного километра)&lt;/font&gt;" style="rounded=0;whiteSpace=wrap;html=1;" parent="1" vertex="1">
          <mxGeometry x="40" y="410" width="200" height="40" as="geometry" />
        </mxCell>
        <mxCell id="QiNylJVKQGGoiYYaniBf-48" value="Пропущенный тоннаж &lt;br&gt;(млн. тонн брутто на км)" style="rounded=0;whiteSpace=wrap;html=1;" parent="1" vertex="1">
          <mxGeometry x="40" y="450" width="200" height="40" as="geometry" />
        </mxCell>
        <mxCell id="QiNylJVKQGGoiYYaniBf-49" value="1234" style="rounded=0;whiteSpace=wrap;html=1;" parent="1" vertex="1">
          <mxGeometry x="240" y="410" width="160" height="40" as="geometry" />
        </mxCell>
        <mxCell id="QiNylJVKQGGoiYYaniBf-50" value="1235" style="rounded=0;whiteSpace=wrap;html=1;" parent="1" vertex="1">
          <mxGeometry x="400" y="410" width="160" height="40" as="geometry" />
        </mxCell>
        <mxCell id="QiNylJVKQGGoiYYaniBf-51" value="1236" style="rounded=0;whiteSpace=wrap;html=1;" parent="1" vertex="1">
          <mxGeometry x="560" y="410" width="160" height="40" as="geometry" />
        </mxCell>
        <mxCell id="QiNylJVKQGGoiYYaniBf-52" value="1237" style="rounded=0;whiteSpace=wrap;html=1;" parent="1" vertex="1">
          <mxGeometry x="720" y="410" width="160" height="40" as="geometry" />
        </mxCell>
        <mxCell id="QiNylJVKQGGoiYYaniBf-53" value="1238" style="rounded=0;whiteSpace=wrap;html=1;" parent="1" vertex="1">
          <mxGeometry x="880" y="410" width="160" height="40" as="geometry" />
        </mxCell>
        <mxCell id="QiNylJVKQGGoiYYaniBf-54" value="1239" style="rounded=0;whiteSpace=wrap;html=1;" parent="1" vertex="1">
          <mxGeometry x="1040" y="410" width="160" height="40" as="geometry" />
        </mxCell>
        <mxCell id="QiNylJVKQGGoiYYaniBf-55" value="1240" style="rounded=0;whiteSpace=wrap;html=1;" parent="1" vertex="1">
          <mxGeometry x="1200" y="410" width="160" height="40" as="geometry" />
        </mxCell>
        <mxCell id="QiNylJVKQGGoiYYaniBf-56" value="1241" style="rounded=0;whiteSpace=wrap;html=1;" parent="1" vertex="1">
          <mxGeometry x="1360" y="410" width="160" height="40" as="geometry" />
        </mxCell>
        <mxCell id="QiNylJVKQGGoiYYaniBf-57" value="1242(1075)" style="rounded=0;whiteSpace=wrap;html=1;" parent="1" vertex="1">
          <mxGeometry x="1520" y="410" width="160" height="40" as="geometry" />
        </mxCell>
        <mxCell id="QiNylJVKQGGoiYYaniBf-58" value="1243(1025)" style="rounded=0;whiteSpace=wrap;html=1;" parent="1" vertex="1">
          <mxGeometry x="1680" y="410" width="160" height="40" as="geometry" />
        </mxCell>
        <mxCell id="QiNylJVKQGGoiYYaniBf-59" value="1244" style="rounded=0;whiteSpace=wrap;html=1;" parent="1" vertex="1">
          <mxGeometry x="1840" y="410" width="160" height="40" as="geometry" />
        </mxCell>
        <mxCell id="QiNylJVKQGGoiYYaniBf-60" value="1245" style="rounded=0;whiteSpace=wrap;html=1;" parent="1" vertex="1">
          <mxGeometry x="2000" y="410" width="160" height="40" as="geometry" />
        </mxCell>
        <mxCell id="QiNylJVKQGGoiYYaniBf-61" value="1246" style="rounded=0;whiteSpace=wrap;html=1;" parent="1" vertex="1">
          <mxGeometry x="2160" y="410" width="160" height="40" as="geometry" />
        </mxCell>
        <mxCell id="QiNylJVKQGGoiYYaniBf-62" value="1247" style="rounded=0;whiteSpace=wrap;html=1;" parent="1" vertex="1">
          <mxGeometry x="2320" y="410" width="160" height="40" as="geometry" />
        </mxCell>
        <mxCell id="QiNylJVKQGGoiYYaniBf-63" value="1248" style="rounded=0;whiteSpace=wrap;html=1;" parent="1" vertex="1">
          <mxGeometry x="2480" y="410" width="160" height="40" as="geometry" />
        </mxCell>
        <mxCell id="QiNylJVKQGGoiYYaniBf-64" value="1249" style="rounded=0;whiteSpace=wrap;html=1;" parent="1" vertex="1">
          <mxGeometry x="2640" y="410" width="160" height="40" as="geometry" />
        </mxCell>
        <mxCell id="QiNylJVKQGGoiYYaniBf-65" value="1250" style="rounded=0;whiteSpace=wrap;html=1;" parent="1" vertex="1">
          <mxGeometry x="2800" y="410" width="160" height="40" as="geometry" />
        </mxCell>
        <mxCell id="QiNylJVKQGGoiYYaniBf-66" value="1251" style="rounded=0;whiteSpace=wrap;html=1;" parent="1" vertex="1">
          <mxGeometry x="2960" y="410" width="160" height="40" as="geometry" />
        </mxCell>
        <mxCell id="QiNylJVKQGGoiYYaniBf-67" value="1252" style="rounded=0;whiteSpace=wrap;html=1;" parent="1" vertex="1">
          <mxGeometry x="3120" y="410" width="160" height="40" as="geometry" />
        </mxCell>
        <mxCell id="QiNylJVKQGGoiYYaniBf-68" value="1253" style="rounded=0;whiteSpace=wrap;html=1;" parent="1" vertex="1">
          <mxGeometry x="3280" y="410" width="160" height="40" as="geometry" />
        </mxCell>
        <mxCell id="QiNylJVKQGGoiYYaniBf-69" value="1254" style="rounded=0;whiteSpace=wrap;html=1;" parent="1" vertex="1">
          <mxGeometry x="3440" y="410" width="160" height="40" as="geometry" />
        </mxCell>
        <mxCell id="QiNylJVKQGGoiYYaniBf-70" value="1255" style="rounded=0;whiteSpace=wrap;html=1;" parent="1" vertex="1">
          <mxGeometry x="3600" y="410" width="160" height="40" as="geometry" />
        </mxCell>
        <mxCell id="QiNylJVKQGGoiYYaniBf-71" value="1256" style="rounded=0;whiteSpace=wrap;html=1;" parent="1" vertex="1">
          <mxGeometry x="3760" y="410" width="160" height="40" as="geometry" />
        </mxCell>
        <mxCell id="QiNylJVKQGGoiYYaniBf-72" value="1257" style="rounded=0;whiteSpace=wrap;html=1;" parent="1" vertex="1">
          <mxGeometry x="3920" y="410" width="160" height="40" as="geometry" />
        </mxCell>
        <mxCell id="QiNylJVKQGGoiYYaniBf-73" value="1258" style="rounded=0;whiteSpace=wrap;html=1;" parent="1" vertex="1">
          <mxGeometry x="4080" y="410" width="160" height="40" as="geometry" />
        </mxCell>
        <mxCell id="QiNylJVKQGGoiYYaniBf-74" value="1259" style="rounded=0;whiteSpace=wrap;html=1;" parent="1" vertex="1">
          <mxGeometry x="4240" y="410" width="160" height="40" as="geometry" />
        </mxCell>
        <mxCell id="QiNylJVKQGGoiYYaniBf-75" value="1260" style="rounded=0;whiteSpace=wrap;html=1;" parent="1" vertex="1">
          <mxGeometry x="4400" y="410" width="160" height="40" as="geometry" />
        </mxCell>
        <mxCell id="QiNylJVKQGGoiYYaniBf-76" value="1261" style="rounded=0;whiteSpace=wrap;html=1;" parent="1" vertex="1">
          <mxGeometry x="4560" y="410" width="160" height="40" as="geometry" />
        </mxCell>
        <mxCell id="QiNylJVKQGGoiYYaniBf-77" value="1262" style="rounded=0;whiteSpace=wrap;html=1;" parent="1" vertex="1">
          <mxGeometry x="4720" y="410" width="160" height="40" as="geometry" />
        </mxCell>
        <mxCell id="QiNylJVKQGGoiYYaniBf-78" value="1263" style="rounded=0;whiteSpace=wrap;html=1;" parent="1" vertex="1">
          <mxGeometry x="4880" y="410" width="160" height="40" as="geometry" />
        </mxCell>
        <mxCell id="QiNylJVKQGGoiYYaniBf-79" value="1264" style="rounded=0;whiteSpace=wrap;html=1;" parent="1" vertex="1">
          <mxGeometry x="5040" y="410" width="160" height="40" as="geometry" />
        </mxCell>
        <mxCell id="QiNylJVKQGGoiYYaniBf-80" value="1265" style="rounded=0;whiteSpace=wrap;html=1;" parent="1" vertex="1">
          <mxGeometry x="5200" y="410" width="160" height="40" as="geometry" />
        </mxCell>
        <mxCell id="QiNylJVKQGGoiYYaniBf-81" value="1266" style="rounded=0;whiteSpace=wrap;html=1;" parent="1" vertex="1">
          <mxGeometry x="5360" y="410" width="160" height="40" as="geometry" />
        </mxCell>
        <mxCell id="QiNylJVKQGGoiYYaniBf-82" value="1267" style="rounded=0;whiteSpace=wrap;html=1;" parent="1" vertex="1">
          <mxGeometry x="5520" y="410" width="160" height="40" as="geometry" />
        </mxCell>
        <mxCell id="QiNylJVKQGGoiYYaniBf-83" value="1268" style="rounded=0;whiteSpace=wrap;html=1;" parent="1" vertex="1">
          <mxGeometry x="5680" y="410" width="160" height="40" as="geometry" />
        </mxCell>
        <mxCell id="QiNylJVKQGGoiYYaniBf-84" value="1269" style="rounded=0;whiteSpace=wrap;html=1;" parent="1" vertex="1">
          <mxGeometry x="5840" y="410" width="160" height="40" as="geometry" />
        </mxCell>
        <mxCell id="QiNylJVKQGGoiYYaniBf-85" value="1270" style="rounded=0;whiteSpace=wrap;html=1;" parent="1" vertex="1">
          <mxGeometry x="6000" y="410" width="160" height="40" as="geometry" />
        </mxCell>
        <mxCell id="QiNylJVKQGGoiYYaniBf-86" value="1271" style="rounded=0;whiteSpace=wrap;html=1;" parent="1" vertex="1">
          <mxGeometry x="6160" y="410" width="160" height="40" as="geometry" />
        </mxCell>
        <mxCell id="QiNylJVKQGGoiYYaniBf-87" value="1272" style="rounded=0;whiteSpace=wrap;html=1;" parent="1" vertex="1">
          <mxGeometry x="6320" y="410" width="160" height="40" as="geometry" />
        </mxCell>
        <mxCell id="QiNylJVKQGGoiYYaniBf-88" value="1273" style="rounded=0;whiteSpace=wrap;html=1;" parent="1" vertex="1">
          <mxGeometry x="6480" y="410" width="160" height="40" as="geometry" />
        </mxCell>
        <mxCell id="QiNylJVKQGGoiYYaniBf-89" value="1274" style="rounded=0;whiteSpace=wrap;html=1;" parent="1" vertex="1">
          <mxGeometry x="6640" y="410" width="160" height="40" as="geometry" />
        </mxCell>
        <mxCell id="0Uzv47MZa6qNcgDxZGDY-1" value="" style="endArrow=none;html=1;rounded=0;" parent="1" edge="1">
          <mxGeometry width="50" height="50" relative="1" as="geometry">
            <mxPoint x="240" y="160" as="sourcePoint" />
            <mxPoint x="6800" y="160" as="targetPoint" />
          </mxGeometry>
        </mxCell>
        <mxCell id="0Uzv47MZa6qNcgDxZGDY-2" value="" style="endArrow=none;html=1;rounded=0;" parent="1" source="0Uzv47MZa6qNcgDxZGDY-59" edge="1">
          <mxGeometry width="50" height="50" relative="1" as="geometry">
            <mxPoint x="240" y="220" as="sourcePoint" />
            <mxPoint x="6800" y="220" as="targetPoint" />
          </mxGeometry>
        </mxCell>
        <mxCell id="0Uzv47MZa6qNcgDxZGDY-3" value="" style="endArrow=none;html=1;rounded=0;strokeWidth=5;" parent="1" edge="1">
          <mxGeometry width="50" height="50" relative="1" as="geometry">
            <mxPoint x="360" y="160" as="sourcePoint" />
            <mxPoint x="640" y="160" as="targetPoint" />
          </mxGeometry>
        </mxCell>
        <mxCell id="0Uzv47MZa6qNcgDxZGDY-4" value="" style="endArrow=none;html=1;rounded=0;exitX=1;exitY=0.5;exitDx=0;exitDy=0;entryX=0.5;entryY=1;entryDx=0;entryDy=0;" parent="1" target="0Uzv47MZa6qNcgDxZGDY-5" edge="1">
          <mxGeometry width="50" height="50" relative="1" as="geometry">
            <mxPoint x="524" y="160" as="sourcePoint" />
            <mxPoint x="529" y="140" as="targetPoint" />
          </mxGeometry>
        </mxCell>
        <mxCell id="0Uzv47MZa6qNcgDxZGDY-5" value="" style="ellipse;whiteSpace=wrap;html=1;aspect=fixed;movable=1;resizable=1;rotatable=1;deletable=1;editable=1;locked=0;connectable=1;" parent="1" vertex="1">
          <mxGeometry x="513.99" y="120" width="20" height="20" as="geometry" />
        </mxCell>
        <mxCell id="0Uzv47MZa6qNcgDxZGDY-6" value="" style="endArrow=none;html=1;rounded=0;exitX=0.5;exitY=1;exitDx=0;exitDy=0;entryX=0.5;entryY=0;entryDx=0;entryDy=0;movable=1;resizable=1;rotatable=1;deletable=1;editable=1;locked=0;connectable=1;" parent="1" source="0Uzv47MZa6qNcgDxZGDY-5" target="0Uzv47MZa6qNcgDxZGDY-5" edge="1">
          <mxGeometry width="50" height="50" relative="1" as="geometry">
            <mxPoint x="521.97" y="150" as="sourcePoint" />
            <mxPoint x="571.97" y="100" as="targetPoint" />
          </mxGeometry>
        </mxCell>
        <mxCell id="0Uzv47MZa6qNcgDxZGDY-7" value="Кое-гдень" style="text;html=1;strokeColor=none;fillColor=none;align=center;verticalAlign=middle;whiteSpace=wrap;rounded=0;" parent="1" vertex="1">
          <mxGeometry x="490" y="90" width="70" height="30" as="geometry" />
        </mxCell>
        <mxCell id="0Uzv47MZa6qNcgDxZGDY-8" value="" style="endArrow=none;html=1;rounded=0;exitX=1;exitY=0.5;exitDx=0;exitDy=0;entryX=0.5;entryY=1;entryDx=0;entryDy=0;" parent="1" target="0Uzv47MZa6qNcgDxZGDY-9" edge="1">
          <mxGeometry width="50" height="50" relative="1" as="geometry">
            <mxPoint x="3964" y="160" as="sourcePoint" />
            <mxPoint x="3969" y="140" as="targetPoint" />
          </mxGeometry>
        </mxCell>
        <mxCell id="0Uzv47MZa6qNcgDxZGDY-9" value="" style="ellipse;whiteSpace=wrap;html=1;aspect=fixed;movable=1;resizable=1;rotatable=1;deletable=1;editable=1;locked=0;connectable=1;" parent="1" vertex="1">
          <mxGeometry x="3953.99" y="120" width="20" height="20" as="geometry" />
        </mxCell>
        <mxCell id="0Uzv47MZa6qNcgDxZGDY-10" value="" style="endArrow=none;html=1;rounded=0;exitX=0.5;exitY=1;exitDx=0;exitDy=0;entryX=0.5;entryY=0;entryDx=0;entryDy=0;movable=1;resizable=1;rotatable=1;deletable=1;editable=1;locked=0;connectable=1;" parent="1" source="0Uzv47MZa6qNcgDxZGDY-9" target="0Uzv47MZa6qNcgDxZGDY-9" edge="1">
          <mxGeometry width="50" height="50" relative="1" as="geometry">
            <mxPoint x="3961.9700000000003" y="150" as="sourcePoint" />
            <mxPoint x="4011.9700000000003" y="100" as="targetPoint" />
          </mxGeometry>
        </mxCell>
        <mxCell id="0Uzv47MZa6qNcgDxZGDY-11" value="Где-либо" style="text;html=1;strokeColor=none;fillColor=none;align=center;verticalAlign=middle;whiteSpace=wrap;rounded=0;" parent="1" vertex="1">
          <mxGeometry x="3930" y="90" width="70" height="30" as="geometry" />
        </mxCell>
        <mxCell id="0Uzv47MZa6qNcgDxZGDY-12" value="" style="endArrow=none;html=1;rounded=0;exitX=1;exitY=0.5;exitDx=0;exitDy=0;entryX=0.5;entryY=1;entryDx=0;entryDy=0;" parent="1" target="0Uzv47MZa6qNcgDxZGDY-13" edge="1">
          <mxGeometry width="50" height="50" relative="1" as="geometry">
            <mxPoint x="6559" y="160" as="sourcePoint" />
            <mxPoint x="6564" y="140" as="targetPoint" />
          </mxGeometry>
        </mxCell>
        <mxCell id="0Uzv47MZa6qNcgDxZGDY-13" value="" style="ellipse;whiteSpace=wrap;html=1;aspect=fixed;movable=1;resizable=1;rotatable=1;deletable=1;editable=1;locked=0;connectable=1;" parent="1" vertex="1">
          <mxGeometry x="6548.99" y="120" width="20" height="20" as="geometry" />
        </mxCell>
        <mxCell id="0Uzv47MZa6qNcgDxZGDY-14" value="" style="endArrow=none;html=1;rounded=0;exitX=0.5;exitY=1;exitDx=0;exitDy=0;entryX=0.5;entryY=0;entryDx=0;entryDy=0;movable=1;resizable=1;rotatable=1;deletable=1;editable=1;locked=0;connectable=1;" parent="1" source="0Uzv47MZa6qNcgDxZGDY-13" target="0Uzv47MZa6qNcgDxZGDY-13" edge="1">
          <mxGeometry width="50" height="50" relative="1" as="geometry">
            <mxPoint x="6556.97" y="150" as="sourcePoint" />
            <mxPoint x="6606.97" y="100" as="targetPoint" />
          </mxGeometry>
        </mxCell>
        <mxCell id="0Uzv47MZa6qNcgDxZGDY-15" value="Где-нибудьск" style="text;html=1;strokeColor=none;fillColor=none;align=center;verticalAlign=middle;whiteSpace=wrap;rounded=0;" parent="1" vertex="1">
          <mxGeometry x="6525" y="90" width="95" height="30" as="geometry" />
        </mxCell>
        <mxCell id="0Uzv47MZa6qNcgDxZGDY-16" value="" style="endArrow=none;html=1;rounded=0;strokeWidth=5;" parent="1" edge="1">
          <mxGeometry width="50" height="50" relative="1" as="geometry">
            <mxPoint x="3890" y="160" as="sourcePoint" />
            <mxPoint x="4120" y="160" as="targetPoint" />
          </mxGeometry>
        </mxCell>
        <mxCell id="0Uzv47MZa6qNcgDxZGDY-17" value="" style="endArrow=none;html=1;rounded=0;strokeWidth=5;" parent="1" edge="1">
          <mxGeometry width="50" height="50" relative="1" as="geometry">
            <mxPoint x="6440" y="160" as="sourcePoint" />
            <mxPoint x="6780" y="160" as="targetPoint" />
          </mxGeometry>
        </mxCell>
        <mxCell id="0Uzv47MZa6qNcgDxZGDY-18" value="00001 Там-Сямск, 1 путь" style="text;html=1;strokeColor=none;fillColor=none;align=center;verticalAlign=middle;whiteSpace=wrap;rounded=0;fontSize=37;" parent="1" vertex="1">
          <mxGeometry x="820" y="40" width="780" height="30" as="geometry" />
        </mxCell>
        <mxCell id="0Uzv47MZa6qNcgDxZGDY-21" value="00001 Там-Сямск, 1 путь" style="text;html=1;strokeColor=none;fillColor=none;align=center;verticalAlign=middle;whiteSpace=wrap;rounded=0;fontSize=37;" parent="1" vertex="1">
          <mxGeometry x="2981.6" y="40" width="780" height="30" as="geometry" />
        </mxCell>
        <mxCell id="0Uzv47MZa6qNcgDxZGDY-22" value="00001 Там-Сямск, 1 путь" style="text;html=1;strokeColor=none;fillColor=none;align=center;verticalAlign=middle;whiteSpace=wrap;rounded=0;fontSize=37;" parent="1" vertex="1">
          <mxGeometry x="5650" y="40" width="780" height="30" as="geometry" />
        </mxCell>
        <mxCell id="0Uzv47MZa6qNcgDxZGDY-23" value="" style="rounded=0;whiteSpace=wrap;html=1;" parent="1" vertex="1">
          <mxGeometry x="1270" y="120" width="20" height="10" as="geometry" />
        </mxCell>
        <mxCell id="0Uzv47MZa6qNcgDxZGDY-24" value="" style="endArrow=none;html=1;rounded=0;entryX=0.5;entryY=0;entryDx=0;entryDy=0;" parent="1" target="0Uzv47MZa6qNcgDxZGDY-23" edge="1">
          <mxGeometry width="50" height="50" relative="1" as="geometry">
            <mxPoint x="1280" y="160" as="sourcePoint" />
            <mxPoint x="1310" y="100" as="targetPoint" />
          </mxGeometry>
        </mxCell>
        <mxCell id="0Uzv47MZa6qNcgDxZGDY-25" value="Туть" style="text;html=1;strokeColor=none;fillColor=none;align=center;verticalAlign=middle;whiteSpace=wrap;rounded=0;" parent="1" vertex="1">
          <mxGeometry x="1245" y="90" width="70" height="30" as="geometry" />
        </mxCell>
        <mxCell id="0Uzv47MZa6qNcgDxZGDY-28" value="Сюдаево" style="text;html=1;strokeColor=none;fillColor=none;align=center;verticalAlign=middle;whiteSpace=wrap;rounded=0;" parent="1" vertex="1">
          <mxGeometry x="2405" y="90" width="70" height="30" as="geometry" />
        </mxCell>
        <mxCell id="0Uzv47MZa6qNcgDxZGDY-30" value="" style="rounded=0;whiteSpace=wrap;html=1;" parent="1" vertex="1">
          <mxGeometry x="2430" y="120" width="20" height="10" as="geometry" />
        </mxCell>
        <mxCell id="0Uzv47MZa6qNcgDxZGDY-31" value="" style="endArrow=none;html=1;rounded=0;entryX=0.5;entryY=0;entryDx=0;entryDy=0;" parent="1" target="0Uzv47MZa6qNcgDxZGDY-30" edge="1">
          <mxGeometry width="50" height="50" relative="1" as="geometry">
            <mxPoint x="2440" y="160" as="sourcePoint" />
            <mxPoint x="2475" y="100" as="targetPoint" />
          </mxGeometry>
        </mxCell>
        <mxCell id="0Uzv47MZa6qNcgDxZGDY-33" value="Стреломестное" style="text;html=1;strokeColor=none;fillColor=none;align=center;verticalAlign=middle;whiteSpace=wrap;rounded=0;" parent="1" vertex="1">
          <mxGeometry x="4790" y="90" width="70" height="30" as="geometry" />
        </mxCell>
        <mxCell id="0Uzv47MZa6qNcgDxZGDY-34" value="" style="rounded=0;whiteSpace=wrap;html=1;" parent="1" vertex="1">
          <mxGeometry x="4815" y="120" width="20" height="10" as="geometry" />
        </mxCell>
        <mxCell id="0Uzv47MZa6qNcgDxZGDY-35" value="" style="endArrow=none;html=1;rounded=0;entryX=0.5;entryY=0;entryDx=0;entryDy=0;" parent="1" target="0Uzv47MZa6qNcgDxZGDY-34" edge="1">
          <mxGeometry width="50" height="50" relative="1" as="geometry">
            <mxPoint x="4825" y="160" as="sourcePoint" />
            <mxPoint x="4860" y="100" as="targetPoint" />
          </mxGeometry>
        </mxCell>
        <mxCell id="0Uzv47MZa6qNcgDxZGDY-39" value="Кудатовка" style="text;html=1;strokeColor=none;fillColor=none;align=center;verticalAlign=middle;whiteSpace=wrap;rounded=0;" parent="1" vertex="1">
          <mxGeometry x="3485" y="90" width="70" height="30" as="geometry" />
        </mxCell>
        <mxCell id="0Uzv47MZa6qNcgDxZGDY-40" value="" style="rounded=0;whiteSpace=wrap;html=1;" parent="1" vertex="1">
          <mxGeometry x="3510" y="120" width="20" height="10" as="geometry" />
        </mxCell>
        <mxCell id="0Uzv47MZa6qNcgDxZGDY-41" value="" style="endArrow=none;html=1;rounded=0;entryX=0.5;entryY=0;entryDx=0;entryDy=0;" parent="1" target="0Uzv47MZa6qNcgDxZGDY-40" edge="1">
          <mxGeometry width="50" height="50" relative="1" as="geometry">
            <mxPoint x="3520" y="160" as="sourcePoint" />
            <mxPoint x="3555" y="100" as="targetPoint" />
          </mxGeometry>
        </mxCell>
        <mxCell id="0Uzv47MZa6qNcgDxZGDY-42" value="О.п. 1270 км" style="text;html=1;strokeColor=none;fillColor=none;align=center;verticalAlign=middle;whiteSpace=wrap;rounded=0;" parent="1" vertex="1">
          <mxGeometry x="6080" y="90" width="100" height="30" as="geometry" />
        </mxCell>
        <mxCell id="0Uzv47MZa6qNcgDxZGDY-43" value="" style="rounded=0;whiteSpace=wrap;html=1;" parent="1" vertex="1">
          <mxGeometry x="6115" y="120" width="20" height="10" as="geometry" />
        </mxCell>
        <mxCell id="0Uzv47MZa6qNcgDxZGDY-44" value="" style="endArrow=none;html=1;rounded=0;entryX=0.5;entryY=0;entryDx=0;entryDy=0;" parent="1" target="0Uzv47MZa6qNcgDxZGDY-43" edge="1">
          <mxGeometry width="50" height="50" relative="1" as="geometry">
            <mxPoint x="6125" y="160" as="sourcePoint" />
            <mxPoint x="6160" y="100" as="targetPoint" />
          </mxGeometry>
        </mxCell>
        <mxCell id="0Uzv47MZa6qNcgDxZGDY-46" value="4" style="text;html=1;strokeColor=none;fillColor=none;align=center;verticalAlign=middle;whiteSpace=wrap;rounded=0;" parent="1" vertex="1">
          <mxGeometry x="370" y="223" width="20" height="7" as="geometry" />
        </mxCell>
        <mxCell id="0Uzv47MZa6qNcgDxZGDY-49" value="6" style="text;html=1;strokeColor=none;fillColor=none;align=center;verticalAlign=middle;whiteSpace=wrap;rounded=0;" parent="1" vertex="1">
          <mxGeometry x="400" y="223" width="20" height="7" as="geometry" />
        </mxCell>
        <mxCell id="0Uzv47MZa6qNcgDxZGDY-50" value="" style="endArrow=none;html=1;rounded=0;" parent="1" edge="1">
          <mxGeometry width="50" height="50" relative="1" as="geometry">
            <mxPoint x="613" y="229" as="sourcePoint" />
            <mxPoint x="619" y="221" as="targetPoint" />
          </mxGeometry>
        </mxCell>
        <mxCell id="0Uzv47MZa6qNcgDxZGDY-51" value="1" style="text;html=1;strokeColor=none;fillColor=none;align=center;verticalAlign=middle;whiteSpace=wrap;rounded=0;" parent="1" vertex="1">
          <mxGeometry x="613" y="224" width="20" height="7" as="geometry" />
        </mxCell>
        <mxCell id="0Uzv47MZa6qNcgDxZGDY-52" value="" style="endArrow=none;html=1;rounded=0;" parent="1" edge="1">
          <mxGeometry width="50" height="50" relative="1" as="geometry">
            <mxPoint x="606" y="229" as="sourcePoint" />
            <mxPoint x="600" y="221" as="targetPoint" />
          </mxGeometry>
        </mxCell>
        <mxCell id="0Uzv47MZa6qNcgDxZGDY-53" value="7" style="text;html=1;strokeColor=none;fillColor=none;align=center;verticalAlign=middle;whiteSpace=wrap;rounded=0;" parent="1" vertex="1">
          <mxGeometry x="585" y="224" width="20" height="7" as="geometry" />
        </mxCell>
        <mxCell id="0Uzv47MZa6qNcgDxZGDY-54" value="" style="endArrow=none;html=1;rounded=0;" parent="1" edge="1">
          <mxGeometry width="50" height="50" relative="1" as="geometry">
            <mxPoint x="384" y="230" as="sourcePoint" />
            <mxPoint x="390" y="221" as="targetPoint" />
          </mxGeometry>
        </mxCell>
        <mxCell id="0Uzv47MZa6qNcgDxZGDY-55" value="" style="endArrow=none;html=1;rounded=0;" parent="1" edge="1">
          <mxGeometry width="50" height="50" relative="1" as="geometry">
            <mxPoint x="406" y="230" as="sourcePoint" />
            <mxPoint x="400" y="221" as="targetPoint" />
          </mxGeometry>
        </mxCell>
        <mxCell id="0Uzv47MZa6qNcgDxZGDY-57" value="" style="endArrow=none;html=1;rounded=0;" parent="1" target="0Uzv47MZa6qNcgDxZGDY-56" edge="1">
          <mxGeometry width="50" height="50" relative="1" as="geometry">
            <mxPoint x="240" y="220" as="sourcePoint" />
            <mxPoint x="6800" y="240" as="targetPoint" />
          </mxGeometry>
        </mxCell>
        <mxCell id="0Uzv47MZa6qNcgDxZGDY-56" value="" style="rounded=1;whiteSpace=wrap;html=1;" parent="1" vertex="1">
          <mxGeometry x="990" y="215" width="20" height="10" as="geometry" />
        </mxCell>
        <mxCell id="0Uzv47MZa6qNcgDxZGDY-58" value="М(125,55)" style="text;html=1;strokeColor=none;fillColor=none;align=center;verticalAlign=middle;whiteSpace=wrap;rounded=0;" parent="1" vertex="1">
          <mxGeometry x="990" y="200" width="20" height="7" as="geometry" />
        </mxCell>
        <mxCell id="0Uzv47MZa6qNcgDxZGDY-60" value="" style="endArrow=none;html=1;rounded=0;" parent="1" source="0Uzv47MZa6qNcgDxZGDY-56" target="0Uzv47MZa6qNcgDxZGDY-59" edge="1">
          <mxGeometry width="50" height="50" relative="1" as="geometry">
            <mxPoint x="1010" y="220" as="sourcePoint" />
            <mxPoint x="6800" y="240" as="targetPoint" />
          </mxGeometry>
        </mxCell>
        <mxCell id="0Uzv47MZa6qNcgDxZGDY-59" value="" style="shape=process;whiteSpace=wrap;html=1;backgroundOutline=1;rotation=90;" parent="1" vertex="1">
          <mxGeometry x="2435" y="220" width="15" height="7" as="geometry" />
        </mxCell>
        <mxCell id="0Uzv47MZa6qNcgDxZGDY-61" value="Н" style="text;html=1;strokeColor=none;fillColor=none;align=center;verticalAlign=middle;whiteSpace=wrap;rounded=0;" parent="1" vertex="1">
          <mxGeometry x="2410" y="190" width="70" height="30" as="geometry" />
        </mxCell>
        <mxCell id="0Uzv47MZa6qNcgDxZGDY-62" value="4" style="text;html=1;strokeColor=none;fillColor=none;align=center;verticalAlign=middle;whiteSpace=wrap;rounded=0;" parent="1" vertex="1">
          <mxGeometry x="3890" y="224" width="20" height="7" as="geometry" />
        </mxCell>
        <mxCell id="0Uzv47MZa6qNcgDxZGDY-63" value="3" style="text;html=1;strokeColor=none;fillColor=none;align=center;verticalAlign=middle;whiteSpace=wrap;rounded=0;" parent="1" vertex="1">
          <mxGeometry x="4090" y="224" width="20" height="7" as="geometry" />
        </mxCell>
        <mxCell id="0Uzv47MZa6qNcgDxZGDY-64" value="" style="endArrow=none;html=1;rounded=0;" parent="1" edge="1">
          <mxGeometry width="50" height="50" relative="1" as="geometry">
            <mxPoint x="3904" y="232" as="sourcePoint" />
            <mxPoint x="3910" y="223" as="targetPoint" />
          </mxGeometry>
        </mxCell>
        <mxCell id="0Uzv47MZa6qNcgDxZGDY-65" value="" style="endArrow=none;html=1;rounded=0;" parent="1" edge="1">
          <mxGeometry width="50" height="50" relative="1" as="geometry">
            <mxPoint x="4096" y="231" as="sourcePoint" />
            <mxPoint x="4090" y="222" as="targetPoint" />
          </mxGeometry>
        </mxCell>
        <mxCell id="0Uzv47MZa6qNcgDxZGDY-66" value="" style="rounded=1;whiteSpace=wrap;html=1;" parent="1" vertex="1">
          <mxGeometry x="5560" y="215" width="6" height="10" as="geometry" />
        </mxCell>
        <mxCell id="0Uzv47MZa6qNcgDxZGDY-67" value="Т(75,75)" style="text;html=1;strokeColor=none;fillColor=none;align=center;verticalAlign=middle;whiteSpace=wrap;rounded=0;" parent="1" vertex="1">
          <mxGeometry x="5560" y="201" width="20" height="7" as="geometry" />
        </mxCell>
        <mxCell id="0Uzv47MZa6qNcgDxZGDY-71" value="" style="rounded=1;whiteSpace=wrap;html=1;" parent="1" vertex="1">
          <mxGeometry x="5320" y="216" width="12.8736" height="10" as="geometry" />
        </mxCell>
        <mxCell id="0Uzv47MZa6qNcgDxZGDY-72" value="М(80,46)" style="text;html=1;strokeColor=none;fillColor=none;align=center;verticalAlign=middle;whiteSpace=wrap;rounded=0;" parent="1" vertex="1">
          <mxGeometry x="5320" y="201" width="20" height="7" as="geometry" />
        </mxCell>
        <mxCell id="0Uzv47MZa6qNcgDxZGDY-73" value="" style="shape=process;whiteSpace=wrap;html=1;backgroundOutline=1;rotation=90;" parent="1" vertex="1">
          <mxGeometry x="6120" y="216" width="15" height="7" as="geometry" />
        </mxCell>
        <mxCell id="0Uzv47MZa6qNcgDxZGDY-74" value="О" style="text;html=1;strokeColor=none;fillColor=none;align=center;verticalAlign=middle;whiteSpace=wrap;rounded=0;" parent="1" vertex="1">
          <mxGeometry x="6095" y="186" width="70" height="30" as="geometry" />
        </mxCell>
        <mxCell id="0Uzv47MZa6qNcgDxZGDY-75" value="4" style="text;html=1;strokeColor=none;fillColor=none;align=center;verticalAlign=middle;whiteSpace=wrap;rounded=0;" parent="1" vertex="1">
          <mxGeometry x="6441" y="223.5" width="20" height="7" as="geometry" />
        </mxCell>
        <mxCell id="0Uzv47MZa6qNcgDxZGDY-76" value="6" style="text;html=1;strokeColor=none;fillColor=none;align=center;verticalAlign=middle;whiteSpace=wrap;rounded=0;" parent="1" vertex="1">
          <mxGeometry x="6471" y="223.5" width="20" height="7" as="geometry" />
        </mxCell>
        <mxCell id="0Uzv47MZa6qNcgDxZGDY-77" value="" style="endArrow=none;html=1;rounded=0;" parent="1" edge="1">
          <mxGeometry width="50" height="50" relative="1" as="geometry">
            <mxPoint x="6738" y="229" as="sourcePoint" />
            <mxPoint x="6744" y="221" as="targetPoint" />
          </mxGeometry>
        </mxCell>
        <mxCell id="0Uzv47MZa6qNcgDxZGDY-78" value="1" style="text;html=1;strokeColor=none;fillColor=none;align=center;verticalAlign=middle;whiteSpace=wrap;rounded=0;" parent="1" vertex="1">
          <mxGeometry x="6738" y="224" width="20" height="7" as="geometry" />
        </mxCell>
        <mxCell id="0Uzv47MZa6qNcgDxZGDY-79" value="" style="endArrow=none;html=1;rounded=0;" parent="1" edge="1">
          <mxGeometry width="50" height="50" relative="1" as="geometry">
            <mxPoint x="6731" y="229" as="sourcePoint" />
            <mxPoint x="6725" y="221" as="targetPoint" />
          </mxGeometry>
        </mxCell>
        <mxCell id="0Uzv47MZa6qNcgDxZGDY-80" value="7" style="text;html=1;strokeColor=none;fillColor=none;align=center;verticalAlign=middle;whiteSpace=wrap;rounded=0;" parent="1" vertex="1">
          <mxGeometry x="6710" y="224" width="20" height="7" as="geometry" />
        </mxCell>
        <mxCell id="0Uzv47MZa6qNcgDxZGDY-81" value="" style="endArrow=none;html=1;rounded=0;" parent="1" edge="1">
          <mxGeometry width="50" height="50" relative="1" as="geometry">
            <mxPoint x="6455" y="230.5" as="sourcePoint" />
            <mxPoint x="6461" y="221.5" as="targetPoint" />
          </mxGeometry>
        </mxCell>
        <mxCell id="0Uzv47MZa6qNcgDxZGDY-82" value="" style="endArrow=none;html=1;rounded=0;" parent="1" edge="1">
          <mxGeometry width="50" height="50" relative="1" as="geometry">
            <mxPoint x="6477" y="230.5" as="sourcePoint" />
            <mxPoint x="6471" y="221.5" as="targetPoint" />
          </mxGeometry>
        </mxCell>
        <mxCell id="iH_aEqxw_GgNqT9NQLik-1" value="" style="rounded=0;whiteSpace=wrap;html=1;" parent="1" vertex="1">
          <mxGeometry x="240" y="260" width="100" height="40" as="geometry" />
        </mxCell>
        <mxCell id="iH_aEqxw_GgNqT9NQLik-3" value="" style="endArrow=none;html=1;rounded=0;entryX=1;entryY=0;entryDx=0;entryDy=0;" parent="1" target="iH_aEqxw_GgNqT9NQLik-1" edge="1">
          <mxGeometry width="50" height="50" relative="1" as="geometry">
            <mxPoint x="240" y="300" as="sourcePoint" />
            <mxPoint x="290" y="250" as="targetPoint" />
          </mxGeometry>
        </mxCell>
        <mxCell id="iH_aEqxw_GgNqT9NQLik-4" value="0.8" style="text;html=1;strokeColor=none;fillColor=none;align=center;verticalAlign=middle;whiteSpace=wrap;rounded=0;" parent="1" vertex="1">
          <mxGeometry x="245" y="265" width="20" height="10" as="geometry" />
        </mxCell>
        <mxCell id="iH_aEqxw_GgNqT9NQLik-5" value="625" style="text;html=1;strokeColor=none;fillColor=none;align=center;verticalAlign=middle;whiteSpace=wrap;rounded=0;" parent="1" vertex="1">
          <mxGeometry x="315" y="285" width="20" height="10" as="geometry" />
        </mxCell>
        <mxCell id="iH_aEqxw_GgNqT9NQLik-6" value="" style="rounded=0;whiteSpace=wrap;html=1;" parent="1" vertex="1">
          <mxGeometry x="340" y="260" width="53.92" height="40" as="geometry" />
        </mxCell>
        <mxCell id="iH_aEqxw_GgNqT9NQLik-7" value="" style="endArrow=none;html=1;rounded=0;entryX=1;entryY=0.5;entryDx=0;entryDy=0;exitX=0;exitY=0.5;exitDx=0;exitDy=0;" parent="1" source="iH_aEqxw_GgNqT9NQLik-6" target="iH_aEqxw_GgNqT9NQLik-6" edge="1">
          <mxGeometry width="50" height="50" relative="1" as="geometry">
            <mxPoint x="340" y="300" as="sourcePoint" />
            <mxPoint x="390" y="250" as="targetPoint" />
          </mxGeometry>
        </mxCell>
        <mxCell id="iH_aEqxw_GgNqT9NQLik-8" value="0.0" style="text;html=1;strokeColor=none;fillColor=none;align=center;verticalAlign=middle;whiteSpace=wrap;rounded=0;" parent="1" vertex="1">
          <mxGeometry x="356.96" y="265" width="20" height="10" as="geometry" />
        </mxCell>
        <mxCell id="iH_aEqxw_GgNqT9NQLik-9" value="337" style="text;html=1;strokeColor=none;fillColor=none;align=center;verticalAlign=middle;whiteSpace=wrap;rounded=0;" parent="1" vertex="1">
          <mxGeometry x="356.96" y="285" width="20" height="10" as="geometry" />
        </mxCell>
        <mxCell id="iH_aEqxw_GgNqT9NQLik-13" value="" style="rounded=0;whiteSpace=wrap;html=1;" parent="1" vertex="1">
          <mxGeometry x="393.91999999999996" y="260" width="82.08" height="40" as="geometry" />
        </mxCell>
        <mxCell id="iH_aEqxw_GgNqT9NQLik-14" value="" style="endArrow=none;html=1;rounded=0;entryX=1;entryY=1;entryDx=0;entryDy=0;" parent="1" target="iH_aEqxw_GgNqT9NQLik-13" edge="1">
          <mxGeometry width="50" height="50" relative="1" as="geometry">
            <mxPoint x="393.91999999999996" y="260" as="sourcePoint" />
            <mxPoint x="493.91999999999996" y="220" as="targetPoint" />
          </mxGeometry>
        </mxCell>
        <mxCell id="iH_aEqxw_GgNqT9NQLik-15" value="513" style="text;html=1;strokeColor=none;fillColor=none;align=center;verticalAlign=middle;whiteSpace=wrap;rounded=0;" parent="1" vertex="1">
          <mxGeometry x="400" y="285" width="20" height="10" as="geometry" />
        </mxCell>
        <mxCell id="iH_aEqxw_GgNqT9NQLik-16" value="0.5" style="text;html=1;strokeColor=none;fillColor=none;align=center;verticalAlign=middle;whiteSpace=wrap;rounded=0;" parent="1" vertex="1">
          <mxGeometry x="450" y="265" width="20" height="10" as="geometry" />
        </mxCell>
        <mxCell id="iH_aEqxw_GgNqT9NQLik-21" value="" style="rounded=0;whiteSpace=wrap;html=1;" parent="1" vertex="1">
          <mxGeometry x="476" y="260" width="65.44" height="40" as="geometry" />
        </mxCell>
        <mxCell id="iH_aEqxw_GgNqT9NQLik-22" value="" style="endArrow=none;html=1;rounded=0;entryX=1;entryY=0.5;entryDx=0;entryDy=0;exitX=0;exitY=0.5;exitDx=0;exitDy=0;" parent="1" source="iH_aEqxw_GgNqT9NQLik-21" target="iH_aEqxw_GgNqT9NQLik-21" edge="1">
          <mxGeometry width="50" height="50" relative="1" as="geometry">
            <mxPoint x="476" y="300" as="sourcePoint" />
            <mxPoint x="526" y="250" as="targetPoint" />
          </mxGeometry>
        </mxCell>
        <mxCell id="iH_aEqxw_GgNqT9NQLik-23" value="0.0" style="text;html=1;strokeColor=none;fillColor=none;align=center;verticalAlign=middle;whiteSpace=wrap;rounded=0;" parent="1" vertex="1">
          <mxGeometry x="498.71999999999997" y="265" width="20" height="10" as="geometry" />
        </mxCell>
        <mxCell id="iH_aEqxw_GgNqT9NQLik-24" value="409" style="text;html=1;strokeColor=none;fillColor=none;align=center;verticalAlign=middle;whiteSpace=wrap;rounded=0;" parent="1" vertex="1">
          <mxGeometry x="498.71999999999997" y="285" width="20" height="10" as="geometry" />
        </mxCell>
        <mxCell id="iH_aEqxw_GgNqT9NQLik-26" value="" style="rounded=0;whiteSpace=wrap;html=1;" parent="1" vertex="1">
          <mxGeometry x="541.44" y="260" width="136" height="40" as="geometry" />
        </mxCell>
        <mxCell id="iH_aEqxw_GgNqT9NQLik-27" value="" style="endArrow=none;html=1;rounded=0;entryX=1;entryY=0;entryDx=0;entryDy=0;" parent="1" target="iH_aEqxw_GgNqT9NQLik-26" edge="1">
          <mxGeometry width="50" height="50" relative="1" as="geometry">
            <mxPoint x="541.44" y="300" as="sourcePoint" />
            <mxPoint x="591.44" y="250" as="targetPoint" />
          </mxGeometry>
        </mxCell>
        <mxCell id="iH_aEqxw_GgNqT9NQLik-28" value="0.4" style="text;html=1;strokeColor=none;fillColor=none;align=center;verticalAlign=middle;whiteSpace=wrap;rounded=0;" parent="1" vertex="1">
          <mxGeometry x="546.44" y="265" width="20" height="10" as="geometry" />
        </mxCell>
        <mxCell id="iH_aEqxw_GgNqT9NQLik-29" value="850" style="text;html=1;strokeColor=none;fillColor=none;align=center;verticalAlign=middle;whiteSpace=wrap;rounded=0;" parent="1" vertex="1">
          <mxGeometry x="650" y="285" width="20" height="10" as="geometry" />
        </mxCell>
        <mxCell id="iH_aEqxw_GgNqT9NQLik-31" value="" style="rounded=0;whiteSpace=wrap;html=1;" parent="1" vertex="1">
          <mxGeometry x="677.44" y="260" width="89.28" height="40" as="geometry" />
        </mxCell>
        <mxCell id="iH_aEqxw_GgNqT9NQLik-32" value="" style="endArrow=none;html=1;rounded=0;entryX=1;entryY=0.5;entryDx=0;entryDy=0;exitX=0;exitY=0.5;exitDx=0;exitDy=0;" parent="1" source="iH_aEqxw_GgNqT9NQLik-31" target="iH_aEqxw_GgNqT9NQLik-31" edge="1">
          <mxGeometry width="50" height="50" relative="1" as="geometry">
            <mxPoint x="677.44" y="300" as="sourcePoint" />
            <mxPoint x="727.44" y="250" as="targetPoint" />
          </mxGeometry>
        </mxCell>
        <mxCell id="iH_aEqxw_GgNqT9NQLik-33" value="0.0" style="text;html=1;strokeColor=none;fillColor=none;align=center;verticalAlign=middle;whiteSpace=wrap;rounded=0;" parent="1" vertex="1">
          <mxGeometry x="712.0799999999999" y="265" width="20" height="10" as="geometry" />
        </mxCell>
        <mxCell id="iH_aEqxw_GgNqT9NQLik-34" value="558" style="text;html=1;strokeColor=none;fillColor=none;align=center;verticalAlign=middle;whiteSpace=wrap;rounded=0;" parent="1" vertex="1">
          <mxGeometry x="712.0799999999999" y="285" width="20" height="10" as="geometry" />
        </mxCell>
        <mxCell id="iH_aEqxw_GgNqT9NQLik-35" value="" style="rounded=0;whiteSpace=wrap;html=1;" parent="1" vertex="1">
          <mxGeometry x="766.72" y="260" width="176.8" height="40" as="geometry" />
        </mxCell>
        <mxCell id="iH_aEqxw_GgNqT9NQLik-36" value="" style="endArrow=none;html=1;rounded=0;entryX=1;entryY=0;entryDx=0;entryDy=0;" parent="1" target="iH_aEqxw_GgNqT9NQLik-35" edge="1">
          <mxGeometry width="50" height="50" relative="1" as="geometry">
            <mxPoint x="766.72" y="300" as="sourcePoint" />
            <mxPoint x="816.72" y="250" as="targetPoint" />
          </mxGeometry>
        </mxCell>
        <mxCell id="iH_aEqxw_GgNqT9NQLik-37" value="3.2" style="text;html=1;strokeColor=none;fillColor=none;align=center;verticalAlign=middle;whiteSpace=wrap;rounded=0;" parent="1" vertex="1">
          <mxGeometry x="771.72" y="265" width="20" height="10" as="geometry" />
        </mxCell>
        <mxCell id="iH_aEqxw_GgNqT9NQLik-38" value="1105" style="text;html=1;strokeColor=none;fillColor=none;align=center;verticalAlign=middle;whiteSpace=wrap;rounded=0;" parent="1" vertex="1">
          <mxGeometry x="910" y="285" width="20" height="10" as="geometry" />
        </mxCell>
        <mxCell id="iH_aEqxw_GgNqT9NQLik-39" value="" style="rounded=0;whiteSpace=wrap;html=1;" parent="1" vertex="1">
          <mxGeometry x="943.52" y="260" width="46.48" height="40" as="geometry" />
        </mxCell>
        <mxCell id="iH_aEqxw_GgNqT9NQLik-40" value="" style="endArrow=none;html=1;rounded=0;entryX=1;entryY=0;entryDx=0;entryDy=0;" parent="1" target="iH_aEqxw_GgNqT9NQLik-39" edge="1">
          <mxGeometry width="50" height="50" relative="1" as="geometry">
            <mxPoint x="943.52" y="300" as="sourcePoint" />
            <mxPoint x="993.52" y="250" as="targetPoint" />
          </mxGeometry>
        </mxCell>
        <mxCell id="iH_aEqxw_GgNqT9NQLik-41" value="1.1" style="text;html=1;strokeColor=none;fillColor=none;align=center;verticalAlign=middle;whiteSpace=wrap;rounded=0;" parent="1" vertex="1">
          <mxGeometry x="947" y="262" width="20" height="10" as="geometry" />
        </mxCell>
        <mxCell id="iH_aEqxw_GgNqT9NQLik-42" value="291" style="text;html=1;strokeColor=none;fillColor=none;align=center;verticalAlign=middle;whiteSpace=wrap;rounded=0;" parent="1" vertex="1">
          <mxGeometry x="967" y="285" width="20" height="10" as="geometry" />
        </mxCell>
        <mxCell id="iH_aEqxw_GgNqT9NQLik-43" value="" style="rounded=0;whiteSpace=wrap;html=1;" parent="1" vertex="1">
          <mxGeometry x="990" y="260" width="20.09" height="40" as="geometry" />
        </mxCell>
        <mxCell id="iH_aEqxw_GgNqT9NQLik-44" value="" style="endArrow=none;html=1;rounded=0;entryX=1;entryY=0.5;entryDx=0;entryDy=0;exitX=0;exitY=0.5;exitDx=0;exitDy=0;" parent="1" source="iH_aEqxw_GgNqT9NQLik-43" target="iH_aEqxw_GgNqT9NQLik-43" edge="1">
          <mxGeometry width="50" height="50" relative="1" as="geometry">
            <mxPoint x="990" y="300" as="sourcePoint" />
            <mxPoint x="1040" y="250" as="targetPoint" />
          </mxGeometry>
        </mxCell>
        <mxCell id="iH_aEqxw_GgNqT9NQLik-45" value="0.0" style="text;html=1;strokeColor=none;fillColor=none;align=center;verticalAlign=middle;whiteSpace=wrap;rounded=0;" parent="1" vertex="1">
          <mxGeometry x="990.0899999999999" y="262" width="20" height="10" as="geometry" />
        </mxCell>
        <mxCell id="iH_aEqxw_GgNqT9NQLik-46" value="126" style="text;html=1;strokeColor=none;fillColor=none;align=center;verticalAlign=middle;whiteSpace=wrap;rounded=0;" parent="1" vertex="1">
          <mxGeometry x="990.0899999999999" y="285" width="20" height="10" as="geometry" />
        </mxCell>
        <mxCell id="iH_aEqxw_GgNqT9NQLik-48" value="" style="rounded=0;whiteSpace=wrap;html=1;" parent="1" vertex="1">
          <mxGeometry x="1010" y="260" width="114.4" height="40" as="geometry" />
        </mxCell>
        <mxCell id="iH_aEqxw_GgNqT9NQLik-49" value="" style="endArrow=none;html=1;rounded=0;entryX=1;entryY=1;entryDx=0;entryDy=0;" parent="1" target="iH_aEqxw_GgNqT9NQLik-48" edge="1">
          <mxGeometry width="50" height="50" relative="1" as="geometry">
            <mxPoint x="1010" y="260" as="sourcePoint" />
            <mxPoint x="1110" y="220" as="targetPoint" />
          </mxGeometry>
        </mxCell>
        <mxCell id="iH_aEqxw_GgNqT9NQLik-50" value="715" style="text;html=1;strokeColor=none;fillColor=none;align=center;verticalAlign=middle;whiteSpace=wrap;rounded=0;" parent="1" vertex="1">
          <mxGeometry x="1016.08" y="285" width="20" height="10" as="geometry" />
        </mxCell>
        <mxCell id="iH_aEqxw_GgNqT9NQLik-51" value="1.7" style="text;html=1;strokeColor=none;fillColor=none;align=center;verticalAlign=middle;whiteSpace=wrap;rounded=0;" parent="1" vertex="1">
          <mxGeometry x="1100" y="262" width="20" height="10" as="geometry" />
        </mxCell>
        <mxCell id="iH_aEqxw_GgNqT9NQLik-52" value="" style="rounded=0;whiteSpace=wrap;html=1;" parent="1" vertex="1">
          <mxGeometry x="1124.4" y="260" width="109.28" height="40" as="geometry" />
        </mxCell>
        <mxCell id="iH_aEqxw_GgNqT9NQLik-53" value="" style="endArrow=none;html=1;rounded=0;entryX=1;entryY=1;entryDx=0;entryDy=0;" parent="1" target="iH_aEqxw_GgNqT9NQLik-52" edge="1">
          <mxGeometry width="50" height="50" relative="1" as="geometry">
            <mxPoint x="1124.4" y="260" as="sourcePoint" />
            <mxPoint x="1224.4" y="220" as="targetPoint" />
          </mxGeometry>
        </mxCell>
        <mxCell id="iH_aEqxw_GgNqT9NQLik-54" value="683" style="text;html=1;strokeColor=none;fillColor=none;align=center;verticalAlign=middle;whiteSpace=wrap;rounded=0;" parent="1" vertex="1">
          <mxGeometry x="1130.48" y="285" width="20" height="10" as="geometry" />
        </mxCell>
        <mxCell id="iH_aEqxw_GgNqT9NQLik-55" value="5.2" style="text;html=1;strokeColor=none;fillColor=none;align=center;verticalAlign=middle;whiteSpace=wrap;rounded=0;" parent="1" vertex="1">
          <mxGeometry x="1210" y="262" width="20" height="10" as="geometry" />
        </mxCell>
        <mxCell id="iH_aEqxw_GgNqT9NQLik-56" value="" style="rounded=0;whiteSpace=wrap;html=1;" parent="1" vertex="1">
          <mxGeometry x="1233.68" y="260" width="130.08" height="40" as="geometry" />
        </mxCell>
        <mxCell id="iH_aEqxw_GgNqT9NQLik-57" value="" style="endArrow=none;html=1;rounded=0;entryX=1;entryY=1;entryDx=0;entryDy=0;" parent="1" target="iH_aEqxw_GgNqT9NQLik-56" edge="1">
          <mxGeometry width="50" height="50" relative="1" as="geometry">
            <mxPoint x="1233.68" y="260" as="sourcePoint" />
            <mxPoint x="1333.68" y="220" as="targetPoint" />
          </mxGeometry>
        </mxCell>
        <mxCell id="iH_aEqxw_GgNqT9NQLik-58" value="813" style="text;html=1;strokeColor=none;fillColor=none;align=center;verticalAlign=middle;whiteSpace=wrap;rounded=0;" parent="1" vertex="1">
          <mxGeometry x="1239.76" y="285" width="20" height="10" as="geometry" />
        </mxCell>
        <mxCell id="iH_aEqxw_GgNqT9NQLik-59" value="1.5" style="text;html=1;strokeColor=none;fillColor=none;align=center;verticalAlign=middle;whiteSpace=wrap;rounded=0;" parent="1" vertex="1">
          <mxGeometry x="1340" y="262" width="20" height="10" as="geometry" />
        </mxCell>
        <mxCell id="iH_aEqxw_GgNqT9NQLik-60" value="" style="rounded=0;whiteSpace=wrap;html=1;" parent="1" vertex="1">
          <mxGeometry x="1363.76" y="260" width="49.12" height="40" as="geometry" />
        </mxCell>
        <mxCell id="iH_aEqxw_GgNqT9NQLik-61" value="" style="endArrow=none;html=1;rounded=0;entryX=1;entryY=0;entryDx=0;entryDy=0;" parent="1" target="iH_aEqxw_GgNqT9NQLik-60" edge="1">
          <mxGeometry width="50" height="50" relative="1" as="geometry">
            <mxPoint x="1363.76" y="300" as="sourcePoint" />
            <mxPoint x="1413.76" y="250" as="targetPoint" />
          </mxGeometry>
        </mxCell>
        <mxCell id="iH_aEqxw_GgNqT9NQLik-62" value="1.1" style="text;html=1;strokeColor=none;fillColor=none;align=center;verticalAlign=middle;whiteSpace=wrap;rounded=0;" parent="1" vertex="1">
          <mxGeometry x="1367.24" y="262" width="20" height="10" as="geometry" />
        </mxCell>
        <mxCell id="iH_aEqxw_GgNqT9NQLik-63" value="307" style="text;html=1;strokeColor=none;fillColor=none;align=center;verticalAlign=middle;whiteSpace=wrap;rounded=0;" parent="1" vertex="1">
          <mxGeometry x="1387.24" y="285" width="20" height="10" as="geometry" />
        </mxCell>
        <mxCell id="iH_aEqxw_GgNqT9NQLik-64" value="" style="rounded=0;whiteSpace=wrap;html=1;" parent="1" vertex="1">
          <mxGeometry x="1412.8799999999999" y="260" width="192.8" height="40" as="geometry" />
        </mxCell>
        <mxCell id="iH_aEqxw_GgNqT9NQLik-65" value="" style="endArrow=none;html=1;rounded=0;entryX=1;entryY=0;entryDx=0;entryDy=0;" parent="1" target="iH_aEqxw_GgNqT9NQLik-64" edge="1">
          <mxGeometry width="50" height="50" relative="1" as="geometry">
            <mxPoint x="1412.8799999999999" y="300" as="sourcePoint" />
            <mxPoint x="1462.8799999999999" y="250" as="targetPoint" />
          </mxGeometry>
        </mxCell>
        <mxCell id="iH_aEqxw_GgNqT9NQLik-66" value="2.3" style="text;html=1;strokeColor=none;fillColor=none;align=center;verticalAlign=middle;whiteSpace=wrap;rounded=0;" parent="1" vertex="1">
          <mxGeometry x="1416.36" y="262" width="20" height="10" as="geometry" />
        </mxCell>
        <mxCell id="iH_aEqxw_GgNqT9NQLik-67" value="1205" style="text;html=1;strokeColor=none;fillColor=none;align=center;verticalAlign=middle;whiteSpace=wrap;rounded=0;" parent="1" vertex="1">
          <mxGeometry x="1578" y="285" width="20" height="10" as="geometry" />
        </mxCell>
        <mxCell id="iH_aEqxw_GgNqT9NQLik-68" value="" style="rounded=0;whiteSpace=wrap;html=1;" parent="1" vertex="1">
          <mxGeometry x="1605.68" y="260" width="13.6" height="40" as="geometry" />
        </mxCell>
        <mxCell id="iH_aEqxw_GgNqT9NQLik-69" value="" style="endArrow=none;html=1;rounded=0;entryX=1;entryY=0;entryDx=0;entryDy=0;" parent="1" target="iH_aEqxw_GgNqT9NQLik-68" edge="1">
          <mxGeometry width="50" height="50" relative="1" as="geometry">
            <mxPoint x="1605.68" y="300" as="sourcePoint" />
            <mxPoint x="1655.68" y="250" as="targetPoint" />
          </mxGeometry>
        </mxCell>
        <mxCell id="iH_aEqxw_GgNqT9NQLik-70" value="5.7" style="text;html=1;strokeColor=none;fillColor=none;align=center;verticalAlign=middle;whiteSpace=wrap;rounded=0;" parent="1" vertex="1">
          <mxGeometry x="1602.48" y="246" width="20" height="10" as="geometry" />
        </mxCell>
        <mxCell id="iH_aEqxw_GgNqT9NQLik-71" value="85" style="text;html=1;strokeColor=none;fillColor=none;align=center;verticalAlign=middle;whiteSpace=wrap;rounded=0;" parent="1" vertex="1">
          <mxGeometry x="1603" y="302" width="20" height="10" as="geometry" />
        </mxCell>
        <mxCell id="iH_aEqxw_GgNqT9NQLik-73" value="" style="rounded=0;whiteSpace=wrap;html=1;" parent="1" vertex="1">
          <mxGeometry x="1619.28" y="260" width="74.88" height="40" as="geometry" />
        </mxCell>
        <mxCell id="iH_aEqxw_GgNqT9NQLik-74" value="" style="endArrow=none;html=1;rounded=0;entryX=1;entryY=0;entryDx=0;entryDy=0;" parent="1" target="iH_aEqxw_GgNqT9NQLik-73" edge="1">
          <mxGeometry width="50" height="50" relative="1" as="geometry">
            <mxPoint x="1619.28" y="300" as="sourcePoint" />
            <mxPoint x="1669.28" y="250" as="targetPoint" />
          </mxGeometry>
        </mxCell>
        <mxCell id="iH_aEqxw_GgNqT9NQLik-75" value="3.5" style="text;html=1;strokeColor=none;fillColor=none;align=center;verticalAlign=middle;whiteSpace=wrap;rounded=0;" parent="1" vertex="1">
          <mxGeometry x="1622.76" y="262" width="20" height="10" as="geometry" />
        </mxCell>
        <mxCell id="iH_aEqxw_GgNqT9NQLik-76" value="543" style="text;html=1;strokeColor=none;fillColor=none;align=center;verticalAlign=middle;whiteSpace=wrap;rounded=0;" parent="1" vertex="1">
          <mxGeometry x="1670" y="285" width="20" height="10" as="geometry" />
        </mxCell>
        <mxCell id="iH_aEqxw_GgNqT9NQLik-77" value="" style="rounded=0;whiteSpace=wrap;html=1;" parent="1" vertex="1">
          <mxGeometry x="1694.1599999999999" y="260" width="20.09" height="40" as="geometry" />
        </mxCell>
        <mxCell id="iH_aEqxw_GgNqT9NQLik-78" value="" style="endArrow=none;html=1;rounded=0;entryX=1;entryY=0.5;entryDx=0;entryDy=0;exitX=0;exitY=0.5;exitDx=0;exitDy=0;" parent="1" source="iH_aEqxw_GgNqT9NQLik-77" target="iH_aEqxw_GgNqT9NQLik-77" edge="1">
          <mxGeometry width="50" height="50" relative="1" as="geometry">
            <mxPoint x="1694.1599999999999" y="300" as="sourcePoint" />
            <mxPoint x="1744.1599999999999" y="250" as="targetPoint" />
          </mxGeometry>
        </mxCell>
        <mxCell id="iH_aEqxw_GgNqT9NQLik-79" value="0.0" style="text;html=1;strokeColor=none;fillColor=none;align=center;verticalAlign=middle;whiteSpace=wrap;rounded=0;" parent="1" vertex="1">
          <mxGeometry x="1694.25" y="262" width="20" height="10" as="geometry" />
        </mxCell>
        <mxCell id="iH_aEqxw_GgNqT9NQLik-80" value="126" style="text;html=1;strokeColor=none;fillColor=none;align=center;verticalAlign=middle;whiteSpace=wrap;rounded=0;" parent="1" vertex="1">
          <mxGeometry x="1694.25" y="285" width="20" height="10" as="geometry" />
        </mxCell>
        <mxCell id="iH_aEqxw_GgNqT9NQLik-81" value="" style="rounded=0;whiteSpace=wrap;html=1;" parent="1" vertex="1">
          <mxGeometry x="1714.25" y="260" width="130.08" height="40" as="geometry" />
        </mxCell>
        <mxCell id="iH_aEqxw_GgNqT9NQLik-82" value="" style="endArrow=none;html=1;rounded=0;entryX=1;entryY=1;entryDx=0;entryDy=0;" parent="1" target="iH_aEqxw_GgNqT9NQLik-81" edge="1">
          <mxGeometry width="50" height="50" relative="1" as="geometry">
            <mxPoint x="1714.25" y="260" as="sourcePoint" />
            <mxPoint x="1814.25" y="220" as="targetPoint" />
          </mxGeometry>
        </mxCell>
        <mxCell id="iH_aEqxw_GgNqT9NQLik-83" value="838" style="text;html=1;strokeColor=none;fillColor=none;align=center;verticalAlign=middle;whiteSpace=wrap;rounded=0;" parent="1" vertex="1">
          <mxGeometry x="1720.33" y="285" width="20" height="10" as="geometry" />
        </mxCell>
        <mxCell id="iH_aEqxw_GgNqT9NQLik-84" value="1.5" style="text;html=1;strokeColor=none;fillColor=none;align=center;verticalAlign=middle;whiteSpace=wrap;rounded=0;" parent="1" vertex="1">
          <mxGeometry x="1820" y="262" width="20" height="10" as="geometry" />
        </mxCell>
        <mxCell id="iH_aEqxw_GgNqT9NQLik-85" value="" style="rounded=0;whiteSpace=wrap;html=1;" parent="1" vertex="1">
          <mxGeometry x="1844.33" y="260" width="160" height="40" as="geometry" />
        </mxCell>
        <mxCell id="iH_aEqxw_GgNqT9NQLik-86" value="" style="endArrow=none;html=1;rounded=0;entryX=1;entryY=0;entryDx=0;entryDy=0;" parent="1" target="iH_aEqxw_GgNqT9NQLik-85" edge="1">
          <mxGeometry width="50" height="50" relative="1" as="geometry">
            <mxPoint x="1844.33" y="300" as="sourcePoint" />
            <mxPoint x="1894.33" y="250" as="targetPoint" />
          </mxGeometry>
        </mxCell>
        <mxCell id="iH_aEqxw_GgNqT9NQLik-87" value="3.4" style="text;html=1;strokeColor=none;fillColor=none;align=center;verticalAlign=middle;whiteSpace=wrap;rounded=0;" parent="1" vertex="1">
          <mxGeometry x="1847.81" y="262" width="20" height="10" as="geometry" />
        </mxCell>
        <mxCell id="iH_aEqxw_GgNqT9NQLik-88" value="990" style="text;html=1;strokeColor=none;fillColor=none;align=center;verticalAlign=middle;whiteSpace=wrap;rounded=0;" parent="1" vertex="1">
          <mxGeometry x="1980" y="285" width="20" height="10" as="geometry" />
        </mxCell>
        <mxCell id="iH_aEqxw_GgNqT9NQLik-89" value="" style="rounded=0;whiteSpace=wrap;html=1;" parent="1" vertex="1">
          <mxGeometry x="2005" y="260" width="75" height="40" as="geometry" />
        </mxCell>
        <mxCell id="iH_aEqxw_GgNqT9NQLik-90" value="" style="endArrow=none;html=1;rounded=0;entryX=1;entryY=0;entryDx=0;entryDy=0;exitX=0;exitY=1;exitDx=0;exitDy=0;" parent="1" source="iH_aEqxw_GgNqT9NQLik-89" target="iH_aEqxw_GgNqT9NQLik-89" edge="1">
          <mxGeometry width="50" height="50" relative="1" as="geometry">
            <mxPoint x="2000" y="300" as="sourcePoint" />
            <mxPoint x="2050" y="250" as="targetPoint" />
          </mxGeometry>
        </mxCell>
        <mxCell id="iH_aEqxw_GgNqT9NQLik-91" value="7.5" style="text;html=1;strokeColor=none;fillColor=none;align=center;verticalAlign=middle;whiteSpace=wrap;rounded=0;" parent="1" vertex="1">
          <mxGeometry x="2010" y="262" width="20" height="10" as="geometry" />
        </mxCell>
        <mxCell id="iH_aEqxw_GgNqT9NQLik-92" value="454" style="text;html=1;strokeColor=none;fillColor=none;align=center;verticalAlign=middle;whiteSpace=wrap;rounded=0;" parent="1" vertex="1">
          <mxGeometry x="2056" y="285" width="20" height="10" as="geometry" />
        </mxCell>
        <mxCell id="iH_aEqxw_GgNqT9NQLik-94" value="" style="rounded=0;whiteSpace=wrap;html=1;" parent="1" vertex="1">
          <mxGeometry x="2080" y="260" width="126.88" height="40" as="geometry" />
        </mxCell>
        <mxCell id="iH_aEqxw_GgNqT9NQLik-95" value="" style="endArrow=none;html=1;rounded=0;entryX=1;entryY=0;entryDx=0;entryDy=0;" parent="1" target="iH_aEqxw_GgNqT9NQLik-94" edge="1">
          <mxGeometry width="50" height="50" relative="1" as="geometry">
            <mxPoint x="2082.56" y="300" as="sourcePoint" />
            <mxPoint x="2132.56" y="250" as="targetPoint" />
          </mxGeometry>
        </mxCell>
        <mxCell id="iH_aEqxw_GgNqT9NQLik-96" value="2.8" style="text;html=1;strokeColor=none;fillColor=none;align=center;verticalAlign=middle;whiteSpace=wrap;rounded=0;" parent="1" vertex="1">
          <mxGeometry x="2086.04" y="262" width="20" height="10" as="geometry" />
        </mxCell>
        <mxCell id="iH_aEqxw_GgNqT9NQLik-97" value="777" style="text;html=1;strokeColor=none;fillColor=none;align=center;verticalAlign=middle;whiteSpace=wrap;rounded=0;" parent="1" vertex="1">
          <mxGeometry x="2180" y="285" width="20" height="10" as="geometry" />
        </mxCell>
        <mxCell id="iH_aEqxw_GgNqT9NQLik-98" value="" style="rounded=0;whiteSpace=wrap;html=1;" parent="1" vertex="1">
          <mxGeometry x="2206.88" y="260" width="50.88" height="40" as="geometry" />
        </mxCell>
        <mxCell id="iH_aEqxw_GgNqT9NQLik-99" value="" style="endArrow=none;html=1;rounded=0;entryX=1;entryY=0.5;entryDx=0;entryDy=0;exitX=0;exitY=0.5;exitDx=0;exitDy=0;" parent="1" source="iH_aEqxw_GgNqT9NQLik-98" target="iH_aEqxw_GgNqT9NQLik-98" edge="1">
          <mxGeometry width="50" height="50" relative="1" as="geometry">
            <mxPoint x="2206.88" y="300" as="sourcePoint" />
            <mxPoint x="2256.88" y="250" as="targetPoint" />
          </mxGeometry>
        </mxCell>
        <mxCell id="iH_aEqxw_GgNqT9NQLik-100" value="0.0" style="text;html=1;strokeColor=none;fillColor=none;align=center;verticalAlign=middle;whiteSpace=wrap;rounded=0;" parent="1" vertex="1">
          <mxGeometry x="2220.0000000000005" y="262" width="20" height="10" as="geometry" />
        </mxCell>
        <mxCell id="iH_aEqxw_GgNqT9NQLik-101" value="318" style="text;html=1;strokeColor=none;fillColor=none;align=center;verticalAlign=middle;whiteSpace=wrap;rounded=0;" parent="1" vertex="1">
          <mxGeometry x="2220.0000000000005" y="285" width="20" height="10" as="geometry" />
        </mxCell>
        <mxCell id="iH_aEqxw_GgNqT9NQLik-102" value="" style="rounded=0;whiteSpace=wrap;html=1;" parent="1" vertex="1">
          <mxGeometry x="2257.7599999999998" y="260" width="219.68" height="40" as="geometry" />
        </mxCell>
        <mxCell id="iH_aEqxw_GgNqT9NQLik-103" value="" style="endArrow=none;html=1;rounded=0;entryX=1;entryY=0;entryDx=0;entryDy=0;" parent="1" target="iH_aEqxw_GgNqT9NQLik-102" edge="1">
          <mxGeometry width="50" height="50" relative="1" as="geometry">
            <mxPoint x="2257.7599999999998" y="300" as="sourcePoint" />
            <mxPoint x="2307.7599999999998" y="250" as="targetPoint" />
          </mxGeometry>
        </mxCell>
        <mxCell id="iH_aEqxw_GgNqT9NQLik-104" value="1.8" style="text;html=1;strokeColor=none;fillColor=none;align=center;verticalAlign=middle;whiteSpace=wrap;rounded=0;" parent="1" vertex="1">
          <mxGeometry x="2261.24" y="262" width="20" height="10" as="geometry" />
        </mxCell>
        <mxCell id="iH_aEqxw_GgNqT9NQLik-105" value="1373" style="text;html=1;strokeColor=none;fillColor=none;align=center;verticalAlign=middle;whiteSpace=wrap;rounded=0;" parent="1" vertex="1">
          <mxGeometry x="2450" y="285" width="20" height="10" as="geometry" />
        </mxCell>
        <mxCell id="iH_aEqxw_GgNqT9NQLik-108" value="" style="rounded=0;whiteSpace=wrap;html=1;" parent="1" vertex="1">
          <mxGeometry x="2477.44" y="260" width="124.32" height="40" as="geometry" />
        </mxCell>
        <mxCell id="iH_aEqxw_GgNqT9NQLik-109" value="" style="endArrow=none;html=1;rounded=0;entryX=1;entryY=0;entryDx=0;entryDy=0;" parent="1" target="iH_aEqxw_GgNqT9NQLik-108" edge="1">
          <mxGeometry width="50" height="50" relative="1" as="geometry">
            <mxPoint x="2477.44" y="300" as="sourcePoint" />
            <mxPoint x="2527.44" y="250" as="targetPoint" />
          </mxGeometry>
        </mxCell>
        <mxCell id="iH_aEqxw_GgNqT9NQLik-110" value="2.8" style="text;html=1;strokeColor=none;fillColor=none;align=center;verticalAlign=middle;whiteSpace=wrap;rounded=0;" parent="1" vertex="1">
          <mxGeometry x="2480.92" y="262" width="20" height="10" as="geometry" />
        </mxCell>
        <mxCell id="iH_aEqxw_GgNqT9NQLik-111" value="777" style="text;html=1;strokeColor=none;fillColor=none;align=center;verticalAlign=middle;whiteSpace=wrap;rounded=0;" parent="1" vertex="1">
          <mxGeometry x="2574.88" y="285" width="20" height="10" as="geometry" />
        </mxCell>
        <mxCell id="iH_aEqxw_GgNqT9NQLik-112" value="" style="rounded=0;whiteSpace=wrap;html=1;" parent="1" vertex="1">
          <mxGeometry x="2600" y="260" width="128" height="40" as="geometry" />
        </mxCell>
        <mxCell id="iH_aEqxw_GgNqT9NQLik-113" value="" style="endArrow=none;html=1;rounded=0;entryX=1;entryY=1;entryDx=0;entryDy=0;" parent="1" target="iH_aEqxw_GgNqT9NQLik-112" edge="1">
          <mxGeometry width="50" height="50" relative="1" as="geometry">
            <mxPoint x="2600" y="260" as="sourcePoint" />
            <mxPoint x="2700" y="220" as="targetPoint" />
          </mxGeometry>
        </mxCell>
        <mxCell id="iH_aEqxw_GgNqT9NQLik-114" value="813" style="text;html=1;strokeColor=none;fillColor=none;align=center;verticalAlign=middle;whiteSpace=wrap;rounded=0;" parent="1" vertex="1">
          <mxGeometry x="2606.08" y="285" width="20" height="10" as="geometry" />
        </mxCell>
        <mxCell id="iH_aEqxw_GgNqT9NQLik-115" value="1.5" style="text;html=1;strokeColor=none;fillColor=none;align=center;verticalAlign=middle;whiteSpace=wrap;rounded=0;" parent="1" vertex="1">
          <mxGeometry x="2706.3199999999997" y="262" width="20" height="10" as="geometry" />
        </mxCell>
        <mxCell id="iH_aEqxw_GgNqT9NQLik-116" value="" style="rounded=0;whiteSpace=wrap;html=1;" parent="1" vertex="1">
          <mxGeometry x="2729" y="260" width="162" height="40" as="geometry" />
        </mxCell>
        <mxCell id="iH_aEqxw_GgNqT9NQLik-117" value="" style="endArrow=none;html=1;rounded=0;entryX=1;entryY=1;entryDx=0;entryDy=0;" parent="1" target="iH_aEqxw_GgNqT9NQLik-116" edge="1">
          <mxGeometry width="50" height="50" relative="1" as="geometry">
            <mxPoint x="2730.08" y="260" as="sourcePoint" />
            <mxPoint x="2830.08" y="220" as="targetPoint" />
          </mxGeometry>
        </mxCell>
        <mxCell id="iH_aEqxw_GgNqT9NQLik-118" value="1007" style="text;html=1;strokeColor=none;fillColor=none;align=center;verticalAlign=middle;whiteSpace=wrap;rounded=0;" parent="1" vertex="1">
          <mxGeometry x="2736.16" y="285" width="20" height="10" as="geometry" />
        </mxCell>
        <mxCell id="iH_aEqxw_GgNqT9NQLik-119" value="3.7" style="text;html=1;strokeColor=none;fillColor=none;align=center;verticalAlign=middle;whiteSpace=wrap;rounded=0;" parent="1" vertex="1">
          <mxGeometry x="2869.9999999999995" y="262" width="20" height="10" as="geometry" />
        </mxCell>
        <mxCell id="iH_aEqxw_GgNqT9NQLik-120" value="" style="rounded=0;whiteSpace=wrap;html=1;" parent="1" vertex="1">
          <mxGeometry x="2891.2" y="260" width="90.4" height="40" as="geometry" />
        </mxCell>
        <mxCell id="iH_aEqxw_GgNqT9NQLik-121" value="" style="endArrow=none;html=1;rounded=0;entryX=1;entryY=1;entryDx=0;entryDy=0;" parent="1" target="iH_aEqxw_GgNqT9NQLik-120" edge="1">
          <mxGeometry width="50" height="50" relative="1" as="geometry">
            <mxPoint x="2891.2" y="260" as="sourcePoint" />
            <mxPoint x="2991.2" y="220" as="targetPoint" />
          </mxGeometry>
        </mxCell>
        <mxCell id="iH_aEqxw_GgNqT9NQLik-122" value="565" style="text;html=1;strokeColor=none;fillColor=none;align=center;verticalAlign=middle;whiteSpace=wrap;rounded=0;" parent="1" vertex="1">
          <mxGeometry x="2897.2799999999997" y="285" width="20" height="10" as="geometry" />
        </mxCell>
        <mxCell id="iH_aEqxw_GgNqT9NQLik-123" value="1.3" style="text;html=1;strokeColor=none;fillColor=none;align=center;verticalAlign=middle;whiteSpace=wrap;rounded=0;" parent="1" vertex="1">
          <mxGeometry x="2959.9999999999995" y="262" width="20" height="10" as="geometry" />
        </mxCell>
        <mxCell id="iH_aEqxw_GgNqT9NQLik-124" value="" style="rounded=0;whiteSpace=wrap;html=1;" parent="1" vertex="1">
          <mxGeometry x="2981.6" y="260" width="144" height="40" as="geometry" />
        </mxCell>
        <mxCell id="iH_aEqxw_GgNqT9NQLik-125" value="" style="endArrow=none;html=1;rounded=0;entryX=1;entryY=0;entryDx=0;entryDy=0;" parent="1" target="iH_aEqxw_GgNqT9NQLik-124" edge="1">
          <mxGeometry width="50" height="50" relative="1" as="geometry">
            <mxPoint x="2981.6" y="300" as="sourcePoint" />
            <mxPoint x="3031.6" y="250" as="targetPoint" />
          </mxGeometry>
        </mxCell>
        <mxCell id="iH_aEqxw_GgNqT9NQLik-126" value="3.1" style="text;html=1;strokeColor=none;fillColor=none;align=center;verticalAlign=middle;whiteSpace=wrap;rounded=0;" parent="1" vertex="1">
          <mxGeometry x="2985.08" y="262" width="20" height="10" as="geometry" />
        </mxCell>
        <mxCell id="iH_aEqxw_GgNqT9NQLik-127" value="900" style="text;html=1;strokeColor=none;fillColor=none;align=center;verticalAlign=middle;whiteSpace=wrap;rounded=0;" parent="1" vertex="1">
          <mxGeometry x="3100" y="285" width="20" height="10" as="geometry" />
        </mxCell>
        <mxCell id="iH_aEqxw_GgNqT9NQLik-128" value="" style="rounded=0;whiteSpace=wrap;html=1;" parent="1" vertex="1">
          <mxGeometry x="3125.6" y="260" width="201.12" height="40" as="geometry" />
        </mxCell>
        <mxCell id="iH_aEqxw_GgNqT9NQLik-129" value="" style="endArrow=none;html=1;rounded=0;entryX=1;entryY=0;entryDx=0;entryDy=0;" parent="1" target="iH_aEqxw_GgNqT9NQLik-128" edge="1">
          <mxGeometry width="50" height="50" relative="1" as="geometry">
            <mxPoint x="3125.6" y="300" as="sourcePoint" />
            <mxPoint x="3175.6" y="250" as="targetPoint" />
          </mxGeometry>
        </mxCell>
        <mxCell id="iH_aEqxw_GgNqT9NQLik-130" value="1.7" style="text;html=1;strokeColor=none;fillColor=none;align=center;verticalAlign=middle;whiteSpace=wrap;rounded=0;" parent="1" vertex="1">
          <mxGeometry x="3129.08" y="262" width="20" height="10" as="geometry" />
        </mxCell>
        <mxCell id="iH_aEqxw_GgNqT9NQLik-131" value="1257" style="text;html=1;strokeColor=none;fillColor=none;align=center;verticalAlign=middle;whiteSpace=wrap;rounded=0;" parent="1" vertex="1">
          <mxGeometry x="3300" y="285" width="20" height="10" as="geometry" />
        </mxCell>
        <mxCell id="iH_aEqxw_GgNqT9NQLik-132" value="" style="rounded=0;whiteSpace=wrap;html=1;" parent="1" vertex="1">
          <mxGeometry x="3326.72" y="260" width="242.72" height="40" as="geometry" />
        </mxCell>
        <mxCell id="iH_aEqxw_GgNqT9NQLik-133" value="" style="endArrow=none;html=1;rounded=0;entryX=1;entryY=1;entryDx=0;entryDy=0;" parent="1" target="iH_aEqxw_GgNqT9NQLik-132" edge="1">
          <mxGeometry width="50" height="50" relative="1" as="geometry">
            <mxPoint x="3326.72" y="260" as="sourcePoint" />
            <mxPoint x="3426.72" y="220" as="targetPoint" />
          </mxGeometry>
        </mxCell>
        <mxCell id="iH_aEqxw_GgNqT9NQLik-134" value="1517" style="text;html=1;strokeColor=none;fillColor=none;align=center;verticalAlign=middle;whiteSpace=wrap;rounded=0;" parent="1" vertex="1">
          <mxGeometry x="3332.7999999999997" y="285" width="20" height="10" as="geometry" />
        </mxCell>
        <mxCell id="iH_aEqxw_GgNqT9NQLik-135" value="2.4" style="text;html=1;strokeColor=none;fillColor=none;align=center;verticalAlign=middle;whiteSpace=wrap;rounded=0;" parent="1" vertex="1">
          <mxGeometry x="3549.9999999999995" y="262" width="20" height="10" as="geometry" />
        </mxCell>
        <mxCell id="iH_aEqxw_GgNqT9NQLik-136" value="" style="rounded=0;whiteSpace=wrap;html=1;" parent="1" vertex="1">
          <mxGeometry x="3570" y="260" width="66.88" height="40" as="geometry" />
        </mxCell>
        <mxCell id="iH_aEqxw_GgNqT9NQLik-137" value="" style="endArrow=none;html=1;rounded=0;entryX=1;entryY=1;entryDx=0;entryDy=0;" parent="1" target="iH_aEqxw_GgNqT9NQLik-136" edge="1">
          <mxGeometry width="50" height="50" relative="1" as="geometry">
            <mxPoint x="3570" y="260" as="sourcePoint" />
            <mxPoint x="3670" y="220" as="targetPoint" />
          </mxGeometry>
        </mxCell>
        <mxCell id="iH_aEqxw_GgNqT9NQLik-138" value="418" style="text;html=1;strokeColor=none;fillColor=none;align=center;verticalAlign=middle;whiteSpace=wrap;rounded=0;" parent="1" vertex="1">
          <mxGeometry x="3576.08" y="285" width="20" height="10" as="geometry" />
        </mxCell>
        <mxCell id="iH_aEqxw_GgNqT9NQLik-139" value="5.9" style="text;html=1;strokeColor=none;fillColor=none;align=center;verticalAlign=middle;whiteSpace=wrap;rounded=0;" parent="1" vertex="1">
          <mxGeometry x="3609.9999999999995" y="262" width="20" height="10" as="geometry" />
        </mxCell>
        <mxCell id="iH_aEqxw_GgNqT9NQLik-140" value="" style="rounded=0;whiteSpace=wrap;html=1;" parent="1" vertex="1">
          <mxGeometry x="3636.8799999999997" y="260" width="206.4" height="40" as="geometry" />
        </mxCell>
        <mxCell id="iH_aEqxw_GgNqT9NQLik-141" value="" style="endArrow=none;html=1;rounded=0;entryX=1;entryY=1;entryDx=0;entryDy=0;" parent="1" target="iH_aEqxw_GgNqT9NQLik-140" edge="1">
          <mxGeometry width="50" height="50" relative="1" as="geometry">
            <mxPoint x="3636.8799999999997" y="260" as="sourcePoint" />
            <mxPoint x="3736.8799999999997" y="220" as="targetPoint" />
          </mxGeometry>
        </mxCell>
        <mxCell id="iH_aEqxw_GgNqT9NQLik-142" value="1290" style="text;html=1;strokeColor=none;fillColor=none;align=center;verticalAlign=middle;whiteSpace=wrap;rounded=0;" parent="1" vertex="1">
          <mxGeometry x="3642.9599999999996" y="285" width="20" height="10" as="geometry" />
        </mxCell>
        <mxCell id="iH_aEqxw_GgNqT9NQLik-143" value="1.8" style="text;html=1;strokeColor=none;fillColor=none;align=center;verticalAlign=middle;whiteSpace=wrap;rounded=0;" parent="1" vertex="1">
          <mxGeometry x="3819.9999999999995" y="262" width="20" height="10" as="geometry" />
        </mxCell>
        <mxCell id="iH_aEqxw_GgNqT9NQLik-144" value="" style="rounded=0;whiteSpace=wrap;html=1;" parent="1" vertex="1">
          <mxGeometry x="3843.2799999999997" y="260" width="61.28" height="40" as="geometry" />
        </mxCell>
        <mxCell id="iH_aEqxw_GgNqT9NQLik-145" value="" style="endArrow=none;html=1;rounded=0;entryX=1;entryY=0;entryDx=0;entryDy=0;" parent="1" target="iH_aEqxw_GgNqT9NQLik-144" edge="1">
          <mxGeometry width="50" height="50" relative="1" as="geometry">
            <mxPoint x="3843.2799999999997" y="300" as="sourcePoint" />
            <mxPoint x="3893.2799999999997" y="250" as="targetPoint" />
          </mxGeometry>
        </mxCell>
        <mxCell id="iH_aEqxw_GgNqT9NQLik-146" value="1.7" style="text;html=1;strokeColor=none;fillColor=none;align=center;verticalAlign=middle;whiteSpace=wrap;rounded=0;" parent="1" vertex="1">
          <mxGeometry x="3846.7599999999998" y="262" width="20" height="10" as="geometry" />
        </mxCell>
        <mxCell id="iH_aEqxw_GgNqT9NQLik-147" value="383" style="text;html=1;strokeColor=none;fillColor=none;align=center;verticalAlign=middle;whiteSpace=wrap;rounded=0;" parent="1" vertex="1">
          <mxGeometry x="5893.8" y="275" width="20" height="10" as="geometry" />
        </mxCell>
        <mxCell id="iH_aEqxw_GgNqT9NQLik-149" value="" style="rounded=0;whiteSpace=wrap;html=1;" parent="1" vertex="1">
          <mxGeometry x="3904.56" y="260" width="89.28" height="40" as="geometry" />
        </mxCell>
        <mxCell id="iH_aEqxw_GgNqT9NQLik-150" value="" style="endArrow=none;html=1;rounded=0;entryX=1;entryY=0.5;entryDx=0;entryDy=0;exitX=0;exitY=0.5;exitDx=0;exitDy=0;" parent="1" source="iH_aEqxw_GgNqT9NQLik-149" target="iH_aEqxw_GgNqT9NQLik-149" edge="1">
          <mxGeometry width="50" height="50" relative="1" as="geometry">
            <mxPoint x="3904.56" y="300" as="sourcePoint" />
            <mxPoint x="3954.56" y="250" as="targetPoint" />
          </mxGeometry>
        </mxCell>
        <mxCell id="iH_aEqxw_GgNqT9NQLik-151" value="0.0" style="text;html=1;strokeColor=none;fillColor=none;align=center;verticalAlign=middle;whiteSpace=wrap;rounded=0;" parent="1" vertex="1">
          <mxGeometry x="3939.2" y="265" width="20" height="10" as="geometry" />
        </mxCell>
        <mxCell id="iH_aEqxw_GgNqT9NQLik-152" value="558" style="text;html=1;strokeColor=none;fillColor=none;align=center;verticalAlign=middle;whiteSpace=wrap;rounded=0;" parent="1" vertex="1">
          <mxGeometry x="3939.2" y="285" width="20" height="10" as="geometry" />
        </mxCell>
        <mxCell id="iH_aEqxw_GgNqT9NQLik-153" value="" style="rounded=0;whiteSpace=wrap;html=1;" parent="1" vertex="1">
          <mxGeometry x="3993.8399999999997" y="260" width="189.6" height="40" as="geometry" />
        </mxCell>
        <mxCell id="iH_aEqxw_GgNqT9NQLik-154" value="" style="endArrow=none;html=1;rounded=0;entryX=1;entryY=1;entryDx=0;entryDy=0;" parent="1" target="iH_aEqxw_GgNqT9NQLik-153" edge="1">
          <mxGeometry width="50" height="50" relative="1" as="geometry">
            <mxPoint x="3993.8399999999997" y="260" as="sourcePoint" />
            <mxPoint x="4093.8399999999997" y="220" as="targetPoint" />
          </mxGeometry>
        </mxCell>
        <mxCell id="iH_aEqxw_GgNqT9NQLik-155" value="1185" style="text;html=1;strokeColor=none;fillColor=none;align=center;verticalAlign=middle;whiteSpace=wrap;rounded=0;" parent="1" vertex="1">
          <mxGeometry x="3999.9199999999996" y="285" width="20" height="10" as="geometry" />
        </mxCell>
        <mxCell id="iH_aEqxw_GgNqT9NQLik-156" value="0.5" style="text;html=1;strokeColor=none;fillColor=none;align=center;verticalAlign=middle;whiteSpace=wrap;rounded=0;" parent="1" vertex="1">
          <mxGeometry x="4159.999999999999" y="262" width="20" height="10" as="geometry" />
        </mxCell>
        <mxCell id="iH_aEqxw_GgNqT9NQLik-157" value="" style="rounded=0;whiteSpace=wrap;html=1;" parent="1" vertex="1">
          <mxGeometry x="4183.44" y="260" width="152.32" height="40" as="geometry" />
        </mxCell>
        <mxCell id="iH_aEqxw_GgNqT9NQLik-158" value="" style="endArrow=none;html=1;rounded=0;entryX=1;entryY=1;entryDx=0;entryDy=0;" parent="1" target="iH_aEqxw_GgNqT9NQLik-157" edge="1">
          <mxGeometry width="50" height="50" relative="1" as="geometry">
            <mxPoint x="4183.44" y="260" as="sourcePoint" />
            <mxPoint x="4283.4400000000005" y="220" as="targetPoint" />
          </mxGeometry>
        </mxCell>
        <mxCell id="iH_aEqxw_GgNqT9NQLik-159" value="952" style="text;html=1;strokeColor=none;fillColor=none;align=center;verticalAlign=middle;whiteSpace=wrap;rounded=0;" parent="1" vertex="1">
          <mxGeometry x="4189.5199999999995" y="285" width="20" height="10" as="geometry" />
        </mxCell>
        <mxCell id="iH_aEqxw_GgNqT9NQLik-160" value="3.3" style="text;html=1;strokeColor=none;fillColor=none;align=center;verticalAlign=middle;whiteSpace=wrap;rounded=0;" parent="1" vertex="1">
          <mxGeometry x="4309.999999999999" y="262" width="20" height="10" as="geometry" />
        </mxCell>
        <mxCell id="iH_aEqxw_GgNqT9NQLik-161" value="" style="rounded=0;whiteSpace=wrap;html=1;" parent="1" vertex="1">
          <mxGeometry x="4335.76" y="260" width="161.12" height="40" as="geometry" />
        </mxCell>
        <mxCell id="iH_aEqxw_GgNqT9NQLik-162" value="" style="endArrow=none;html=1;rounded=0;entryX=1;entryY=1;entryDx=0;entryDy=0;" parent="1" target="iH_aEqxw_GgNqT9NQLik-161" edge="1">
          <mxGeometry width="50" height="50" relative="1" as="geometry">
            <mxPoint x="4335.76" y="260" as="sourcePoint" />
            <mxPoint x="4435.76" y="220" as="targetPoint" />
          </mxGeometry>
        </mxCell>
        <mxCell id="iH_aEqxw_GgNqT9NQLik-163" value="1007" style="text;html=1;strokeColor=none;fillColor=none;align=center;verticalAlign=middle;whiteSpace=wrap;rounded=0;" parent="1" vertex="1">
          <mxGeometry x="4341.84" y="285" width="20" height="10" as="geometry" />
        </mxCell>
        <mxCell id="iH_aEqxw_GgNqT9NQLik-164" value="3.7" style="text;html=1;strokeColor=none;fillColor=none;align=center;verticalAlign=middle;whiteSpace=wrap;rounded=0;" parent="1" vertex="1">
          <mxGeometry x="4475.679999999999" y="262" width="20" height="10" as="geometry" />
        </mxCell>
        <mxCell id="iH_aEqxw_GgNqT9NQLik-165" value="" style="rounded=0;whiteSpace=wrap;html=1;" parent="1" vertex="1">
          <mxGeometry x="4496.879999999999" y="260" width="219.68" height="40" as="geometry" />
        </mxCell>
        <mxCell id="iH_aEqxw_GgNqT9NQLik-166" value="" style="endArrow=none;html=1;rounded=0;entryX=1;entryY=0;entryDx=0;entryDy=0;" parent="1" target="iH_aEqxw_GgNqT9NQLik-165" edge="1">
          <mxGeometry width="50" height="50" relative="1" as="geometry">
            <mxPoint x="4496.879999999999" y="300" as="sourcePoint" />
            <mxPoint x="4546.879999999999" y="250" as="targetPoint" />
          </mxGeometry>
        </mxCell>
        <mxCell id="iH_aEqxw_GgNqT9NQLik-167" value="1.8" style="text;html=1;strokeColor=none;fillColor=none;align=center;verticalAlign=middle;whiteSpace=wrap;rounded=0;" parent="1" vertex="1">
          <mxGeometry x="4500.36" y="262" width="20" height="10" as="geometry" />
        </mxCell>
        <mxCell id="iH_aEqxw_GgNqT9NQLik-168" value="1373" style="text;html=1;strokeColor=none;fillColor=none;align=center;verticalAlign=middle;whiteSpace=wrap;rounded=0;" parent="1" vertex="1">
          <mxGeometry x="4689.12" y="285" width="20" height="10" as="geometry" />
        </mxCell>
        <mxCell id="iH_aEqxw_GgNqT9NQLik-169" value="" style="rounded=0;whiteSpace=wrap;html=1;" parent="1" vertex="1">
          <mxGeometry x="4716.5599999999995" y="260" width="109.92" height="40" as="geometry" />
        </mxCell>
        <mxCell id="iH_aEqxw_GgNqT9NQLik-170" value="" style="endArrow=none;html=1;rounded=0;entryX=1;entryY=0.5;entryDx=0;entryDy=0;exitX=0;exitY=0.5;exitDx=0;exitDy=0;" parent="1" source="iH_aEqxw_GgNqT9NQLik-169" target="iH_aEqxw_GgNqT9NQLik-169" edge="1">
          <mxGeometry width="50" height="50" relative="1" as="geometry">
            <mxPoint x="4716.5599999999995" y="300" as="sourcePoint" />
            <mxPoint x="4766.5599999999995" y="250" as="targetPoint" />
          </mxGeometry>
        </mxCell>
        <mxCell id="iH_aEqxw_GgNqT9NQLik-171" value="0.0" style="text;html=1;strokeColor=none;fillColor=none;align=center;verticalAlign=middle;whiteSpace=wrap;rounded=0;" parent="1" vertex="1">
          <mxGeometry x="4761.5199999999995" y="265" width="20" height="10" as="geometry" />
        </mxCell>
        <mxCell id="iH_aEqxw_GgNqT9NQLik-172" value="687" style="text;html=1;strokeColor=none;fillColor=none;align=center;verticalAlign=middle;whiteSpace=wrap;rounded=0;" parent="1" vertex="1">
          <mxGeometry x="4761.5199999999995" y="285" width="20" height="10" as="geometry" />
        </mxCell>
        <mxCell id="iH_aEqxw_GgNqT9NQLik-173" value="" style="rounded=0;whiteSpace=wrap;html=1;" parent="1" vertex="1">
          <mxGeometry x="4826.4800000000005" y="260" width="131.84" height="40" as="geometry" />
        </mxCell>
        <mxCell id="iH_aEqxw_GgNqT9NQLik-174" value="" style="endArrow=none;html=1;rounded=0;entryX=1;entryY=1;entryDx=0;entryDy=0;" parent="1" target="iH_aEqxw_GgNqT9NQLik-173" edge="1">
          <mxGeometry width="50" height="50" relative="1" as="geometry">
            <mxPoint x="4826.4800000000005" y="260" as="sourcePoint" />
            <mxPoint x="4926.4800000000005" y="220" as="targetPoint" />
          </mxGeometry>
        </mxCell>
        <mxCell id="iH_aEqxw_GgNqT9NQLik-175" value="824" style="text;html=1;strokeColor=none;fillColor=none;align=center;verticalAlign=middle;whiteSpace=wrap;rounded=0;" parent="1" vertex="1">
          <mxGeometry x="4832.56" y="285" width="20" height="10" as="geometry" />
        </mxCell>
        <mxCell id="iH_aEqxw_GgNqT9NQLik-176" value="0.7" style="text;html=1;strokeColor=none;fillColor=none;align=center;verticalAlign=middle;whiteSpace=wrap;rounded=0;" parent="1" vertex="1">
          <mxGeometry x="4938.32" y="262" width="20" height="10" as="geometry" />
        </mxCell>
        <mxCell id="iH_aEqxw_GgNqT9NQLik-177" value="" style="rounded=0;whiteSpace=wrap;html=1;" parent="1" vertex="1">
          <mxGeometry x="4958.32" y="260" width="201.12" height="40" as="geometry" />
        </mxCell>
        <mxCell id="iH_aEqxw_GgNqT9NQLik-178" value="" style="endArrow=none;html=1;rounded=0;entryX=1;entryY=0;entryDx=0;entryDy=0;" parent="1" target="iH_aEqxw_GgNqT9NQLik-177" edge="1">
          <mxGeometry width="50" height="50" relative="1" as="geometry">
            <mxPoint x="4958.32" y="300" as="sourcePoint" />
            <mxPoint x="5008.32" y="250" as="targetPoint" />
          </mxGeometry>
        </mxCell>
        <mxCell id="iH_aEqxw_GgNqT9NQLik-179" value="2.9" style="text;html=1;strokeColor=none;fillColor=none;align=center;verticalAlign=middle;whiteSpace=wrap;rounded=0;" parent="1" vertex="1">
          <mxGeometry x="4961.8" y="262" width="20" height="10" as="geometry" />
        </mxCell>
        <mxCell id="iH_aEqxw_GgNqT9NQLik-180" value="1257" style="text;html=1;strokeColor=none;fillColor=none;align=center;verticalAlign=middle;whiteSpace=wrap;rounded=0;" parent="1" vertex="1">
          <mxGeometry x="5132.72" y="285" width="20" height="10" as="geometry" />
        </mxCell>
        <mxCell id="iH_aEqxw_GgNqT9NQLik-181" value="" style="rounded=0;whiteSpace=wrap;html=1;" parent="1" vertex="1">
          <mxGeometry x="5159.4400000000005" y="260" width="130.08" height="40" as="geometry" />
        </mxCell>
        <mxCell id="iH_aEqxw_GgNqT9NQLik-182" value="" style="endArrow=none;html=1;rounded=0;entryX=1;entryY=1;entryDx=0;entryDy=0;" parent="1" target="iH_aEqxw_GgNqT9NQLik-181" edge="1">
          <mxGeometry width="50" height="50" relative="1" as="geometry">
            <mxPoint x="5159.4400000000005" y="260" as="sourcePoint" />
            <mxPoint x="5259.4400000000005" y="220" as="targetPoint" />
          </mxGeometry>
        </mxCell>
        <mxCell id="iH_aEqxw_GgNqT9NQLik-183" value="813" style="text;html=1;strokeColor=none;fillColor=none;align=center;verticalAlign=middle;whiteSpace=wrap;rounded=0;" parent="1" vertex="1">
          <mxGeometry x="5165.52" y="285" width="20" height="10" as="geometry" />
        </mxCell>
        <mxCell id="iH_aEqxw_GgNqT9NQLik-184" value="1.5" style="text;html=1;strokeColor=none;fillColor=none;align=center;verticalAlign=middle;whiteSpace=wrap;rounded=0;" parent="1" vertex="1">
          <mxGeometry x="5265.76" y="262" width="20" height="10" as="geometry" />
        </mxCell>
        <mxCell id="iH_aEqxw_GgNqT9NQLik-185" value="" style="rounded=0;whiteSpace=wrap;html=1;" parent="1" vertex="1">
          <mxGeometry x="5320" y="260" width="12.836" height="40" as="geometry" />
        </mxCell>
        <mxCell id="iH_aEqxw_GgNqT9NQLik-186" value="" style="endArrow=none;html=1;rounded=0;entryX=1;entryY=0.5;entryDx=0;entryDy=0;exitX=0;exitY=0.5;exitDx=0;exitDy=0;" parent="1" source="iH_aEqxw_GgNqT9NQLik-185" target="iH_aEqxw_GgNqT9NQLik-185" edge="1">
          <mxGeometry width="50" height="50" relative="1" as="geometry">
            <mxPoint x="5320" y="300" as="sourcePoint" />
            <mxPoint x="5370" y="250" as="targetPoint" />
          </mxGeometry>
        </mxCell>
        <mxCell id="iH_aEqxw_GgNqT9NQLik-187" value="0.0" style="text;html=1;strokeColor=none;fillColor=none;align=center;verticalAlign=middle;whiteSpace=wrap;rounded=0;" parent="1" vertex="1">
          <mxGeometry x="5316.419999999999" y="246" width="20" height="10" as="geometry" />
        </mxCell>
        <mxCell id="iH_aEqxw_GgNqT9NQLik-188" value="81" style="text;html=1;strokeColor=none;fillColor=none;align=center;verticalAlign=middle;whiteSpace=wrap;rounded=0;" parent="1" vertex="1">
          <mxGeometry x="5319.999999999999" y="302" width="20" height="10" as="geometry" />
        </mxCell>
        <mxCell id="iH_aEqxw_GgNqT9NQLik-189" value="" style="rounded=0;whiteSpace=wrap;html=1;" parent="1" vertex="1">
          <mxGeometry x="5289.52" y="260" width="30.48" height="40" as="geometry" />
        </mxCell>
        <mxCell id="iH_aEqxw_GgNqT9NQLik-190" value="" style="endArrow=none;html=1;rounded=0;entryX=1;entryY=1;entryDx=0;entryDy=0;" parent="1" target="iH_aEqxw_GgNqT9NQLik-189" edge="1">
          <mxGeometry width="50" height="50" relative="1" as="geometry">
            <mxPoint x="5289.52" y="260" as="sourcePoint" />
            <mxPoint x="5389.52" y="220" as="targetPoint" />
          </mxGeometry>
        </mxCell>
        <mxCell id="iH_aEqxw_GgNqT9NQLik-191" value="191" style="text;html=1;strokeColor=none;fillColor=none;align=center;verticalAlign=middle;whiteSpace=wrap;rounded=0;" parent="1" vertex="1">
          <mxGeometry x="5289.52" y="302" width="20" height="10" as="geometry" />
        </mxCell>
        <mxCell id="iH_aEqxw_GgNqT9NQLik-192" value="0.7" style="text;html=1;strokeColor=none;fillColor=none;align=center;verticalAlign=middle;whiteSpace=wrap;rounded=0;" parent="1" vertex="1">
          <mxGeometry x="5300" y="262" width="20" height="10" as="geometry" />
        </mxCell>
        <mxCell id="iH_aEqxw_GgNqT9NQLik-193" value="" style="rounded=0;whiteSpace=wrap;html=1;" parent="1" vertex="1">
          <mxGeometry x="5332.84" y="260" width="201.12" height="40" as="geometry" />
        </mxCell>
        <mxCell id="iH_aEqxw_GgNqT9NQLik-194" value="" style="endArrow=none;html=1;rounded=0;entryX=1;entryY=0;entryDx=0;entryDy=0;" parent="1" target="iH_aEqxw_GgNqT9NQLik-193" edge="1">
          <mxGeometry width="50" height="50" relative="1" as="geometry">
            <mxPoint x="5332.84" y="300" as="sourcePoint" />
            <mxPoint x="5382.84" y="250" as="targetPoint" />
          </mxGeometry>
        </mxCell>
        <mxCell id="iH_aEqxw_GgNqT9NQLik-195" value="1.7" style="text;html=1;strokeColor=none;fillColor=none;align=center;verticalAlign=middle;whiteSpace=wrap;rounded=0;" parent="1" vertex="1">
          <mxGeometry x="5336.32" y="262" width="20" height="10" as="geometry" />
        </mxCell>
        <mxCell id="iH_aEqxw_GgNqT9NQLik-196" value="1257" style="text;html=1;strokeColor=none;fillColor=none;align=center;verticalAlign=middle;whiteSpace=wrap;rounded=0;" parent="1" vertex="1">
          <mxGeometry x="5507.24" y="285" width="20" height="10" as="geometry" />
        </mxCell>
        <mxCell id="iH_aEqxw_GgNqT9NQLik-197" value="" style="rounded=0;whiteSpace=wrap;html=1;" parent="1" vertex="1">
          <mxGeometry x="5533.96" y="260" width="131.84" height="40" as="geometry" />
        </mxCell>
        <mxCell id="iH_aEqxw_GgNqT9NQLik-198" value="" style="endArrow=none;html=1;rounded=0;entryX=1;entryY=1;entryDx=0;entryDy=0;" parent="1" target="iH_aEqxw_GgNqT9NQLik-197" edge="1">
          <mxGeometry width="50" height="50" relative="1" as="geometry">
            <mxPoint x="5533.96" y="260" as="sourcePoint" />
            <mxPoint x="5633.96" y="220" as="targetPoint" />
          </mxGeometry>
        </mxCell>
        <mxCell id="iH_aEqxw_GgNqT9NQLik-199" value="824" style="text;html=1;strokeColor=none;fillColor=none;align=center;verticalAlign=middle;whiteSpace=wrap;rounded=0;" parent="1" vertex="1">
          <mxGeometry x="5540.04" y="285" width="20" height="10" as="geometry" />
        </mxCell>
        <mxCell id="iH_aEqxw_GgNqT9NQLik-200" value="1.3" style="text;html=1;strokeColor=none;fillColor=none;align=center;verticalAlign=middle;whiteSpace=wrap;rounded=0;" parent="1" vertex="1">
          <mxGeometry x="5645.8" y="262" width="20" height="10" as="geometry" />
        </mxCell>
        <mxCell id="iH_aEqxw_GgNqT9NQLik-201" value="" style="rounded=0;whiteSpace=wrap;html=1;" parent="1" vertex="1">
          <mxGeometry x="5665.8" y="260" width="126.4" height="40" as="geometry" />
        </mxCell>
        <mxCell id="iH_aEqxw_GgNqT9NQLik-202" value="" style="endArrow=none;html=1;rounded=0;entryX=1;entryY=1;entryDx=0;entryDy=0;" parent="1" target="iH_aEqxw_GgNqT9NQLik-201" edge="1">
          <mxGeometry width="50" height="50" relative="1" as="geometry">
            <mxPoint x="5665.8" y="260" as="sourcePoint" />
            <mxPoint x="5765.8" y="220" as="targetPoint" />
          </mxGeometry>
        </mxCell>
        <mxCell id="iH_aEqxw_GgNqT9NQLik-203" value="790" style="text;html=1;strokeColor=none;fillColor=none;align=center;verticalAlign=middle;whiteSpace=wrap;rounded=0;" parent="1" vertex="1">
          <mxGeometry x="5671.88" y="285" width="20" height="10" as="geometry" />
        </mxCell>
        <mxCell id="iH_aEqxw_GgNqT9NQLik-204" value="4.1" style="text;html=1;strokeColor=none;fillColor=none;align=center;verticalAlign=middle;whiteSpace=wrap;rounded=0;" parent="1" vertex="1">
          <mxGeometry x="5770" y="262" width="20" height="10" as="geometry" />
        </mxCell>
        <mxCell id="iH_aEqxw_GgNqT9NQLik-205" value="" style="rounded=0;whiteSpace=wrap;html=1;" parent="1" vertex="1">
          <mxGeometry x="5792.2" y="260" width="74.88" height="40" as="geometry" />
        </mxCell>
        <mxCell id="iH_aEqxw_GgNqT9NQLik-206" value="" style="endArrow=none;html=1;rounded=0;entryX=1;entryY=0;entryDx=0;entryDy=0;" parent="1" target="iH_aEqxw_GgNqT9NQLik-205" edge="1">
          <mxGeometry width="50" height="50" relative="1" as="geometry">
            <mxPoint x="5792.2" y="300" as="sourcePoint" />
            <mxPoint x="5842.2" y="250" as="targetPoint" />
          </mxGeometry>
        </mxCell>
        <mxCell id="iH_aEqxw_GgNqT9NQLik-207" value="3.5" style="text;html=1;strokeColor=none;fillColor=none;align=center;verticalAlign=middle;whiteSpace=wrap;rounded=0;" parent="1" vertex="1">
          <mxGeometry x="5795.68" y="262" width="20" height="10" as="geometry" />
        </mxCell>
        <mxCell id="iH_aEqxw_GgNqT9NQLik-208" value="468" style="text;html=1;strokeColor=none;fillColor=none;align=center;verticalAlign=middle;whiteSpace=wrap;rounded=0;" parent="1" vertex="1">
          <mxGeometry x="5842.92" y="285" width="20" height="10" as="geometry" />
        </mxCell>
        <mxCell id="iH_aEqxw_GgNqT9NQLik-209" value="" style="rounded=0;whiteSpace=wrap;html=1;" parent="1" vertex="1">
          <mxGeometry x="5867.08" y="260" width="61.28" height="40" as="geometry" />
        </mxCell>
        <mxCell id="iH_aEqxw_GgNqT9NQLik-210" value="" style="endArrow=none;html=1;rounded=0;entryX=1;entryY=0;entryDx=0;entryDy=0;" parent="1" target="iH_aEqxw_GgNqT9NQLik-209" edge="1">
          <mxGeometry width="50" height="50" relative="1" as="geometry">
            <mxPoint x="5867.08" y="300" as="sourcePoint" />
            <mxPoint x="5917.08" y="250" as="targetPoint" />
          </mxGeometry>
        </mxCell>
        <mxCell id="iH_aEqxw_GgNqT9NQLik-211" value="1.7" style="text;html=1;strokeColor=none;fillColor=none;align=center;verticalAlign=middle;whiteSpace=wrap;rounded=0;" parent="1" vertex="1">
          <mxGeometry x="5870.5599999999995" y="262" width="20" height="10" as="geometry" />
        </mxCell>
        <mxCell id="iH_aEqxw_GgNqT9NQLik-212" value="383" style="text;html=1;strokeColor=none;fillColor=none;align=center;verticalAlign=middle;whiteSpace=wrap;rounded=0;" parent="1" vertex="1">
          <mxGeometry x="5903.8" y="285" width="20" height="10" as="geometry" />
        </mxCell>
        <mxCell id="iH_aEqxw_GgNqT9NQLik-213" value="383" style="text;html=1;strokeColor=none;fillColor=none;align=center;verticalAlign=middle;whiteSpace=wrap;rounded=0;" parent="1" vertex="1">
          <mxGeometry x="3880" y="285" width="20" height="10" as="geometry" />
        </mxCell>
        <mxCell id="iH_aEqxw_GgNqT9NQLik-214" value="" style="rounded=0;whiteSpace=wrap;html=1;" parent="1" vertex="1">
          <mxGeometry x="5928.360000000001" y="260" width="201.12" height="40" as="geometry" />
        </mxCell>
        <mxCell id="iH_aEqxw_GgNqT9NQLik-215" value="" style="endArrow=none;html=1;rounded=0;entryX=1;entryY=0;entryDx=0;entryDy=0;" parent="1" target="iH_aEqxw_GgNqT9NQLik-214" edge="1">
          <mxGeometry width="50" height="50" relative="1" as="geometry">
            <mxPoint x="5928.360000000001" y="300" as="sourcePoint" />
            <mxPoint x="5978.360000000001" y="250" as="targetPoint" />
          </mxGeometry>
        </mxCell>
        <mxCell id="iH_aEqxw_GgNqT9NQLik-216" value="2,5" style="text;html=1;strokeColor=none;fillColor=none;align=center;verticalAlign=middle;whiteSpace=wrap;rounded=0;" parent="1" vertex="1">
          <mxGeometry x="5931.84" y="262" width="20" height="10" as="geometry" />
        </mxCell>
        <mxCell id="iH_aEqxw_GgNqT9NQLik-217" value="1257" style="text;html=1;strokeColor=none;fillColor=none;align=center;verticalAlign=middle;whiteSpace=wrap;rounded=0;" parent="1" vertex="1">
          <mxGeometry x="6102.76" y="285" width="20" height="10" as="geometry" />
        </mxCell>
        <mxCell id="iH_aEqxw_GgNqT9NQLik-218" value="" style="rounded=0;whiteSpace=wrap;html=1;" parent="1" vertex="1">
          <mxGeometry x="6129.48" y="260" width="189.6" height="40" as="geometry" />
        </mxCell>
        <mxCell id="iH_aEqxw_GgNqT9NQLik-219" value="" style="endArrow=none;html=1;rounded=0;entryX=1;entryY=1;entryDx=0;entryDy=0;" parent="1" target="iH_aEqxw_GgNqT9NQLik-218" edge="1">
          <mxGeometry width="50" height="50" relative="1" as="geometry">
            <mxPoint x="6130.4" y="260" as="sourcePoint" />
            <mxPoint x="6230.4" y="220" as="targetPoint" />
          </mxGeometry>
        </mxCell>
        <mxCell id="iH_aEqxw_GgNqT9NQLik-220" value="1185" style="text;html=1;strokeColor=none;fillColor=none;align=center;verticalAlign=middle;whiteSpace=wrap;rounded=0;" parent="1" vertex="1">
          <mxGeometry x="6136.48" y="285" width="20" height="10" as="geometry" />
        </mxCell>
        <mxCell id="iH_aEqxw_GgNqT9NQLik-221" value="0.5" style="text;html=1;strokeColor=none;fillColor=none;align=center;verticalAlign=middle;whiteSpace=wrap;rounded=0;" parent="1" vertex="1">
          <mxGeometry x="6296.5599999999995" y="262" width="20" height="10" as="geometry" />
        </mxCell>
        <mxCell id="iH_aEqxw_GgNqT9NQLik-222" value="" style="rounded=0;whiteSpace=wrap;html=1;" parent="1" vertex="1">
          <mxGeometry x="6319.08" y="260" width="144" height="40" as="geometry" />
        </mxCell>
        <mxCell id="iH_aEqxw_GgNqT9NQLik-223" value="" style="endArrow=none;html=1;rounded=0;entryX=1;entryY=0;entryDx=0;entryDy=0;" parent="1" target="iH_aEqxw_GgNqT9NQLik-222" edge="1">
          <mxGeometry width="50" height="50" relative="1" as="geometry">
            <mxPoint x="6319.08" y="300" as="sourcePoint" />
            <mxPoint x="6369.08" y="250" as="targetPoint" />
          </mxGeometry>
        </mxCell>
        <mxCell id="iH_aEqxw_GgNqT9NQLik-224" value="2.3" style="text;html=1;strokeColor=none;fillColor=none;align=center;verticalAlign=middle;whiteSpace=wrap;rounded=0;" parent="1" vertex="1">
          <mxGeometry x="6322.5599999999995" y="262" width="20" height="10" as="geometry" />
        </mxCell>
        <mxCell id="iH_aEqxw_GgNqT9NQLik-225" value="900" style="text;html=1;strokeColor=none;fillColor=none;align=center;verticalAlign=middle;whiteSpace=wrap;rounded=0;" parent="1" vertex="1">
          <mxGeometry x="6437.48" y="285" width="20" height="10" as="geometry" />
        </mxCell>
        <mxCell id="iH_aEqxw_GgNqT9NQLik-226" value="" style="rounded=0;whiteSpace=wrap;html=1;" parent="1" vertex="1">
          <mxGeometry x="6463.08" y="260" width="82.08" height="40" as="geometry" />
        </mxCell>
        <mxCell id="iH_aEqxw_GgNqT9NQLik-227" value="" style="endArrow=none;html=1;rounded=0;entryX=1;entryY=1;entryDx=0;entryDy=0;" parent="1" target="iH_aEqxw_GgNqT9NQLik-226" edge="1">
          <mxGeometry width="50" height="50" relative="1" as="geometry">
            <mxPoint x="6463.08" y="260" as="sourcePoint" />
            <mxPoint x="6563.08" y="220" as="targetPoint" />
          </mxGeometry>
        </mxCell>
        <mxCell id="iH_aEqxw_GgNqT9NQLik-228" value="513" style="text;html=1;strokeColor=none;fillColor=none;align=center;verticalAlign=middle;whiteSpace=wrap;rounded=0;" parent="1" vertex="1">
          <mxGeometry x="6469.16" y="285" width="20" height="10" as="geometry" />
        </mxCell>
        <mxCell id="iH_aEqxw_GgNqT9NQLik-230" value="" style="rounded=0;whiteSpace=wrap;html=1;" parent="1" vertex="1">
          <mxGeometry x="6545.16" y="260" width="118" height="40" as="geometry" />
        </mxCell>
        <mxCell id="iH_aEqxw_GgNqT9NQLik-231" value="" style="endArrow=none;html=1;rounded=0;entryX=1;entryY=0.5;entryDx=0;entryDy=0;exitX=0;exitY=0.5;exitDx=0;exitDy=0;" parent="1" source="iH_aEqxw_GgNqT9NQLik-230" target="iH_aEqxw_GgNqT9NQLik-230" edge="1">
          <mxGeometry width="50" height="50" relative="1" as="geometry">
            <mxPoint x="6545.16" y="300" as="sourcePoint" />
            <mxPoint x="6595.16" y="250" as="targetPoint" />
          </mxGeometry>
        </mxCell>
        <mxCell id="iH_aEqxw_GgNqT9NQLik-232" value="0.0" style="text;html=1;strokeColor=none;fillColor=none;align=center;verticalAlign=middle;whiteSpace=wrap;rounded=0;" parent="1" vertex="1">
          <mxGeometry x="6592.58" y="262" width="20" height="10" as="geometry" />
        </mxCell>
        <mxCell id="iH_aEqxw_GgNqT9NQLik-233" value="718" style="text;html=1;strokeColor=none;fillColor=none;align=center;verticalAlign=middle;whiteSpace=wrap;rounded=0;" parent="1" vertex="1">
          <mxGeometry x="6592.58" y="285" width="20" height="10" as="geometry" />
        </mxCell>
        <mxCell id="iH_aEqxw_GgNqT9NQLik-234" value="" style="rounded=0;whiteSpace=wrap;html=1;" parent="1" vertex="1">
          <mxGeometry x="6663" y="260" width="137" height="40" as="geometry" />
        </mxCell>
        <mxCell id="iH_aEqxw_GgNqT9NQLik-235" value="" style="endArrow=none;html=1;rounded=0;entryX=1;entryY=0;entryDx=0;entryDy=0;exitX=0;exitY=1;exitDx=0;exitDy=0;" parent="1" source="iH_aEqxw_GgNqT9NQLik-234" target="iH_aEqxw_GgNqT9NQLik-234" edge="1">
          <mxGeometry width="50" height="50" relative="1" as="geometry">
            <mxPoint x="6610.6" y="300" as="sourcePoint" />
            <mxPoint x="6660.6" y="250" as="targetPoint" />
          </mxGeometry>
        </mxCell>
        <mxCell id="iH_aEqxw_GgNqT9NQLik-236" value="0.3" style="text;html=1;strokeColor=none;fillColor=none;align=center;verticalAlign=middle;whiteSpace=wrap;rounded=0;" parent="1" vertex="1">
          <mxGeometry x="6663" y="262" width="20" height="10" as="geometry" />
        </mxCell>
        <mxCell id="iH_aEqxw_GgNqT9NQLik-237" value="855" style="text;html=1;strokeColor=none;fillColor=none;align=center;verticalAlign=middle;whiteSpace=wrap;rounded=0;" parent="1" vertex="1">
          <mxGeometry x="6776" y="285" width="20" height="10" as="geometry" />
        </mxCell>
        <mxCell id="iH_aEqxw_GgNqT9NQLik-239" value="ПЧ-1, ПЧУ-1, ПД-1" style="rounded=0;whiteSpace=wrap;html=1;" parent="1" vertex="1">
          <mxGeometry x="240" y="643" width="800" height="20" as="geometry" />
        </mxCell>
        <mxCell id="16A_R8fPmNm19ENC-UtP-1" value="ШЧ-1, ШЧУ-1" style="rounded=0;whiteSpace=wrap;html=1;" parent="1" vertex="1">
          <mxGeometry x="240" y="663" width="3520" height="20" as="geometry" />
        </mxCell>
        <mxCell id="16A_R8fPmNm19ENC-UtP-2" value="ПЧ-1, ПЧУ-1, ПД-2" style="rounded=0;whiteSpace=wrap;html=1;" parent="1" vertex="1">
          <mxGeometry x="1040" y="643" width="2720" height="20" as="geometry" />
        </mxCell>
        <mxCell id="16A_R8fPmNm19ENC-UtP-3" value="ИЧ-1, ПЧУ-1, ПД-1" style="rounded=0;whiteSpace=wrap;html=1;" parent="1" vertex="1">
          <mxGeometry x="3760" y="643" width="1440" height="20" as="geometry" />
        </mxCell>
        <mxCell id="16A_R8fPmNm19ENC-UtP-4" value="ИЧ-1, ШЧУ-1" style="rounded=0;whiteSpace=wrap;html=1;" parent="1" vertex="1">
          <mxGeometry x="3760" y="663" width="3040" height="20" as="geometry" />
        </mxCell>
        <mxCell id="16A_R8fPmNm19ENC-UtP-5" value="ИЧ-1, ПЧУ-1, ПД-2" style="rounded=0;whiteSpace=wrap;html=1;" parent="1" vertex="1">
          <mxGeometry x="5200" y="643" width="1600" height="20" as="geometry" />
        </mxCell>
        <mxCell id="16A_R8fPmNm19ENC-UtP-6" value="0,5" style="text;html=1;strokeColor=none;fillColor=none;align=center;verticalAlign=middle;whiteSpace=wrap;rounded=0;" parent="1" vertex="1">
          <mxGeometry x="6525" y="262" width="20" height="10" as="geometry" />
        </mxCell>
        <mxCell id="hME5l4rsfuZXc2bHnHF4-1" value="120 / 80&amp;nbsp; &amp;nbsp; &amp;nbsp; &amp;nbsp; &amp;nbsp; &amp;nbsp; &amp;nbsp; &amp;nbsp; &amp;nbsp; &amp;nbsp; &amp;nbsp; &amp;nbsp; &amp;nbsp; &amp;nbsp; &amp;nbsp; &amp;nbsp; &amp;nbsp; &amp;nbsp; &amp;nbsp; &lt;span style=&quot;white-space: pre;&quot;&gt;&#x9;&lt;/span&gt;&lt;span style=&quot;white-space: pre;&quot;&gt;&#x9;&lt;/span&gt;&lt;span style=&quot;white-space: pre;&quot;&gt;&#x9;&lt;/span&gt;&lt;span style=&quot;white-space: pre;&quot;&gt;&#x9;&lt;/span&gt;&lt;span style=&quot;white-space: pre;&quot;&gt;&#x9;&lt;/span&gt;&lt;span style=&quot;white-space: pre;&quot;&gt;&#x9;&lt;/span&gt;&lt;span style=&quot;white-space: pre;&quot;&gt;&#x9;&lt;/span&gt;&lt;span style=&quot;white-space: pre;&quot;&gt;&#x9;&lt;/span&gt;&lt;span style=&quot;white-space: pre;&quot;&gt;&#x9;&lt;/span&gt;&lt;span style=&quot;white-space: pre;&quot;&gt;&#x9;&lt;/span&gt;&lt;span style=&quot;white-space: pre;&quot;&gt;&#x9;&lt;/span&gt;&lt;span style=&quot;white-space: pre;&quot;&gt;&#x9;&lt;/span&gt;&lt;span style=&quot;white-space: pre;&quot;&gt;&#x9;&lt;/span&gt;&lt;span style=&quot;white-space: pre;&quot;&gt;&#x9;&lt;/span&gt;&lt;span style=&quot;white-space: pre;&quot;&gt;&#x9;&lt;/span&gt;&lt;span style=&quot;white-space: pre;&quot;&gt;&#x9;&lt;/span&gt;120 / 80&amp;nbsp; &amp;nbsp; &amp;nbsp; &amp;nbsp; &amp;nbsp; &amp;nbsp; &amp;nbsp; &amp;nbsp; &amp;nbsp; &amp;nbsp; &amp;nbsp; &lt;span style=&quot;white-space: pre;&quot;&gt;&#x9;&lt;/span&gt;&lt;span style=&quot;white-space: pre;&quot;&gt;&#x9;&lt;/span&gt;&lt;span style=&quot;white-space: pre;&quot;&gt;&#x9;&lt;/span&gt;&lt;span style=&quot;white-space: pre;&quot;&gt;&#x9;&lt;/span&gt;&lt;span style=&quot;white-space: pre;&quot;&gt;&#x9;&lt;/span&gt;&lt;span style=&quot;white-space: pre;&quot;&gt;&#x9;&lt;/span&gt;&amp;nbsp; &amp;nbsp; &amp;nbsp; &amp;nbsp;&amp;nbsp;&lt;span style=&quot;white-space: pre;&quot;&gt;&#x9;&lt;/span&gt;&lt;span style=&quot;white-space: pre;&quot;&gt;&#x9;&lt;/span&gt;&lt;span style=&quot;white-space: pre;&quot;&gt;&#x9;&lt;/span&gt;&lt;span style=&quot;white-space: pre;&quot;&gt;&#x9;&lt;/span&gt;&lt;span style=&quot;white-space: pre;&quot;&gt;&#x9;&lt;/span&gt;&lt;span style=&quot;white-space: pre;&quot;&gt;&#x9;&lt;/span&gt;&lt;span style=&quot;white-space: pre;&quot;&gt;&#x9;&lt;/span&gt;&lt;span style=&quot;white-space: pre;&quot;&gt;&#x9;&lt;/span&gt;&lt;span style=&quot;white-space: pre;&quot;&gt;&#x9;&lt;/span&gt;&lt;span style=&quot;white-space: pre;&quot;&gt;&#x9;&lt;/span&gt;&lt;span style=&quot;white-space: pre;&quot;&gt;&#x9;&lt;/span&gt;120 / 80" style="rounded=0;whiteSpace=wrap;html=1;" parent="1" vertex="1">
          <mxGeometry x="240" y="370" width="3880" height="40" as="geometry" />
        </mxCell>
        <mxCell id="hME5l4rsfuZXc2bHnHF4-2" value="100 / 80&amp;nbsp; &amp;nbsp; &amp;nbsp; &amp;nbsp; &amp;nbsp; &amp;nbsp; &amp;nbsp; &amp;nbsp; &amp;nbsp; &amp;nbsp; &amp;nbsp; &amp;nbsp; &amp;nbsp; &amp;nbsp; &amp;nbsp; &amp;nbsp; &amp;nbsp; &amp;nbsp; &amp;nbsp; &lt;span style=&quot;white-space: pre;&quot;&gt;&#x9;&lt;/span&gt;&lt;span style=&quot;white-space: pre;&quot;&gt;&#x9;&lt;/span&gt;&lt;span style=&quot;white-space: pre;&quot;&gt;&#x9;&lt;/span&gt;&lt;span style=&quot;white-space: pre;&quot;&gt;&#x9;&lt;/span&gt;&lt;span style=&quot;white-space: pre;&quot;&gt;&#x9;&lt;/span&gt;&lt;span style=&quot;white-space: pre;&quot;&gt;&#x9;&lt;/span&gt;&lt;span style=&quot;white-space: pre;&quot;&gt;&#x9;&lt;/span&gt;&lt;span style=&quot;white-space: pre;&quot;&gt;&#x9;&lt;/span&gt;&lt;span style=&quot;white-space: pre;&quot;&gt;&#x9;&lt;/span&gt;&lt;span style=&quot;white-space: pre;&quot;&gt;&#x9;&lt;/span&gt;&lt;span style=&quot;white-space: pre;&quot;&gt;&#x9;&lt;/span&gt;&lt;span style=&quot;white-space: pre;&quot;&gt;&#x9;&lt;/span&gt;&lt;span style=&quot;white-space: pre;&quot;&gt;&#x9;&lt;/span&gt;&lt;span style=&quot;white-space: pre;&quot;&gt;&#x9;&lt;/span&gt;&lt;span style=&quot;white-space: pre;&quot;&gt;&#x9;&lt;/span&gt;&lt;span style=&quot;white-space: pre;&quot;&gt;&#x9;&lt;/span&gt;100 / 80&amp;nbsp; &amp;nbsp; &amp;nbsp; &amp;nbsp; &amp;nbsp; &amp;nbsp; &amp;nbsp; &amp;nbsp; &amp;nbsp; &amp;nbsp; &amp;nbsp; &lt;span style=&quot;white-space: pre;&quot;&gt;&#x9;&lt;/span&gt;&lt;span style=&quot;white-space: pre;&quot;&gt;&#x9;&lt;/span&gt;&lt;span style=&quot;white-space: pre;&quot;&gt;&#x9;&lt;/span&gt;&lt;span style=&quot;white-space: pre;&quot;&gt;&#x9;&lt;/span&gt;&lt;span style=&quot;white-space: pre;&quot;&gt;&#x9;&lt;/span&gt;&lt;span style=&quot;white-space: pre;&quot;&gt;&#x9;&lt;/span&gt;&amp;nbsp; &amp;nbsp; &amp;nbsp; &amp;nbsp;&amp;nbsp;&lt;span style=&quot;white-space: pre;&quot;&gt;&#x9;&lt;/span&gt;&lt;span style=&quot;white-space: pre;&quot;&gt;&#x9;&lt;/span&gt;&lt;span style=&quot;white-space: pre;&quot;&gt;&#x9;&lt;/span&gt;&lt;span style=&quot;white-space: pre;&quot;&gt;&#x9;&lt;/span&gt;&lt;span style=&quot;white-space: pre;&quot;&gt;&#x9;&lt;/span&gt;&lt;span style=&quot;white-space: pre;&quot;&gt;&#x9;&lt;/span&gt;&lt;span style=&quot;white-space: pre;&quot;&gt;&#x9;&lt;/span&gt;&lt;span style=&quot;white-space: pre;&quot;&gt;&#x9;&lt;/span&gt;&lt;span style=&quot;white-space: pre;&quot;&gt;&#x9;&lt;/span&gt;&lt;span style=&quot;white-space: pre;&quot;&gt;&#x9;&lt;/span&gt;&lt;span style=&quot;white-space: pre;&quot;&gt;&#x9;&lt;/span&gt;100 / 80" style="rounded=0;whiteSpace=wrap;html=1;" parent="1" vertex="1">
          <mxGeometry x="4120" y="370" width="2678" height="40" as="geometry" />
        </mxCell>
        <mxCell id="hME5l4rsfuZXc2bHnHF4-3" value="" style="endArrow=none;html=1;rounded=0;" parent="1" edge="1">
          <mxGeometry width="50" height="50" relative="1" as="geometry">
            <mxPoint x="240" y="360" as="sourcePoint" />
            <mxPoint x="310" y="360" as="targetPoint" />
          </mxGeometry>
        </mxCell>
        <mxCell id="hME5l4rsfuZXc2bHnHF4-5" value="" style="curved=1;endArrow=none;html=1;rounded=0;endFill=0;" parent="1" edge="1">
          <mxGeometry width="50" height="50" relative="1" as="geometry">
            <mxPoint x="310" y="360" as="sourcePoint" />
            <mxPoint x="330" y="340" as="targetPoint" />
            <Array as="points">
              <mxPoint x="320" y="360" />
              <mxPoint x="330" y="350" />
            </Array>
          </mxGeometry>
        </mxCell>
        <mxCell id="hME5l4rsfuZXc2bHnHF4-6" value="" style="endArrow=none;html=1;rounded=0;" parent="1" edge="1">
          <mxGeometry width="50" height="50" relative="1" as="geometry">
            <mxPoint x="330" y="340" as="sourcePoint" />
            <mxPoint x="660" y="340" as="targetPoint" />
          </mxGeometry>
        </mxCell>
        <mxCell id="hME5l4rsfuZXc2bHnHF4-7" value="" style="curved=1;endArrow=none;html=1;rounded=0;endFill=0;" parent="1" edge="1">
          <mxGeometry width="50" height="50" relative="1" as="geometry">
            <mxPoint x="660" y="340" as="sourcePoint" />
            <mxPoint x="680" y="320" as="targetPoint" />
            <Array as="points">
              <mxPoint x="660" y="320" />
              <mxPoint x="680" y="320" />
            </Array>
          </mxGeometry>
        </mxCell>
        <mxCell id="hME5l4rsfuZXc2bHnHF4-8" value="" style="endArrow=none;html=1;rounded=0;" parent="1" edge="1">
          <mxGeometry width="50" height="50" relative="1" as="geometry">
            <mxPoint x="680.0899999999999" y="320" as="sourcePoint" />
            <mxPoint x="800" y="320" as="targetPoint" />
          </mxGeometry>
        </mxCell>
        <mxCell id="hME5l4rsfuZXc2bHnHF4-9" value="" style="curved=1;endArrow=none;html=1;rounded=0;endFill=0;" parent="1" edge="1">
          <mxGeometry width="50" height="50" relative="1" as="geometry">
            <mxPoint x="820" y="340" as="sourcePoint" />
            <mxPoint x="800" y="320" as="targetPoint" />
            <Array as="points">
              <mxPoint x="820" y="320" />
              <mxPoint x="800" y="320" />
            </Array>
          </mxGeometry>
        </mxCell>
        <mxCell id="hME5l4rsfuZXc2bHnHF4-10" value="" style="endArrow=none;html=1;rounded=0;" parent="1" edge="1">
          <mxGeometry width="50" height="50" relative="1" as="geometry">
            <mxPoint x="820" y="340" as="sourcePoint" />
            <mxPoint x="1840" y="340" as="targetPoint" />
          </mxGeometry>
        </mxCell>
        <mxCell id="hME5l4rsfuZXc2bHnHF4-11" value="" style="endArrow=none;html=1;rounded=0;" parent="1" edge="1">
          <mxGeometry width="50" height="50" relative="1" as="geometry">
            <mxPoint x="1860" y="360" as="sourcePoint" />
            <mxPoint x="2000" y="360" as="targetPoint" />
          </mxGeometry>
        </mxCell>
        <mxCell id="hME5l4rsfuZXc2bHnHF4-12" value="" style="curved=1;endArrow=none;html=1;rounded=0;endFill=0;" parent="1" edge="1">
          <mxGeometry width="50" height="50" relative="1" as="geometry">
            <mxPoint x="2000" y="360" as="sourcePoint" />
            <mxPoint x="2020" y="340" as="targetPoint" />
            <Array as="points">
              <mxPoint x="2010" y="360" />
              <mxPoint x="2020" y="350" />
            </Array>
          </mxGeometry>
        </mxCell>
        <mxCell id="hME5l4rsfuZXc2bHnHF4-13" value="" style="curved=1;endArrow=none;html=1;rounded=0;endFill=0;" parent="1" edge="1">
          <mxGeometry width="50" height="50" relative="1" as="geometry">
            <mxPoint x="1860" y="360" as="sourcePoint" />
            <mxPoint x="1840" y="340" as="targetPoint" />
            <Array as="points">
              <mxPoint x="1840" y="360" />
            </Array>
          </mxGeometry>
        </mxCell>
        <mxCell id="hME5l4rsfuZXc2bHnHF4-14" value="" style="endArrow=none;html=1;rounded=0;" parent="1" edge="1">
          <mxGeometry width="50" height="50" relative="1" as="geometry">
            <mxPoint x="2020" y="340" as="sourcePoint" />
            <mxPoint x="3600" y="340" as="targetPoint" />
          </mxGeometry>
        </mxCell>
        <mxCell id="hME5l4rsfuZXc2bHnHF4-15" value="" style="endArrow=none;html=1;rounded=0;" parent="1" edge="1">
          <mxGeometry width="50" height="50" relative="1" as="geometry">
            <mxPoint x="3620" y="360" as="sourcePoint" />
            <mxPoint x="3720" y="360" as="targetPoint" />
          </mxGeometry>
        </mxCell>
        <mxCell id="hME5l4rsfuZXc2bHnHF4-16" value="" style="curved=1;endArrow=none;html=1;rounded=0;endFill=0;" parent="1" edge="1">
          <mxGeometry width="50" height="50" relative="1" as="geometry">
            <mxPoint x="3720" y="360" as="sourcePoint" />
            <mxPoint x="3740" y="340" as="targetPoint" />
            <Array as="points">
              <mxPoint x="3730" y="360" />
              <mxPoint x="3740" y="350" />
            </Array>
          </mxGeometry>
        </mxCell>
        <mxCell id="hME5l4rsfuZXc2bHnHF4-17" value="" style="curved=1;endArrow=none;html=1;rounded=0;endFill=0;" parent="1" edge="1">
          <mxGeometry width="50" height="50" relative="1" as="geometry">
            <mxPoint x="3620" y="360" as="sourcePoint" />
            <mxPoint x="3600" y="339" as="targetPoint" />
            <Array as="points">
              <mxPoint x="3600" y="359" />
            </Array>
          </mxGeometry>
        </mxCell>
        <mxCell id="hME5l4rsfuZXc2bHnHF4-18" value="" style="endArrow=none;html=1;rounded=0;" parent="1" edge="1">
          <mxGeometry width="50" height="50" relative="1" as="geometry">
            <mxPoint x="3740" y="340" as="sourcePoint" />
            <mxPoint x="4960" y="340" as="targetPoint" />
          </mxGeometry>
        </mxCell>
        <mxCell id="hME5l4rsfuZXc2bHnHF4-19" value="" style="curved=1;endArrow=none;html=1;rounded=0;endFill=0;" parent="1" edge="1">
          <mxGeometry width="50" height="50" relative="1" as="geometry">
            <mxPoint x="4960" y="340" as="sourcePoint" />
            <mxPoint x="4980" y="320" as="targetPoint" />
            <Array as="points">
              <mxPoint x="4960" y="320" />
            </Array>
          </mxGeometry>
        </mxCell>
        <mxCell id="hME5l4rsfuZXc2bHnHF4-20" value="" style="endArrow=none;html=1;rounded=0;" parent="1" edge="1">
          <mxGeometry width="50" height="50" relative="1" as="geometry">
            <mxPoint x="4980" y="320" as="sourcePoint" />
            <mxPoint x="5060" y="320" as="targetPoint" />
          </mxGeometry>
        </mxCell>
        <mxCell id="hME5l4rsfuZXc2bHnHF4-21" value="" style="curved=1;endArrow=none;html=1;rounded=0;endFill=0;" parent="1" edge="1">
          <mxGeometry width="50" height="50" relative="1" as="geometry">
            <mxPoint x="5080" y="340" as="sourcePoint" />
            <mxPoint x="5059.999999999999" y="320" as="targetPoint" />
            <Array as="points">
              <mxPoint x="5080" y="330" />
              <mxPoint x="5070" y="320" />
            </Array>
          </mxGeometry>
        </mxCell>
        <mxCell id="hME5l4rsfuZXc2bHnHF4-22" value="" style="endArrow=none;html=1;rounded=0;" parent="1" edge="1">
          <mxGeometry width="50" height="50" relative="1" as="geometry">
            <mxPoint x="5080" y="340" as="sourcePoint" />
            <mxPoint x="6800" y="340" as="targetPoint" />
          </mxGeometry>
        </mxCell>
        <mxCell id="hME5l4rsfuZXc2bHnHF4-24" value="R-850, K-563, h-134" style="text;html=1;strokeColor=none;fillColor=none;align=center;verticalAlign=middle;whiteSpace=wrap;rounded=0;" parent="1" vertex="1">
          <mxGeometry x="245" y="319" width="85" height="48" as="geometry" />
        </mxCell>
        <mxCell id="hME5l4rsfuZXc2bHnHF4-25" value="R-935, K-1015, h-118" style="text;html=1;strokeColor=none;fillColor=none;align=center;verticalAlign=middle;whiteSpace=wrap;rounded=0;" parent="1" vertex="1">
          <mxGeometry x="677.44" y="322" width="130" height="28" as="geometry" />
        </mxCell>
        <mxCell id="hME5l4rsfuZXc2bHnHF4-26" value="R-1415, K-1138, h-78" style="text;html=1;strokeColor=none;fillColor=none;align=center;verticalAlign=middle;whiteSpace=wrap;rounded=0;" parent="1" vertex="1">
          <mxGeometry x="1867.81" y="336" width="130" height="28" as="geometry" />
        </mxCell>
        <mxCell id="hME5l4rsfuZXc2bHnHF4-28" value="R-920, K-870, h-125" style="text;html=1;strokeColor=none;fillColor=none;align=center;verticalAlign=middle;whiteSpace=wrap;rounded=0;" parent="1" vertex="1">
          <mxGeometry x="3610" y="336" width="130" height="28" as="geometry" />
        </mxCell>
        <mxCell id="hME5l4rsfuZXc2bHnHF4-29" value="R-780, K-750, h-138" style="text;html=1;strokeColor=none;fillColor=none;align=center;verticalAlign=middle;whiteSpace=wrap;rounded=0;" parent="1" vertex="1">
          <mxGeometry x="4955" y="322" width="130" height="28" as="geometry" />
        </mxCell>
        <mxCell id="hME5l4rsfuZXc2bHnHF4-30" value="517.3" style="rounded=0;whiteSpace=wrap;html=1;" parent="1" vertex="1">
          <mxGeometry x="240" y="450" width="380" height="40" as="geometry" />
        </mxCell>
        <mxCell id="hME5l4rsfuZXc2bHnHF4-31" value="246.8&lt;span style=&quot;white-space: pre;&quot;&gt;&#x9;&lt;/span&gt;&lt;span style=&quot;white-space: pre;&quot;&gt;&#x9;&lt;/span&gt;&lt;span style=&quot;white-space: pre;&quot;&gt;&#x9;&lt;/span&gt;&lt;span style=&quot;white-space: pre;&quot;&gt;&#x9;&lt;/span&gt;&lt;span style=&quot;white-space: pre;&quot;&gt;&#x9;&lt;/span&gt;&lt;span style=&quot;white-space: pre;&quot;&gt;&#x9;&lt;/span&gt;&lt;span style=&quot;white-space: pre;&quot;&gt;&#x9;&lt;/span&gt;&lt;span style=&quot;white-space: pre;&quot;&gt;&#x9;&lt;/span&gt;&lt;span style=&quot;white-space: pre;&quot;&gt;&#x9;&lt;/span&gt;&lt;span style=&quot;white-space: pre;&quot;&gt;&#x9;&lt;/span&gt;&lt;span style=&quot;white-space: pre;&quot;&gt;&#x9;&lt;/span&gt;&lt;span style=&quot;white-space: pre;&quot;&gt;&#x9;&lt;/span&gt;&lt;span style=&quot;white-space: pre;&quot;&gt;&#x9;&lt;/span&gt;&lt;span style=&quot;white-space: pre;&quot;&gt;&#x9;&lt;/span&gt;&lt;span style=&quot;white-space: pre;&quot;&gt;&#x9;&lt;/span&gt;&lt;span style=&quot;white-space: pre;&quot;&gt;&#x9;&lt;/span&gt;246.8&lt;span style=&quot;white-space: pre;&quot;&gt;&#x9;&lt;/span&gt;&lt;span style=&quot;white-space: pre;&quot;&gt;&#x9;&lt;/span&gt;&lt;span style=&quot;white-space: pre;&quot;&gt;&#x9;&lt;/span&gt;&lt;span style=&quot;white-space: pre;&quot;&gt;&#x9;&lt;/span&gt;&amp;nbsp;&lt;span style=&quot;white-space: pre;&quot;&gt;&#x9;&lt;/span&gt;&lt;span style=&quot;white-space: pre;&quot;&gt;&#x9;&lt;/span&gt;&lt;span style=&quot;white-space: pre;&quot;&gt;&#x9;&lt;/span&gt;&lt;span style=&quot;white-space: pre;&quot;&gt;&#x9;&lt;/span&gt;&lt;span style=&quot;white-space: pre;&quot;&gt;&#x9;&lt;/span&gt;&lt;span style=&quot;white-space: pre;&quot;&gt;&#x9;&lt;/span&gt;&lt;span style=&quot;white-space: pre;&quot;&gt;&#x9;&lt;/span&gt;&lt;span style=&quot;white-space: pre;&quot;&gt;&#x9;&lt;/span&gt;&lt;span style=&quot;white-space: pre;&quot;&gt;&#x9;&lt;/span&gt;&lt;span style=&quot;white-space: pre;&quot;&gt;&#x9;&lt;/span&gt;&lt;span style=&quot;white-space: pre;&quot;&gt;&#x9;&lt;/span&gt;&lt;span style=&quot;white-space: pre;&quot;&gt;&#x9;&lt;/span&gt;&lt;span style=&quot;white-space: pre;&quot;&gt;&#x9;&lt;/span&gt;&lt;span style=&quot;white-space: pre;&quot;&gt;&#x9;&lt;/span&gt;246.8" style="rounded=0;whiteSpace=wrap;html=1;" parent="1" vertex="1">
          <mxGeometry x="620" y="450" width="3470" height="40" as="geometry" />
        </mxCell>
        <mxCell id="hME5l4rsfuZXc2bHnHF4-32" value="817.5&lt;span style=&quot;white-space: pre;&quot;&gt;&#x9;&lt;/span&gt;&lt;span style=&quot;white-space: pre;&quot;&gt;&#x9;&lt;/span&gt;&lt;span style=&quot;white-space: pre;&quot;&gt;&#x9;&lt;/span&gt;&lt;span style=&quot;white-space: pre;&quot;&gt;&#x9;&lt;/span&gt;&lt;span style=&quot;white-space: pre;&quot;&gt;&#x9;&lt;/span&gt;&lt;span style=&quot;white-space: pre;&quot;&gt;&#x9;&lt;/span&gt;&lt;span style=&quot;white-space: pre;&quot;&gt;&#x9;&lt;/span&gt;&lt;span style=&quot;white-space: pre;&quot;&gt;&#x9;&lt;/span&gt;&lt;span style=&quot;white-space: pre;&quot;&gt;&#x9;&lt;/span&gt;&lt;span style=&quot;white-space: pre;&quot;&gt;&#x9;&lt;/span&gt;&lt;span style=&quot;white-space: pre;&quot;&gt;&#x9;&lt;/span&gt;&lt;span style=&quot;white-space: pre;&quot;&gt;&#x9;&lt;/span&gt;&lt;span style=&quot;white-space: pre;&quot;&gt;&#x9;&lt;/span&gt;&lt;span style=&quot;white-space: pre;&quot;&gt;&#x9;&lt;/span&gt;&lt;span style=&quot;white-space: pre;&quot;&gt;&#x9;&lt;/span&gt;&lt;span style=&quot;white-space: pre;&quot;&gt;&#x9;&lt;/span&gt;817.5&lt;span style=&quot;white-space: pre;&quot;&gt;&#x9;&lt;/span&gt;&lt;span style=&quot;white-space: pre;&quot;&gt;&#x9;&lt;/span&gt;&lt;span style=&quot;white-space: pre;&quot;&gt;&#x9;&lt;/span&gt;&lt;span style=&quot;white-space: pre;&quot;&gt;&#x9;&lt;/span&gt;&amp;nbsp;&lt;span style=&quot;white-space: pre;&quot;&gt;&#x9;&lt;/span&gt;&lt;span style=&quot;white-space: pre;&quot;&gt;&#x9;&lt;/span&gt;&lt;span style=&quot;white-space: pre;&quot;&gt;&#x9;&lt;/span&gt;&lt;span style=&quot;white-space: pre;&quot;&gt;&#x9;&lt;/span&gt;&lt;span style=&quot;white-space: pre;&quot;&gt;&#x9;&lt;/span&gt;&lt;span style=&quot;white-space: pre;&quot;&gt;&#x9;&lt;/span&gt;&lt;span style=&quot;white-space: pre;&quot;&gt;&#x9;&lt;/span&gt;&lt;span style=&quot;white-space: pre;&quot;&gt;&#x9;&lt;/span&gt;&lt;span style=&quot;white-space: pre;&quot;&gt;&#x9;&lt;/span&gt;&lt;span style=&quot;white-space: pre;&quot;&gt;&#x9;&lt;/span&gt;&lt;span style=&quot;white-space: pre;&quot;&gt;&#x9;&lt;/span&gt;&lt;span style=&quot;white-space: pre;&quot;&gt;&#x9;&lt;/span&gt;&lt;span style=&quot;white-space: pre;&quot;&gt;&#x9;&lt;/span&gt;&lt;span style=&quot;white-space: pre;&quot;&gt;&#x9;&lt;/span&gt;817.5" style="rounded=0;whiteSpace=wrap;html=1;" parent="1" vertex="1">
          <mxGeometry x="4090" y="450" width="2710" height="40" as="geometry" />
        </mxCell>
        <mxCell id="hME5l4rsfuZXc2bHnHF4-33" value="92.7 / 1T / 1O" style="rounded=0;whiteSpace=wrap;html=1;" parent="1" vertex="1">
          <mxGeometry x="240" y="490" width="284" height="33" as="geometry" />
        </mxCell>
        <mxCell id="hME5l4rsfuZXc2bHnHF4-34" value="92.4 / 1T / 1O&lt;span style=&quot;&quot;&gt;&lt;span style=&quot;&quot;&gt;&amp;nbsp;&amp;nbsp;&amp;nbsp;&amp;nbsp;&lt;/span&gt;&lt;/span&gt;&lt;span style=&quot;&quot;&gt;&lt;span style=&quot;&quot;&gt;&amp;nbsp;&amp;nbsp;&amp;nbsp;&amp;nbsp;&lt;/span&gt;&lt;/span&gt;&lt;span style=&quot;&quot;&gt;&lt;span style=&quot;&quot;&gt;&amp;nbsp;&amp;nbsp;&amp;nbsp;&amp;nbsp;&lt;/span&gt;&lt;/span&gt;&lt;span style=&quot;&quot;&gt;&lt;span style=&quot;&quot;&gt;&amp;nbsp;&amp;nbsp;&amp;nbsp;&amp;nbsp;&lt;/span&gt;&lt;/span&gt;&lt;span style=&quot;&quot;&gt;&lt;span style=&quot;&quot;&gt;&amp;nbsp;&amp;nbsp;&amp;nbsp;&amp;nbsp;&lt;/span&gt;&lt;/span&gt;&lt;span style=&quot;&quot;&gt;&lt;span style=&quot;&quot;&gt;&amp;nbsp;&amp;nbsp;&amp;nbsp;&amp;nbsp;&lt;/span&gt;&lt;/span&gt;&lt;span style=&quot;&quot;&gt;&lt;span style=&quot;&quot;&gt;&amp;nbsp;&amp;nbsp;&amp;nbsp;&amp;nbsp;&lt;/span&gt;&lt;/span&gt;&lt;span style=&quot;&quot;&gt;&lt;span style=&quot;&quot;&gt;&amp;nbsp;&amp;nbsp;&amp;nbsp;&amp;nbsp;&lt;/span&gt;&lt;/span&gt;&lt;span style=&quot;&quot;&gt;&lt;span style=&quot;&quot;&gt;&amp;nbsp;&amp;nbsp;&amp;nbsp;&lt;span style=&quot;white-space: pre;&quot;&gt;&#x9;&lt;span style=&quot;white-space: pre;&quot;&gt;&#x9;&lt;/span&gt;&lt;span style=&quot;white-space: pre;&quot;&gt;&#x9;&lt;/span&gt;&lt;span style=&quot;white-space: pre;&quot;&gt;&#x9;&lt;/span&gt;&lt;span style=&quot;white-space: pre;&quot;&gt;&#x9;&lt;/span&gt;&lt;/span&gt;&lt;span style=&quot;white-space: pre;&quot;&gt;&#x9;&lt;/span&gt;&lt;span style=&quot;white-space: pre;&quot;&gt;&#x9;&lt;span style=&quot;white-space: pre;&quot;&gt;&#x9;&lt;/span&gt;&lt;span style=&quot;white-space: pre;&quot;&gt;&#x9;&lt;/span&gt;&lt;span style=&quot;white-space: pre;&quot;&gt;&#x9;&lt;/span&gt;&lt;/span&gt;&lt;span style=&quot;white-space: pre;&quot;&gt;&#x9;&lt;/span&gt;&lt;span style=&quot;white-space: pre;&quot;&gt;&#x9;&lt;/span&gt;&lt;span style=&quot;white-space: pre;&quot;&gt;&#x9;&lt;/span&gt;&amp;nbsp;&lt;/span&gt;&lt;/span&gt;&lt;span style=&quot;&quot;&gt;&lt;span style=&quot;&quot;&gt;&amp;nbsp;&amp;nbsp;&amp;nbsp;&amp;nbsp;&lt;/span&gt;&lt;/span&gt;&lt;span style=&quot;&quot;&gt;&lt;span style=&quot;&quot;&gt;&amp;nbsp;&amp;nbsp;&amp;nbsp;&amp;nbsp;&lt;/span&gt;&lt;/span&gt;&lt;span style=&quot;&quot;&gt;&lt;span style=&quot;&quot;&gt;&amp;nbsp;&amp;nbsp;&amp;nbsp;&amp;nbsp;&lt;/span&gt;&lt;/span&gt;92.4 / 1T / 1O&lt;span style=&quot;&quot;&gt;&lt;span style=&quot;white-space: pre;&quot;&gt;&amp;nbsp;&amp;nbsp;&amp;nbsp;&amp;nbsp;&lt;/span&gt;&lt;/span&gt;&lt;span style=&quot;&quot;&gt;&lt;span style=&quot;white-space: pre;&quot;&gt;&amp;nbsp;&amp;nbsp;&amp;nbsp;&amp;nbsp;&lt;/span&gt;&lt;/span&gt;&lt;span style=&quot;&quot;&gt;&lt;span style=&quot;white-space: pre;&quot;&gt;&amp;nbsp;&amp;nbsp;&amp;nbsp;&amp;nbsp;&lt;/span&gt;&lt;/span&gt;&lt;span style=&quot;&quot;&gt;&lt;span style=&quot;white-space: pre;&quot;&gt;&amp;nbsp;&lt;span style=&quot;white-space: pre;&quot;&gt;&#x9;&lt;/span&gt;&lt;span style=&quot;white-space: pre;&quot;&gt;&#x9;&lt;/span&gt;&lt;span style=&quot;white-space: pre;&quot;&gt;&#x9;&lt;/span&gt;&amp;nbsp;&lt;span style=&quot;white-space: pre;&quot;&gt;&#x9;&lt;span style=&quot;white-space: pre;&quot;&gt;&#x9;&lt;/span&gt;&lt;span style=&quot;white-space: pre;&quot;&gt;&#x9;&lt;/span&gt;&lt;span style=&quot;white-space: pre;&quot;&gt;&#x9;&lt;/span&gt;&lt;span style=&quot;white-space: pre;&quot;&gt;&#x9;&lt;/span&gt;&lt;span style=&quot;white-space: pre;&quot;&gt;&#x9;&lt;/span&gt;&lt;span style=&quot;white-space: pre;&quot;&gt;&#x9;&lt;/span&gt;&lt;/span&gt;&lt;span style=&quot;white-space: pre;&quot;&gt;&#x9;&lt;/span&gt;&lt;span style=&quot;white-space: pre;&quot;&gt;&#x9;&lt;/span&gt;&amp;nbsp;&amp;nbsp;&lt;/span&gt;&lt;/span&gt;&lt;span style=&quot;&quot;&gt;&lt;span style=&quot;white-space: pre;&quot;&gt;&amp;nbsp;&amp;nbsp;&amp;nbsp;&amp;nbsp;&lt;/span&gt;&lt;/span&gt;&lt;span style=&quot;&quot;&gt;&lt;span style=&quot;white-space: pre;&quot;&gt;&amp;nbsp;&amp;nbsp;&amp;nbsp;&amp;nbsp;&lt;/span&gt;&lt;/span&gt;&lt;span style=&quot;&quot;&gt;&lt;span style=&quot;white-space: pre;&quot;&gt;&amp;nbsp;&amp;nbsp;&amp;nbsp;&amp;nbsp;&lt;/span&gt;&lt;/span&gt;&lt;span style=&quot;&quot;&gt;&lt;span style=&quot;white-space: pre;&quot;&gt;&amp;nbsp;&amp;nbsp;&amp;nbsp;&amp;nbsp;&lt;/span&gt;&lt;/span&gt;&lt;span style=&quot;&quot;&gt;&lt;span style=&quot;white-space: pre;&quot;&gt;&amp;nbsp;&amp;nbsp;&amp;nbsp;&amp;nbsp;&lt;/span&gt;&lt;/span&gt;&lt;span style=&quot;&quot;&gt;&lt;span style=&quot;white-space: pre;&quot;&gt;&amp;nbsp;&amp;nbsp;&amp;nbsp;&amp;nbsp;&lt;/span&gt;&lt;/span&gt;&lt;span style=&quot;&quot;&gt;&lt;span style=&quot;white-space: pre;&quot;&gt;&amp;nbsp;&amp;nbsp;&amp;nbsp;&amp;nbsp;&lt;/span&gt;&lt;/span&gt;&lt;span style=&quot;&quot;&gt;&lt;span style=&quot;white-space: pre;&quot;&gt;&amp;nbsp;&amp;nbsp;&amp;nbsp;&amp;nbsp;&lt;/span&gt;&lt;/span&gt;&lt;span style=&quot;&quot;&gt;&lt;span style=&quot;white-space: pre;&quot;&gt;&amp;nbsp;&amp;nbsp;&amp;nbsp;&amp;nbsp;&lt;/span&gt;&lt;/span&gt;92.4 / 1T / 1O" style="rounded=0;whiteSpace=wrap;html=1;" parent="1" vertex="1">
          <mxGeometry x="524" y="490" width="6276" height="33" as="geometry" />
        </mxCell>
        <mxCell id="hME5l4rsfuZXc2bHnHF4-36" value="КБ, Ж/Б, 1931, Щ, 35-50" style="rounded=0;whiteSpace=wrap;html=1;" parent="1" vertex="1">
          <mxGeometry x="240" y="563" width="160" height="40" as="geometry" />
        </mxCell>
        <mxCell id="hME5l4rsfuZXc2bHnHF4-37" value="КБ, Ж/Б, 1840, Щ, 35-50" style="rounded=0;whiteSpace=wrap;html=1;" parent="1" vertex="1">
          <mxGeometry x="400" y="563" width="160" height="40" as="geometry" />
        </mxCell>
        <mxCell id="hME5l4rsfuZXc2bHnHF4-38" value="КБ, Ж/Б, 757, Щ, 35-50" style="rounded=0;whiteSpace=wrap;html=1;" parent="1" vertex="1">
          <mxGeometry x="560" y="563" width="50" height="40" as="geometry" />
        </mxCell>
        <mxCell id="hME5l4rsfuZXc2bHnHF4-39" value="АРС, Ж/Б, 1943, Щ, 35-50" style="rounded=0;whiteSpace=wrap;html=1;" parent="1" vertex="1">
          <mxGeometry x="720" y="563" width="160" height="40" as="geometry" />
        </mxCell>
        <mxCell id="hME5l4rsfuZXc2bHnHF4-40" value="АРС, Ж/Б, 1840, Щ, 35-50" style="rounded=0;whiteSpace=wrap;html=1;" parent="1" vertex="1">
          <mxGeometry x="880" y="563" width="160" height="40" as="geometry" />
        </mxCell>
        <mxCell id="hME5l4rsfuZXc2bHnHF4-41" value="АРС, Ж/Б, 1840, Щ, 35-50" style="rounded=0;whiteSpace=wrap;html=1;" parent="1" vertex="1">
          <mxGeometry x="1040" y="563" width="160" height="40" as="geometry" />
        </mxCell>
        <mxCell id="hME5l4rsfuZXc2bHnHF4-42" value="АРС, Ж/Б, 1840, Щ, 35-50" style="rounded=0;whiteSpace=wrap;html=1;" parent="1" vertex="1">
          <mxGeometry x="1200" y="563" width="160" height="40" as="geometry" />
        </mxCell>
        <mxCell id="hME5l4rsfuZXc2bHnHF4-43" value="АРС, Ж/Б, 1840, Щ, 35-50" style="rounded=0;whiteSpace=wrap;html=1;" parent="1" vertex="1">
          <mxGeometry x="1360" y="563" width="160" height="40" as="geometry" />
        </mxCell>
        <mxCell id="hME5l4rsfuZXc2bHnHF4-44" value="АРС, Ж/Б, 1978, Щ, 35-50" style="rounded=0;whiteSpace=wrap;html=1;" parent="1" vertex="1">
          <mxGeometry x="1520" y="563" width="160" height="40" as="geometry" />
        </mxCell>
        <mxCell id="hME5l4rsfuZXc2bHnHF4-45" value="АРС, Ж/Б, 1886, Щ, 35-50" style="rounded=0;whiteSpace=wrap;html=1;" parent="1" vertex="1">
          <mxGeometry x="1680" y="563" width="160" height="40" as="geometry" />
        </mxCell>
        <mxCell id="hME5l4rsfuZXc2bHnHF4-46" value="АРС, Ж/Б, 1998, Щ, 35-50" style="rounded=0;whiteSpace=wrap;html=1;" parent="1" vertex="1">
          <mxGeometry x="1840" y="563" width="160" height="40" as="geometry" />
        </mxCell>
        <mxCell id="hME5l4rsfuZXc2bHnHF4-47" value="АРС, Ж/Б, 1863, Щ, 35-50" style="rounded=0;whiteSpace=wrap;html=1;" parent="1" vertex="1">
          <mxGeometry x="2000" y="563" width="160" height="40" as="geometry" />
        </mxCell>
        <mxCell id="hME5l4rsfuZXc2bHnHF4-48" value="АРС, Ж/Б, 1840, Щ, 35-50" style="rounded=0;whiteSpace=wrap;html=1;" parent="1" vertex="1">
          <mxGeometry x="2160" y="563" width="160" height="40" as="geometry" />
        </mxCell>
        <mxCell id="hME5l4rsfuZXc2bHnHF4-49" value="АРС, Ж/Б, 1840, Щ, 35-50" style="rounded=0;whiteSpace=wrap;html=1;" parent="1" vertex="1">
          <mxGeometry x="2320" y="563" width="160" height="40" as="geometry" />
        </mxCell>
        <mxCell id="hME5l4rsfuZXc2bHnHF4-50" value="АРС, Ж/Б, 1840, Щ, 35-50" style="rounded=0;whiteSpace=wrap;html=1;" parent="1" vertex="1">
          <mxGeometry x="2480" y="563" width="160" height="40" as="geometry" />
        </mxCell>
        <mxCell id="hME5l4rsfuZXc2bHnHF4-51" value="АРС, Ж/Б, 1840, Щ, 35-50" style="rounded=0;whiteSpace=wrap;html=1;" parent="1" vertex="1">
          <mxGeometry x="2640" y="563" width="160" height="40" as="geometry" />
        </mxCell>
        <mxCell id="hME5l4rsfuZXc2bHnHF4-52" value="АРС, Ж/Б, 1840, Щ, 35-50" style="rounded=0;whiteSpace=wrap;html=1;" parent="1" vertex="1">
          <mxGeometry x="2800" y="563" width="160" height="40" as="geometry" />
        </mxCell>
        <mxCell id="hME5l4rsfuZXc2bHnHF4-53" value="АРС, Ж/Б, 1840, Щ, 35-50" style="rounded=0;whiteSpace=wrap;html=1;" parent="1" vertex="1">
          <mxGeometry x="2960" y="563" width="160" height="40" as="geometry" />
        </mxCell>
        <mxCell id="hME5l4rsfuZXc2bHnHF4-54" value="АРС, Ж/Б, 1840, Щ, 35-50" style="rounded=0;whiteSpace=wrap;html=1;" parent="1" vertex="1">
          <mxGeometry x="3120" y="563" width="160" height="40" as="geometry" />
        </mxCell>
        <mxCell id="hME5l4rsfuZXc2bHnHF4-55" value="АРС, Ж/Б, 1840, Щ, 35-50" style="rounded=0;whiteSpace=wrap;html=1;" parent="1" vertex="1">
          <mxGeometry x="3280" y="563" width="160" height="40" as="geometry" />
        </mxCell>
        <mxCell id="hME5l4rsfuZXc2bHnHF4-56" value="АРС, Ж/Б, 1840, Щ, 35-50" style="rounded=0;whiteSpace=wrap;html=1;" parent="1" vertex="1">
          <mxGeometry x="3440" y="563" width="160" height="40" as="geometry" />
        </mxCell>
        <mxCell id="hME5l4rsfuZXc2bHnHF4-57" value="АРС, Ж/Б, 1982, Щ, 35-50" style="rounded=0;whiteSpace=wrap;html=1;" parent="1" vertex="1">
          <mxGeometry x="3600" y="563" width="160" height="40" as="geometry" />
        </mxCell>
        <mxCell id="hME5l4rsfuZXc2bHnHF4-58" value="АРС, Ж/Б, 1840, Щ, 35-50" style="rounded=0;whiteSpace=wrap;html=1;" parent="1" vertex="1">
          <mxGeometry x="3760" y="563" width="160" height="40" as="geometry" />
        </mxCell>
        <mxCell id="hME5l4rsfuZXc2bHnHF4-59" value="АРС, Ж/Б, 1840, Щ, 35-50" style="rounded=0;whiteSpace=wrap;html=1;" parent="1" vertex="1">
          <mxGeometry x="3920" y="563" width="160" height="40" as="geometry" />
        </mxCell>
        <mxCell id="hME5l4rsfuZXc2bHnHF4-60" value="КБ, Ж/Б, 1509, Щ, 35-50" style="rounded=0;whiteSpace=wrap;html=1;" parent="1" vertex="1">
          <mxGeometry x="4100" y="563" width="140" height="40" as="geometry" />
        </mxCell>
        <mxCell id="hME5l4rsfuZXc2bHnHF4-61" value="КБ, Ж/Б, 1840, Щ, 35-50" style="rounded=0;whiteSpace=wrap;html=1;" parent="1" vertex="1">
          <mxGeometry x="4240" y="563" width="160" height="40" as="geometry" />
        </mxCell>
        <mxCell id="hME5l4rsfuZXc2bHnHF4-62" value="КБ, Ж/Б, 1840, Щ, 35-50" style="rounded=0;whiteSpace=wrap;html=1;" parent="1" vertex="1">
          <mxGeometry x="4400" y="563" width="160" height="40" as="geometry" />
        </mxCell>
        <mxCell id="hME5l4rsfuZXc2bHnHF4-63" value="КБ, Ж/Б, 1840, Щ, 35-50" style="rounded=0;whiteSpace=wrap;html=1;" parent="1" vertex="1">
          <mxGeometry x="4560" y="563" width="160" height="40" as="geometry" />
        </mxCell>
        <mxCell id="hME5l4rsfuZXc2bHnHF4-64" value="КБ, Ж/Б, 1840, Щ, 35-50" style="rounded=0;whiteSpace=wrap;html=1;" parent="1" vertex="1">
          <mxGeometry x="4720" y="563" width="160" height="40" as="geometry" />
        </mxCell>
        <mxCell id="hME5l4rsfuZXc2bHnHF4-65" value="КБ, Ж/Б, 1919, Щ, 35-50" style="rounded=0;whiteSpace=wrap;html=1;" parent="1" vertex="1">
          <mxGeometry x="4880" y="563" width="160" height="40" as="geometry" />
        </mxCell>
        <mxCell id="hME5l4rsfuZXc2bHnHF4-66" value="КБ, Ж/Б, 1881, Щ, 35-50" style="rounded=0;whiteSpace=wrap;html=1;" parent="1" vertex="1">
          <mxGeometry x="5040" y="563" width="160" height="40" as="geometry" />
        </mxCell>
        <mxCell id="hME5l4rsfuZXc2bHnHF4-67" value="КБ, Ж/Б, 1840, Щ, 35-50" style="rounded=0;whiteSpace=wrap;html=1;" parent="1" vertex="1">
          <mxGeometry x="5200" y="563" width="160" height="40" as="geometry" />
        </mxCell>
        <mxCell id="hME5l4rsfuZXc2bHnHF4-68" value="КБ, Ж/Б, 1840, Щ, 35-50" style="rounded=0;whiteSpace=wrap;html=1;" parent="1" vertex="1">
          <mxGeometry x="5360" y="563" width="160" height="40" as="geometry" />
        </mxCell>
        <mxCell id="hME5l4rsfuZXc2bHnHF4-69" value="КБ, Ж/Б, 1840, Щ, 35-50" style="rounded=0;whiteSpace=wrap;html=1;" parent="1" vertex="1">
          <mxGeometry x="5520" y="563" width="160" height="40" as="geometry" />
        </mxCell>
        <mxCell id="hME5l4rsfuZXc2bHnHF4-70" value="КБ, Ж/Б, 1840, Щ, 35-50" style="rounded=0;whiteSpace=wrap;html=1;" parent="1" vertex="1">
          <mxGeometry x="5680" y="563" width="160" height="40" as="geometry" />
        </mxCell>
        <mxCell id="hME5l4rsfuZXc2bHnHF4-71" value="КБ, Ж/Б, 1840, Щ, 35-50" style="rounded=0;whiteSpace=wrap;html=1;" parent="1" vertex="1">
          <mxGeometry x="5840" y="563" width="160" height="40" as="geometry" />
        </mxCell>
        <mxCell id="hME5l4rsfuZXc2bHnHF4-72" value="КБ, Ж/Б, 1840, Щ, 35-50" style="rounded=0;whiteSpace=wrap;html=1;" parent="1" vertex="1">
          <mxGeometry x="6000" y="563" width="160" height="40" as="geometry" />
        </mxCell>
        <mxCell id="hME5l4rsfuZXc2bHnHF4-73" value="КБ, Ж/Б, 1840, Щ, 35-50" style="rounded=0;whiteSpace=wrap;html=1;" parent="1" vertex="1">
          <mxGeometry x="6160" y="563" width="160" height="40" as="geometry" />
        </mxCell>
        <mxCell id="hME5l4rsfuZXc2bHnHF4-74" value="КБ, Ж/Б, 1840, Щ, 35-50" style="rounded=0;whiteSpace=wrap;html=1;" parent="1" vertex="1">
          <mxGeometry x="6320" y="563" width="160" height="40" as="geometry" />
        </mxCell>
        <mxCell id="hME5l4rsfuZXc2bHnHF4-75" value="КБ, Ж/Б, 1840, Щ, 35-50" style="rounded=0;whiteSpace=wrap;html=1;" parent="1" vertex="1">
          <mxGeometry x="6480" y="563" width="160" height="40" as="geometry" />
        </mxCell>
        <mxCell id="hME5l4rsfuZXc2bHnHF4-76" value="КБ, Ж/Б, 1840, Щ, 35-50" style="rounded=0;whiteSpace=wrap;html=1;" parent="1" vertex="1">
          <mxGeometry x="6640" y="563" width="160" height="40" as="geometry" />
        </mxCell>
        <mxCell id="hME5l4rsfuZXc2bHnHF4-77" value="Р65, б/с, В(ОТ370ИК), Т1, К,&amp;nbsp; июль-2018" style="rounded=0;whiteSpace=wrap;html=1;" parent="1" vertex="1">
          <mxGeometry x="240" y="523" width="150" height="40" as="geometry" />
        </mxCell>
        <mxCell id="hME5l4rsfuZXc2bHnHF4-78" value="" style="rounded=0;whiteSpace=wrap;html=1;" parent="1" vertex="1">
          <mxGeometry x="390" y="523" width="10" height="40" as="geometry" />
        </mxCell>
        <mxCell id="hME5l4rsfuZXc2bHnHF4-79" value="Р65, б/с, В(ОТ370ИК), Т1, К,&amp;nbsp; июль-2018" style="rounded=0;whiteSpace=wrap;html=1;" parent="1" vertex="1">
          <mxGeometry x="400" y="523" width="200" height="40" as="geometry" />
        </mxCell>
        <mxCell id="hME5l4rsfuZXc2bHnHF4-80" value="" style="rounded=0;whiteSpace=wrap;html=1;" parent="1" vertex="1">
          <mxGeometry x="600" y="523" width="10" height="40" as="geometry" />
        </mxCell>
        <mxCell id="hME5l4rsfuZXc2bHnHF4-81" value="Р65, б/с, В(ОТ370ИК), ДТ, К,&amp;nbsp; сентябрь-2021&lt;span style=&quot;&quot;&gt;&lt;span style=&quot;&quot;&gt;&amp;nbsp;&amp;nbsp;&amp;nbsp;&amp;nbsp;&lt;/span&gt;&lt;/span&gt;&lt;span style=&quot;&quot;&gt;&lt;span style=&quot;&quot;&gt;&amp;nbsp;&amp;nbsp;&amp;nbsp;&amp;nbsp;&lt;/span&gt;&lt;/span&gt;&lt;span style=&quot;&quot;&gt;&lt;span style=&quot;&quot;&gt;&amp;nbsp;&amp;nbsp;&amp;nbsp;&amp;nbsp;&lt;/span&gt;&lt;/span&gt;&lt;span style=&quot;&quot;&gt;&lt;span style=&quot;&quot;&gt;&amp;nbsp;&amp;nbsp;&amp;nbsp;&amp;nbsp;&lt;/span&gt;&lt;/span&gt;&lt;span style=&quot;&quot;&gt;&lt;span style=&quot;&quot;&gt;&amp;nbsp;&amp;nbsp;&amp;nbsp;&amp;nbsp;&lt;/span&gt;&lt;/span&gt;&lt;span style=&quot;&quot;&gt;&lt;span style=&quot;&quot;&gt;&amp;nbsp;&amp;nbsp;&amp;nbsp;&amp;nbsp;&lt;/span&gt;&lt;/span&gt;&lt;span style=&quot;&quot;&gt;&lt;span style=&quot;&quot;&gt;&amp;nbsp;&amp;nbsp;&lt;span style=&quot;white-space: pre;&quot;&gt;&#x9;&lt;/span&gt;&lt;span style=&quot;white-space: pre;&quot;&gt;&#x9;&lt;/span&gt;&lt;span style=&quot;white-space: pre;&quot;&gt;&#x9;&lt;/span&gt;&lt;span style=&quot;white-space: pre;&quot;&gt;&#x9;&lt;/span&gt;&amp;nbsp;&amp;nbsp;&lt;/span&gt;&lt;/span&gt;&lt;span style=&quot;&quot;&gt;&lt;span style=&quot;&quot;&gt;&amp;nbsp;&amp;nbsp;&amp;nbsp;&amp;nbsp;&lt;/span&gt;&lt;/span&gt;&lt;span style=&quot;&quot;&gt;&lt;span style=&quot;&quot;&gt;&amp;nbsp;&amp;nbsp;&amp;nbsp;&amp;nbsp;&lt;/span&gt;&lt;/span&gt;&lt;span style=&quot;&quot;&gt;&lt;span style=&quot;&quot;&gt;&amp;nbsp;&amp;nbsp;&amp;nbsp;&amp;nbsp;&lt;/span&gt;&lt;/span&gt;&lt;span style=&quot;&quot;&gt;&lt;span style=&quot;&quot;&gt;&amp;nbsp;&amp;nbsp;&amp;nbsp;&amp;nbsp;&lt;/span&gt;&lt;/span&gt;Р65, б/с, В(ОТ370ИК), ДТ, К,&amp;nbsp; сентябрь-2021&lt;span style=&quot;&quot;&gt;&lt;span style=&quot;white-space: pre;&quot;&gt;&amp;nbsp;&amp;nbsp;&amp;nbsp;&amp;nbsp;&lt;/span&gt;&lt;/span&gt;&lt;span style=&quot;&quot;&gt;&lt;span style=&quot;white-space: pre;&quot;&gt;&amp;nbsp;&amp;nbsp;&amp;nbsp;&amp;nbsp;&lt;/span&gt;&lt;/span&gt;&lt;span style=&quot;&quot;&gt;&lt;span style=&quot;white-space: pre;&quot;&gt;&amp;nbsp;&amp;nbsp;&amp;nbsp;&amp;nbsp;&lt;/span&gt;&lt;/span&gt;&lt;span style=&quot;&quot;&gt;&lt;span style=&quot;white-space: pre;&quot;&gt;&amp;nbsp;&amp;nbsp;&amp;nbsp;&amp;nbsp;&lt;/span&gt;&lt;/span&gt;&lt;span style=&quot;&quot;&gt;&lt;span style=&quot;white-space: pre;&quot;&gt;&amp;nbsp;&amp;nbsp;&amp;nbsp;&amp;nbsp;&lt;span style=&quot;white-space: pre;&quot;&gt;&#x9;&lt;/span&gt;&lt;span style=&quot;white-space: pre;&quot;&gt;&#x9;&lt;/span&gt;&lt;span style=&quot;white-space: pre;&quot;&gt;&#x9;&lt;/span&gt;&lt;span style=&quot;white-space: pre;&quot;&gt;&#x9;&lt;/span&gt;&lt;/span&gt;&lt;/span&gt;&lt;span style=&quot;&quot;&gt;&lt;span style=&quot;white-space: pre;&quot;&gt;&amp;nbsp;&amp;nbsp;&amp;nbsp;&amp;nbsp;&lt;/span&gt;&lt;/span&gt;&lt;span style=&quot;&quot;&gt;&lt;span style=&quot;white-space: pre;&quot;&gt;&amp;nbsp;&amp;nbsp;&amp;nbsp;&amp;nbsp;&lt;/span&gt;&lt;/span&gt;&lt;span style=&quot;&quot;&gt;&lt;span style=&quot;white-space: pre;&quot;&gt;&amp;nbsp;&amp;nbsp;&amp;nbsp;&amp;nbsp;&lt;/span&gt;&lt;/span&gt;&lt;span style=&quot;&quot;&gt;&lt;span style=&quot;white-space: pre;&quot;&gt;&amp;nbsp;&amp;nbsp;&amp;nbsp;&amp;nbsp;&lt;/span&gt;&lt;/span&gt;&lt;span style=&quot;&quot;&gt;&lt;span style=&quot;white-space: pre;&quot;&gt;&amp;nbsp;&amp;nbsp;&amp;nbsp;&amp;nbsp;&lt;/span&gt;&lt;/span&gt;Р65, б/с, В(ОТ370ИК), ДТ, К,&amp;nbsp; сентябрь-2021" style="rounded=0;whiteSpace=wrap;html=1;" parent="1" vertex="1">
          <mxGeometry x="610" y="523" width="3300" height="40" as="geometry" />
        </mxCell>
        <mxCell id="hME5l4rsfuZXc2bHnHF4-83" value="" style="rounded=0;whiteSpace=wrap;html=1;" parent="1" vertex="1">
          <mxGeometry x="3910" y="523" width="10" height="40" as="geometry" />
        </mxCell>
        <mxCell id="hME5l4rsfuZXc2bHnHF4-84" value="Р65, б/с, В(ОТ370ИК), Т1, К,&amp;nbsp; сентябрь-2021" style="rounded=0;whiteSpace=wrap;html=1;" parent="1" vertex="1">
          <mxGeometry x="3920" y="523" width="170" height="40" as="geometry" />
        </mxCell>
        <mxCell id="hME5l4rsfuZXc2bHnHF4-85" value="" style="rounded=0;whiteSpace=wrap;html=1;" parent="1" vertex="1">
          <mxGeometry x="4090" y="523" width="10" height="40" as="geometry" />
        </mxCell>
        <mxCell id="hME5l4rsfuZXc2bHnHF4-86" value="Р65, б/с, В(ОТ350СС), Т1, Т,&amp;nbsp; март-2015&lt;span style=&quot;&quot;&gt;&lt;span style=&quot;&quot;&gt;&amp;nbsp; &amp;nbsp;&amp;nbsp;&lt;/span&gt;&lt;/span&gt;&lt;span style=&quot;&quot;&gt;&lt;span style=&quot;&quot;&gt;&amp;nbsp;&amp;nbsp;&amp;nbsp;&amp;nbsp;&lt;/span&gt;&lt;/span&gt;&lt;span style=&quot;&quot;&gt;&lt;span style=&quot;&quot;&gt;&amp;nbsp;&amp;nbsp;&amp;nbsp;&amp;nbsp;&lt;/span&gt;&lt;/span&gt;&lt;span style=&quot;&quot;&gt;&lt;span style=&quot;&quot;&gt;&amp;nbsp;&amp;nbsp;&amp;nbsp;&amp;nbsp;&lt;/span&gt;&lt;/span&gt;&lt;span style=&quot;&quot;&gt;&lt;span style=&quot;&quot;&gt;&amp;nbsp;&amp;nbsp;&amp;nbsp;&amp;nbsp;&lt;/span&gt;&lt;/span&gt;&lt;span style=&quot;&quot;&gt;&lt;span style=&quot;&quot;&gt;&amp;nbsp;&amp;nbsp;&amp;nbsp;&amp;nbsp;&lt;/span&gt;&lt;/span&gt;&lt;span style=&quot;&quot;&gt;&lt;span style=&quot;&quot;&gt;&amp;nbsp;&amp;nbsp;&lt;span style=&quot;white-space: pre;&quot;&gt;&#x9;&lt;/span&gt;&lt;span style=&quot;white-space: pre;&quot;&gt;&#x9;&lt;/span&gt;&lt;span style=&quot;white-space: pre;&quot;&gt;&#x9;&lt;/span&gt;&lt;span style=&quot;white-space: pre;&quot;&gt;&#x9;&lt;/span&gt;&amp;nbsp;&amp;nbsp;&lt;/span&gt;&lt;/span&gt;&lt;span style=&quot;&quot;&gt;&lt;span style=&quot;&quot;&gt;&amp;nbsp;&amp;nbsp;&amp;nbsp;&amp;nbsp;&lt;/span&gt;&lt;/span&gt;&lt;span style=&quot;&quot;&gt;&lt;span style=&quot;&quot;&gt;&amp;nbsp;&amp;nbsp;&amp;nbsp;&amp;nbsp;&lt;/span&gt;&lt;/span&gt;&lt;span style=&quot;&quot;&gt;&lt;span style=&quot;&quot;&gt;&amp;nbsp;&amp;nbsp;&amp;nbsp;&amp;nbsp;&lt;/span&gt;&lt;/span&gt;&lt;span style=&quot;&quot;&gt;&lt;span style=&quot;&quot;&gt;&amp;nbsp;&amp;nbsp;&amp;nbsp;&amp;nbsp;&lt;/span&gt;&lt;/span&gt;Р65, б/с, В(ОТ350СС), Т1, Т,&amp;nbsp; март-2015&lt;span style=&quot;&quot;&gt;&lt;span style=&quot;white-space: pre;&quot;&gt;&amp;nbsp;&amp;nbsp;&amp;nbsp;&amp;nbsp;&lt;/span&gt;&lt;/span&gt;&lt;span style=&quot;&quot;&gt;&lt;span style=&quot;white-space: pre;&quot;&gt;&amp;nbsp;&amp;nbsp;&amp;nbsp;&amp;nbsp;&lt;/span&gt;&lt;/span&gt;&lt;span style=&quot;&quot;&gt;&lt;span style=&quot;white-space: pre;&quot;&gt;&amp;nbsp;&amp;nbsp;&amp;nbsp;&amp;nbsp;&lt;/span&gt;&lt;/span&gt;&lt;span style=&quot;&quot;&gt;&lt;span style=&quot;white-space: pre;&quot;&gt;&amp;nbsp;&amp;nbsp;&amp;nbsp;&amp;nbsp;&lt;/span&gt;&lt;/span&gt;&lt;span style=&quot;&quot;&gt;&lt;span style=&quot;white-space: pre;&quot;&gt;&amp;nbsp;&amp;nbsp;&amp;nbsp;&amp;nbsp;&lt;span style=&quot;white-space: pre;&quot;&gt;&#x9;&lt;/span&gt;&lt;span style=&quot;white-space: pre;&quot;&gt;&#x9;&lt;/span&gt;&lt;span style=&quot;white-space: pre;&quot;&gt;&#x9;&lt;/span&gt;&lt;span style=&quot;white-space: pre;&quot;&gt;&#x9;&lt;/span&gt;&lt;/span&gt;&lt;/span&gt;&lt;span style=&quot;&quot;&gt;&lt;span style=&quot;white-space: pre;&quot;&gt;&amp;nbsp;&amp;nbsp;&amp;nbsp;&amp;nbsp;&lt;/span&gt;&lt;/span&gt;&lt;span style=&quot;&quot;&gt;&lt;span style=&quot;white-space: pre;&quot;&gt;&amp;nbsp;&amp;nbsp;&amp;nbsp;&amp;nbsp;&lt;/span&gt;&lt;/span&gt;&lt;span style=&quot;&quot;&gt;&lt;span style=&quot;white-space: pre;&quot;&gt;&amp;nbsp;&amp;nbsp;&amp;nbsp;&amp;nbsp;&lt;/span&gt;&lt;/span&gt;&lt;span style=&quot;&quot;&gt;&lt;span style=&quot;white-space: pre;&quot;&gt;&amp;nbsp;&amp;nbsp;&amp;nbsp;&amp;nbsp;&lt;/span&gt;&lt;/span&gt;&lt;span style=&quot;&quot;&gt;&lt;span style=&quot;white-space: pre;&quot;&gt;&amp;nbsp;&amp;nbsp;&amp;nbsp;&amp;nbsp;&lt;/span&gt;&lt;/span&gt;Р65, б/с, В(ОТ350СС), Т1, Т,&amp;nbsp; март-2015" style="rounded=0;whiteSpace=wrap;html=1;" parent="1" vertex="1">
          <mxGeometry x="4100" y="523" width="2700" height="40" as="geometry" />
        </mxCell>
        <mxCell id="hME5l4rsfuZXc2bHnHF4-87" value="АРС, Ж/Б, 1154, Щ, 35-50" style="rounded=0;whiteSpace=wrap;html=1;" parent="1" vertex="1">
          <mxGeometry x="610" y="563" width="110" height="40" as="geometry" />
        </mxCell>
        <mxCell id="hME5l4rsfuZXc2bHnHF4-89" value="" style="rounded=0;whiteSpace=wrap;html=1;" parent="1" vertex="1">
          <mxGeometry x="4080" y="563" width="10" height="40" as="geometry" />
        </mxCell>
        <mxCell id="hME5l4rsfuZXc2bHnHF4-90" value="" style="rounded=0;whiteSpace=wrap;html=1;" parent="1" vertex="1">
          <mxGeometry x="4090" y="563" width="10" height="40" as="geometry" />
        </mxCell>
        <mxCell id="hME5l4rsfuZXc2bHnHF4-91" value="КрН июль-2018" style="rounded=0;whiteSpace=wrap;html=1;" parent="1" vertex="1">
          <mxGeometry x="240" y="603" width="370" height="21" as="geometry" />
        </mxCell>
        <mxCell id="hME5l4rsfuZXc2bHnHF4-92" value="ППВ август-2022" style="rounded=0;whiteSpace=wrap;html=1;" parent="1" vertex="1">
          <mxGeometry x="240" y="623" width="370" height="20" as="geometry" />
        </mxCell>
        <mxCell id="hME5l4rsfuZXc2bHnHF4-93" value="Реконструкция май-2012&lt;span style=&quot;&quot;&gt;&lt;span style=&quot;&quot;&gt;&amp;nbsp;&amp;nbsp;&amp;nbsp;&amp;nbsp;&lt;/span&gt;&lt;/span&gt;&lt;span style=&quot;&quot;&gt;&lt;span style=&quot;&quot;&gt;&amp;nbsp;&amp;nbsp;&lt;span style=&quot;white-space: pre;&quot;&gt;&#x9;&lt;/span&gt;&lt;span style=&quot;white-space: pre;&quot;&gt;&#x9;&lt;/span&gt;&lt;span style=&quot;white-space: pre;&quot;&gt;&#x9;&lt;/span&gt;&lt;span style=&quot;white-space: pre;&quot;&gt;&#x9;&lt;/span&gt;&lt;span style=&quot;white-space: pre;&quot;&gt;&#x9;&lt;/span&gt;&lt;span style=&quot;white-space: pre;&quot;&gt;&#x9;&lt;/span&gt;&lt;span style=&quot;white-space: pre;&quot;&gt;&#x9;&lt;/span&gt;&amp;nbsp;&amp;nbsp;&lt;/span&gt;&lt;/span&gt;&lt;span style=&quot;&quot;&gt;&lt;span style=&quot;&quot;&gt;&amp;nbsp;&amp;nbsp;&amp;nbsp;&amp;nbsp;&lt;/span&gt;&lt;/span&gt;&lt;span style=&quot;&quot;&gt;&lt;span style=&quot;&quot;&gt;&amp;nbsp;&amp;nbsp;&amp;nbsp;&lt;span style=&quot;white-space: pre;&quot;&gt;&#x9;&lt;/span&gt;&lt;span style=&quot;white-space: pre;&quot;&gt;&#x9;&lt;/span&gt;&lt;span style=&quot;white-space: pre;&quot;&gt;&#x9;&lt;/span&gt;&lt;span style=&quot;white-space: pre;&quot;&gt;&#x9;&lt;/span&gt;&amp;nbsp;&lt;/span&gt;&lt;/span&gt;&lt;span style=&quot;&quot;&gt;&lt;span style=&quot;&quot;&gt;&amp;nbsp;&lt;span style=&quot;white-space: pre;&quot;&gt;&#x9;&lt;/span&gt;&lt;span style=&quot;white-space: pre;&quot;&gt;&#x9;&lt;/span&gt;&amp;nbsp;&amp;nbsp;&amp;nbsp;&lt;/span&gt;&lt;/span&gt;&lt;span style=&quot;&quot;&gt;&lt;span style=&quot;&quot;&gt;&amp;nbsp;&amp;nbsp;&amp;nbsp;&amp;nbsp;&lt;/span&gt;&lt;/span&gt;&lt;span style=&quot;&quot;&gt;&lt;span style=&quot;&quot;&gt;&amp;nbsp;&amp;nbsp;&amp;nbsp;&amp;nbsp;&lt;/span&gt;&lt;/span&gt;Реконструкция май-2012&lt;span style=&quot;&quot;&gt;&lt;span style=&quot;white-space: pre;&quot;&gt;&amp;nbsp;&amp;nbsp;&amp;nbsp;&amp;nbsp;&lt;/span&gt;&lt;/span&gt;&lt;span style=&quot;&quot;&gt;&lt;span style=&quot;white-space: pre;&quot;&gt;&amp;nbsp;&amp;nbsp;&amp;nbsp;&amp;nbsp;&lt;/span&gt;&lt;/span&gt;&lt;span style=&quot;&quot;&gt;&lt;span style=&quot;white-space: pre;&quot;&gt;&amp;nbsp;&lt;span style=&quot;white-space: pre;&quot;&gt;&#x9;&lt;/span&gt;&lt;span style=&quot;white-space: pre;&quot;&gt;&#x9;&lt;/span&gt;&amp;nbsp;&amp;nbsp;&lt;span style=&quot;white-space: pre;&quot;&gt;&#x9;&lt;span style=&quot;white-space: pre;&quot;&gt;&#x9;&lt;/span&gt;&lt;span style=&quot;white-space: pre;&quot;&gt;&#x9;&lt;/span&gt;&lt;span style=&quot;white-space: pre;&quot;&gt;&#x9;&lt;/span&gt;&lt;span style=&quot;white-space: pre;&quot;&gt;&#x9;&lt;/span&gt;&lt;/span&gt;&lt;span style=&quot;white-space: pre;&quot;&gt;&#x9;&lt;/span&gt;&lt;span style=&quot;white-space: pre;&quot;&gt;&#x9;&lt;/span&gt;&lt;span style=&quot;white-space: pre;&quot;&gt;&#x9;&lt;/span&gt;&lt;span style=&quot;white-space: pre;&quot;&gt;&#x9;&lt;/span&gt;&lt;span style=&quot;white-space: pre;&quot;&gt;&#x9;&lt;/span&gt;&lt;span style=&quot;white-space: pre;&quot;&gt;&#x9;&lt;/span&gt;&amp;nbsp;&lt;/span&gt;&lt;/span&gt;&lt;span style=&quot;&quot;&gt;&lt;span style=&quot;white-space: pre;&quot;&gt;&amp;nbsp;&amp;nbsp;&amp;nbsp;&amp;nbsp;&lt;/span&gt;&lt;/span&gt;&lt;span style=&quot;&quot;&gt;&lt;span style=&quot;white-space: pre;&quot;&gt;&amp;nbsp;&amp;nbsp;&amp;nbsp;&amp;nbsp;&lt;/span&gt;&lt;/span&gt;&lt;span style=&quot;&quot;&gt;&lt;span style=&quot;white-space: pre;&quot;&gt;&amp;nbsp;&amp;nbsp;&amp;nbsp;&amp;nbsp;&lt;/span&gt;&lt;/span&gt;&lt;span style=&quot;&quot;&gt;&lt;span style=&quot;white-space: pre;&quot;&gt;&amp;nbsp;&amp;nbsp;&amp;nbsp;&amp;nbsp;&lt;/span&gt;&lt;/span&gt;Реконструкция май-2012" style="rounded=0;whiteSpace=wrap;html=1;" parent="1" vertex="1">
          <mxGeometry x="610" y="603" width="3490" height="21" as="geometry" />
        </mxCell>
        <mxCell id="hME5l4rsfuZXc2bHnHF4-94" value="РИС сентябрь-2021&lt;span style=&quot;&quot;&gt;&lt;span style=&quot;&quot;&gt;&amp;nbsp;&amp;nbsp;&amp;nbsp;&amp;nbsp;&lt;/span&gt;&lt;/span&gt;&lt;span style=&quot;&quot;&gt;&lt;span style=&quot;&quot;&gt;&amp;nbsp;&amp;nbsp;&amp;nbsp;&amp;nbsp;&lt;/span&gt;&lt;/span&gt;&lt;span style=&quot;&quot;&gt;&lt;span style=&quot;&quot;&gt;&amp;nbsp;&amp;nbsp;&amp;nbsp;&amp;nbsp;&lt;/span&gt;&lt;/span&gt;&lt;span style=&quot;&quot;&gt;&lt;span style=&quot;&quot;&gt;&amp;nbsp;&amp;nbsp;&amp;nbsp;&amp;nbsp;&lt;/span&gt;&lt;/span&gt;&lt;span style=&quot;&quot;&gt;&lt;span style=&quot;&quot;&gt;&amp;nbsp;&amp;nbsp;&amp;nbsp;&amp;nbsp;&lt;/span&gt;&lt;/span&gt;&lt;span style=&quot;&quot;&gt;&lt;span style=&quot;&quot;&gt;&amp;nbsp;&amp;nbsp;&amp;nbsp;&amp;nbsp;&lt;/span&gt;&lt;/span&gt;&lt;span style=&quot;&quot;&gt;&lt;span style=&quot;&quot;&gt;&amp;nbsp;&amp;nbsp;&amp;nbsp;&lt;span style=&quot;white-space: pre;&quot;&gt;&#x9;&lt;/span&gt;&lt;span style=&quot;white-space: pre;&quot;&gt;&#x9;&lt;/span&gt;&lt;span style=&quot;white-space: pre;&quot;&gt;&#x9;&lt;/span&gt;&lt;span style=&quot;white-space: pre;&quot;&gt;&#x9;&lt;/span&gt;&lt;span style=&quot;white-space: pre;&quot;&gt;&#x9;&lt;/span&gt;&lt;span style=&quot;white-space: pre;&quot;&gt;&#x9;&lt;/span&gt;&lt;span style=&quot;white-space: pre;&quot;&gt;&#x9;&lt;/span&gt;&lt;span style=&quot;white-space: pre;&quot;&gt;&#x9;&lt;span style=&quot;white-space: pre;&quot;&gt;&#x9;&lt;/span&gt;&lt;/span&gt;&lt;span style=&quot;white-space: pre;&quot;&gt;&#x9;&lt;/span&gt;&lt;span style=&quot;white-space: pre;&quot;&gt;&#x9;&lt;/span&gt;&lt;span style=&quot;white-space: pre;&quot;&gt;&#x9;&lt;/span&gt;&amp;nbsp;&lt;/span&gt;&lt;/span&gt;&lt;span style=&quot;&quot;&gt;&lt;span style=&quot;&quot;&gt;&amp;nbsp;&amp;nbsp;&amp;nbsp;&amp;nbsp;&lt;/span&gt;&lt;/span&gt;&lt;span style=&quot;&quot;&gt;&lt;span style=&quot;&quot;&gt;&amp;nbsp;&amp;nbsp;&amp;nbsp;&amp;nbsp;&lt;/span&gt;&lt;/span&gt;&lt;span style=&quot;&quot;&gt;&lt;span style=&quot;&quot;&gt;&amp;nbsp;&amp;nbsp;&amp;nbsp;&amp;nbsp;&lt;/span&gt;&lt;/span&gt;РИС сентябрь-2021&lt;span style=&quot;&quot;&gt;&lt;span style=&quot;white-space: pre;&quot;&gt;&amp;nbsp;&amp;nbsp;&amp;nbsp;&amp;nbsp;&lt;/span&gt;&lt;/span&gt;&lt;span style=&quot;&quot;&gt;&lt;span style=&quot;white-space: pre;&quot;&gt;&amp;nbsp;&amp;nbsp;&amp;nbsp;&amp;nbsp;&lt;/span&gt;&lt;/span&gt;&lt;span style=&quot;&quot;&gt;&lt;span style=&quot;white-space: pre;&quot;&gt;&amp;nbsp;&amp;nbsp;&amp;nbsp;&amp;nbsp;&lt;/span&gt;&lt;/span&gt;&lt;span style=&quot;&quot;&gt;&lt;span style=&quot;white-space: pre;&quot;&gt;&amp;nbsp;&lt;span style=&quot;white-space: pre;&quot;&gt;&#x9;&lt;span style=&quot;white-space: pre;&quot;&gt;&#x9;&lt;/span&gt;&lt;span style=&quot;white-space: pre;&quot;&gt;&#x9;&lt;/span&gt;&lt;span style=&quot;white-space: pre;&quot;&gt;&#x9;&lt;/span&gt;&lt;span style=&quot;white-space: pre;&quot;&gt;&#x9;&lt;/span&gt;&lt;span style=&quot;white-space: pre;&quot;&gt;&#x9;&lt;/span&gt;&lt;span style=&quot;white-space: pre;&quot;&gt;&#x9;&lt;/span&gt;&lt;span style=&quot;white-space: pre;&quot;&gt;&#x9;&lt;/span&gt;&lt;span style=&quot;white-space: pre;&quot;&gt;&#x9;&lt;/span&gt;&lt;span style=&quot;white-space: pre;&quot;&gt;&#x9;&lt;/span&gt;&lt;span style=&quot;white-space: pre;&quot;&gt;&#x9;&lt;/span&gt;&lt;span style=&quot;white-space: pre;&quot;&gt;&#x9;&lt;/span&gt;&lt;/span&gt;&lt;span style=&quot;white-space: pre;&quot;&gt;&#x9;&lt;/span&gt;&lt;span style=&quot;white-space: pre;&quot;&gt;&#x9;&lt;/span&gt;&lt;span style=&quot;white-space: pre;&quot;&gt;&#x9;&lt;/span&gt;&amp;nbsp;&amp;nbsp;&amp;nbsp;&lt;/span&gt;&lt;/span&gt;&lt;span style=&quot;&quot;&gt;&lt;span style=&quot;white-space: pre;&quot;&gt;&amp;nbsp;&amp;nbsp;&amp;nbsp;&amp;nbsp;&lt;/span&gt;&lt;/span&gt;РИС сентябрь-2021" style="rounded=0;whiteSpace=wrap;html=1;" parent="1" vertex="1">
          <mxGeometry x="610" y="623" width="3490" height="20" as="geometry" />
        </mxCell>
        <mxCell id="hME5l4rsfuZXc2bHnHF4-95" value="&lt;span style=&quot;&quot;&gt;&lt;span style=&quot;&quot;&gt;Усил. Кн март-2015&amp;nbsp; &amp;nbsp;&lt;/span&gt;&lt;/span&gt;&lt;span style=&quot;&quot;&gt;&lt;span style=&quot;&quot;&gt;&amp;nbsp;&amp;nbsp;&lt;span style=&quot;&quot;&gt;&lt;span style=&quot;&quot;&gt;&amp;nbsp;&amp;nbsp;&amp;nbsp;&amp;nbsp;&lt;/span&gt;&lt;/span&gt;&lt;span style=&quot;&quot;&gt;&lt;span style=&quot;&quot;&gt;&amp;nbsp;&amp;nbsp;&amp;nbsp;&amp;nbsp;&lt;/span&gt;&lt;/span&gt;&lt;span style=&quot;&quot;&gt;&lt;span style=&quot;&quot;&gt;&amp;nbsp;&amp;nbsp;&amp;nbsp;&amp;nbsp;&lt;/span&gt;&lt;/span&gt;&lt;span style=&quot;&quot;&gt;&lt;span style=&quot;&quot;&gt;&amp;nbsp;&amp;nbsp;&amp;nbsp;&amp;nbsp;&lt;/span&gt;&lt;/span&gt;&lt;span style=&quot;&quot;&gt;&lt;span style=&quot;&quot;&gt;&amp;nbsp;&amp;nbsp;&amp;nbsp;&amp;nbsp;&lt;/span&gt;&lt;/span&gt;&lt;span style=&quot;&quot;&gt;&lt;span style=&quot;&quot;&gt;&amp;nbsp;&amp;nbsp;&amp;nbsp;&amp;nbsp;&lt;/span&gt;&lt;/span&gt;&lt;span style=&quot;&quot;&gt;&lt;span style=&quot;&quot;&gt;&amp;nbsp;&amp;nbsp;&amp;nbsp;&amp;nbsp;&lt;/span&gt;&lt;/span&gt;&amp;nbsp;&amp;nbsp;&lt;/span&gt;&lt;/span&gt;&lt;span style=&quot;&quot;&gt;&lt;span style=&quot;&quot;&gt;&amp;nbsp;&amp;nbsp;&amp;nbsp;&amp;nbsp;&lt;/span&gt;&lt;/span&gt;&lt;span style=&quot;&quot;&gt;&lt;span style=&quot;&quot;&gt;&amp;nbsp;&amp;nbsp;&amp;nbsp;&lt;span style=&quot;&quot;&gt;&lt;span style=&quot;&quot;&gt;&amp;nbsp;&amp;nbsp;&amp;nbsp;&amp;nbsp;&lt;/span&gt;&lt;/span&gt;&lt;span style=&quot;&quot;&gt;&lt;span style=&quot;&quot;&gt;&amp;nbsp;&amp;nbsp;&lt;span style=&quot;white-space: pre;&quot;&gt;&#x9;&lt;/span&gt;&lt;span style=&quot;white-space: pre;&quot;&gt;&#x9;&lt;/span&gt;&lt;span style=&quot;white-space: pre;&quot;&gt;&#x9;&lt;/span&gt;&amp;nbsp;&amp;nbsp;&lt;/span&gt;&lt;/span&gt;&lt;span style=&quot;&quot;&gt;&lt;span style=&quot;&quot;&gt;&amp;nbsp;&amp;nbsp;&amp;nbsp;&amp;nbsp;&lt;/span&gt;&lt;/span&gt;&lt;span style=&quot;&quot;&gt;&lt;span style=&quot;&quot;&gt;&amp;nbsp;&lt;span style=&quot;white-space: pre;&quot;&gt;&#x9;&lt;/span&gt;&lt;span style=&quot;white-space: pre;&quot;&gt;&#x9;&lt;span style=&quot;white-space: pre;&quot;&gt;&#x9;&lt;/span&gt;&lt;/span&gt;&lt;span style=&quot;white-space: pre;&quot;&gt;&#x9;&lt;/span&gt;&lt;span style=&quot;white-space: pre;&quot;&gt;&#x9;&lt;/span&gt;&amp;nbsp;&amp;nbsp;&amp;nbsp;&lt;/span&gt;&lt;/span&gt;&amp;nbsp;&lt;/span&gt;&lt;/span&gt;&lt;span style=&quot;&quot;&gt;&lt;span style=&quot;&quot;&gt;&amp;nbsp;&lt;span style=&quot;&quot;&gt;&lt;span style=&quot;&quot;&gt;&amp;nbsp;&amp;nbsp;&amp;nbsp;&amp;nbsp;&lt;/span&gt;&lt;/span&gt;&lt;span style=&quot;&quot;&gt;&lt;span style=&quot;&quot;&gt;&amp;nbsp;&amp;nbsp;&amp;nbsp;&amp;nbsp;&lt;/span&gt;&lt;/span&gt;&amp;nbsp;&amp;nbsp;&amp;nbsp;&lt;/span&gt;&lt;/span&gt;&lt;span style=&quot;&quot;&gt;&lt;span style=&quot;&quot;&gt;&amp;nbsp;&amp;nbsp;&amp;nbsp;&amp;nbsp;&lt;/span&gt;&lt;/span&gt;&lt;span style=&quot;&quot;&gt;&lt;span style=&quot;&quot;&gt;&amp;nbsp; &amp;nbsp;&amp;nbsp;&lt;/span&gt;&lt;/span&gt;Усил. Кн март-2015&lt;span style=&quot;&quot;&gt;&lt;span style=&quot;&quot;&gt;&amp;nbsp;&amp;nbsp;&amp;nbsp;&amp;nbsp;&lt;/span&gt;&lt;/span&gt;&lt;span style=&quot;&quot;&gt;&lt;span style=&quot;&quot;&gt;&amp;nbsp;&amp;nbsp;&amp;nbsp;&amp;nbsp;&lt;/span&gt;&lt;/span&gt;&lt;span style=&quot;&quot;&gt;&lt;span style=&quot;&quot;&gt;&amp;nbsp;&lt;span style=&quot;&quot;&gt;&lt;span style=&quot;&quot;&gt;&amp;nbsp;&amp;nbsp;&amp;nbsp;&amp;nbsp;&lt;/span&gt;&lt;/span&gt;&lt;span style=&quot;&quot;&gt;&lt;span style=&quot;&quot;&gt;&amp;nbsp;&amp;nbsp;&amp;nbsp;&amp;nbsp;&lt;/span&gt;&lt;/span&gt;&amp;nbsp;&amp;nbsp;&lt;span style=&quot;&quot;&gt;&lt;span style=&quot;&quot;&gt;&amp;nbsp;&amp;nbsp;&amp;nbsp;&amp;nbsp;&lt;/span&gt;&lt;span style=&quot;&quot;&gt;&lt;span style=&quot;&quot;&gt;&amp;nbsp;&amp;nbsp;&amp;nbsp;&amp;nbsp;&lt;/span&gt;&lt;/span&gt;&lt;span style=&quot;&quot;&gt;&lt;span style=&quot;&quot;&gt;&amp;nbsp;&amp;nbsp;&amp;nbsp;&lt;span style=&quot;white-space: pre;&quot;&gt;&#x9;&lt;/span&gt;&lt;span style=&quot;white-space: pre;&quot;&gt;&#x9;&lt;/span&gt;&lt;span style=&quot;white-space: pre;&quot;&gt;&#x9;&lt;/span&gt;&lt;span style=&quot;white-space: pre;&quot;&gt;&#x9;&lt;/span&gt;&lt;span style=&quot;white-space: pre;&quot;&gt;&#x9;&lt;/span&gt;&amp;nbsp;&lt;/span&gt;&lt;/span&gt;&lt;span style=&quot;&quot;&gt;&lt;span style=&quot;&quot;&gt;&amp;nbsp;&amp;nbsp;&amp;nbsp;&amp;nbsp;&lt;/span&gt;&lt;/span&gt;&lt;span style=&quot;&quot;&gt;&lt;span style=&quot;&quot;&gt;&amp;nbsp;&amp;nbsp;&lt;span style=&quot;white-space: pre;&quot;&gt;&#x9;&lt;/span&gt;&lt;span style=&quot;white-space: pre;&quot;&gt;&#x9;&lt;/span&gt;&lt;span style=&quot;white-space: pre;&quot;&gt;&#x9;&lt;/span&gt;&amp;nbsp;&amp;nbsp;&lt;/span&gt;&lt;/span&gt;&lt;/span&gt;&lt;span style=&quot;&quot;&gt;&lt;span style=&quot;&quot;&gt;&amp;nbsp;&amp;nbsp;&amp;nbsp;&amp;nbsp;&lt;/span&gt;&lt;/span&gt;&lt;span style=&quot;&quot;&gt;&lt;span style=&quot;&quot;&gt;&amp;nbsp;&amp;nbsp;&amp;nbsp;&amp;nbsp;&lt;/span&gt;&lt;/span&gt;&lt;span style=&quot;&quot;&gt;&lt;span style=&quot;&quot;&gt;&amp;nbsp;&amp;nbsp;&amp;nbsp;&amp;nbsp;&lt;/span&gt;&lt;/span&gt;&lt;span style=&quot;&quot;&gt;&lt;span style=&quot;&quot;&gt;&amp;nbsp;&amp;nbsp;&amp;nbsp;&amp;nbsp;&lt;/span&gt;&lt;/span&gt;&lt;span style=&quot;&quot;&gt;&lt;span style=&quot;&quot;&gt;&amp;nbsp;&amp;nbsp;&amp;nbsp;&amp;nbsp;&lt;/span&gt;&lt;/span&gt;&lt;span style=&quot;&quot;&gt;&lt;span style=&quot;&quot;&gt;&amp;nbsp;&amp;nbsp;&amp;nbsp;&amp;nbsp;&lt;/span&gt;&lt;/span&gt;&amp;nbsp;&lt;/span&gt;&lt;/span&gt;&lt;span style=&quot;&quot;&gt;&lt;span style=&quot;&quot;&gt;&amp;nbsp;&amp;nbsp;&amp;nbsp;&amp;nbsp;&lt;/span&gt;&lt;/span&gt;&lt;span style=&quot;&quot;&gt;&lt;span style=&quot;&quot;&gt;&amp;nbsp;&amp;nbsp;&amp;nbsp;&amp;nbsp;&lt;/span&gt;&lt;/span&gt;&lt;span style=&quot;&quot;&gt;&lt;span style=&quot;&quot;&gt;&amp;nbsp;&amp;nbsp;&amp;nbsp;&amp;nbsp;&lt;/span&gt;&lt;/span&gt;&lt;span style=&quot;&quot;&gt;&lt;span style=&quot;&quot;&gt;&amp;nbsp; &amp;nbsp;&amp;nbsp;&lt;/span&gt;&lt;/span&gt;Усил. Кн март-2015" style="rounded=0;whiteSpace=wrap;html=1;" parent="1" vertex="1">
          <mxGeometry x="4100" y="603" width="2700" height="21" as="geometry" />
        </mxCell>
        <mxCell id="hME5l4rsfuZXc2bHnHF4-96" value="&lt;span style=&quot;&quot;&gt;&lt;span style=&quot;&quot;&gt;средний ремонт сентябрь-2020&amp;nbsp; &amp;nbsp;&lt;/span&gt;&lt;/span&gt;&lt;span style=&quot;&quot;&gt;&lt;span style=&quot;&quot;&gt;&amp;nbsp;&amp;nbsp;&amp;nbsp;&amp;nbsp;&lt;/span&gt;&lt;/span&gt;&lt;span style=&quot;&quot;&gt;&lt;span style=&quot;&quot;&gt;&amp;nbsp;&amp;nbsp;&amp;nbsp;&amp;nbsp;&lt;/span&gt;&lt;/span&gt;&lt;span style=&quot;&quot;&gt;&lt;span style=&quot;&quot;&gt;&amp;nbsp;&lt;/span&gt;&lt;/span&gt;&lt;span style=&quot;&quot;&gt;&lt;span style=&quot;&quot;&gt;&amp;nbsp; &amp;nbsp;&amp;nbsp;&lt;/span&gt;&lt;/span&gt;&lt;span style=&quot;&quot;&gt;&lt;span style=&quot;&quot;&gt;&amp;nbsp;&amp;nbsp;&amp;nbsp;&lt;span style=&quot;&quot;&gt;&lt;span style=&quot;&quot;&gt;&amp;nbsp;&amp;nbsp;&amp;nbsp;&amp;nbsp;&lt;/span&gt;&lt;/span&gt;&lt;span style=&quot;&quot;&gt;&lt;span style=&quot;&quot;&gt;&amp;nbsp;&amp;nbsp;&amp;nbsp;&amp;nbsp;&lt;/span&gt;&lt;/span&gt;&lt;span style=&quot;&quot;&gt;&lt;span style=&quot;&quot;&gt;&amp;nbsp;&amp;nbsp;&amp;nbsp;&amp;nbsp;&lt;/span&gt;&lt;/span&gt;&lt;span style=&quot;&quot;&gt;&lt;span style=&quot;&quot;&gt;&amp;nbsp;&amp;nbsp;&amp;nbsp;&amp;nbsp;&lt;/span&gt;&lt;/span&gt;&lt;span style=&quot;&quot;&gt;&lt;span style=&quot;&quot;&gt;&amp;nbsp;&amp;nbsp;&amp;nbsp;&amp;nbsp;&lt;/span&gt;&lt;/span&gt;&lt;span style=&quot;&quot;&gt;&lt;span style=&quot;&quot;&gt;&amp;nbsp;&amp;nbsp;&amp;nbsp;&amp;nbsp;&lt;span style=&quot;white-space: pre;&quot;&gt;&#x9;&lt;/span&gt;&lt;span style=&quot;white-space: pre;&quot;&gt;&#x9;&lt;/span&gt;&lt;span style=&quot;white-space: pre;&quot;&gt;&#x9;&lt;/span&gt;&lt;/span&gt;&lt;/span&gt;&lt;span style=&quot;&quot;&gt;&lt;span style=&quot;&quot;&gt;&amp;nbsp;&amp;nbsp;&amp;nbsp;&amp;nbsp;&lt;/span&gt;&lt;/span&gt;&lt;span style=&quot;&quot;&gt;&lt;span style=&quot;&quot;&gt;&amp;nbsp;&amp;nbsp;&lt;span style=&quot;white-space: pre;&quot;&gt;&#x9;&lt;/span&gt;&amp;nbsp;&amp;nbsp;&lt;/span&gt;&lt;span style=&quot;&quot;&gt;&lt;span style=&quot;&quot;&gt;&amp;nbsp;&amp;nbsp;&amp;nbsp;&amp;nbsp;&lt;/span&gt;&lt;/span&gt;&lt;/span&gt;&lt;span style=&quot;&quot;&gt;&lt;span style=&quot;&quot;&gt;&amp;nbsp;&amp;nbsp;&amp;nbsp;&amp;nbsp;&lt;/span&gt;&lt;/span&gt;&lt;span style=&quot;&quot;&gt;&lt;span style=&quot;&quot;&gt;&amp;nbsp;&amp;nbsp;&amp;nbsp;&amp;nbsp;&lt;/span&gt;&lt;/span&gt;&lt;span style=&quot;&quot;&gt;&lt;span style=&quot;&quot;&gt;&amp;nbsp;&amp;nbsp;&amp;nbsp;&amp;nbsp;&lt;/span&gt;&lt;/span&gt;&amp;nbsp;&lt;/span&gt;&lt;/span&gt;&lt;span style=&quot;&quot;&gt;&lt;span style=&quot;&quot;&gt;&amp;nbsp;&amp;nbsp;&amp;nbsp;&amp;nbsp;&lt;/span&gt;&lt;/span&gt;&lt;span style=&quot;&quot;&gt;&lt;span style=&quot;&quot;&gt;&amp;nbsp;&amp;nbsp;&amp;nbsp;&amp;nbsp;&lt;/span&gt;&lt;/span&gt;&lt;span style=&quot;&quot;&gt;&lt;span style=&quot;&quot;&gt;&amp;nbsp; &amp;nbsp;&amp;nbsp;&lt;/span&gt;&lt;/span&gt;средний ремонт сентябрь-2020&lt;span style=&quot;&quot;&gt;&lt;span style=&quot;&quot;&gt;&amp;nbsp;&amp;nbsp;&amp;nbsp;&amp;nbsp;&lt;/span&gt;&lt;/span&gt;&lt;span style=&quot;&quot;&gt;&lt;span style=&quot;&quot;&gt;&amp;nbsp;&amp;nbsp;&amp;nbsp;&amp;nbsp;&lt;/span&gt;&lt;/span&gt;&lt;span style=&quot;&quot;&gt;&lt;span style=&quot;&quot;&gt;&amp;nbsp;&amp;nbsp;&amp;nbsp;&amp;nbsp;&lt;/span&gt;&lt;/span&gt;&lt;span style=&quot;&quot;&gt;&lt;span style=&quot;&quot;&gt;&amp;nbsp;&lt;span style=&quot;&quot;&gt;&lt;span style=&quot;&quot;&gt;&amp;nbsp;&amp;nbsp;&amp;nbsp;&amp;nbsp;&lt;/span&gt;&lt;span style=&quot;&quot;&gt;&lt;span style=&quot;&quot;&gt;&amp;nbsp;&amp;nbsp;&amp;nbsp;&amp;nbsp;&lt;/span&gt;&lt;/span&gt;&lt;span style=&quot;&quot;&gt;&lt;span style=&quot;&quot;&gt;&amp;nbsp;&lt;span style=&quot;white-space: pre;&quot;&gt;&#x9;&lt;/span&gt;&lt;span style=&quot;white-space: pre;&quot;&gt;&#x9;&lt;/span&gt;&lt;span style=&quot;white-space: pre;&quot;&gt;&#x9;&lt;/span&gt;&lt;span style=&quot;white-space: pre;&quot;&gt;&#x9;&lt;/span&gt;&amp;nbsp;&amp;nbsp;&amp;nbsp;&lt;/span&gt;&lt;/span&gt;&lt;span style=&quot;&quot;&gt;&lt;span style=&quot;&quot;&gt;&amp;nbsp;&amp;nbsp;&amp;nbsp;&amp;nbsp;&lt;/span&gt;&lt;/span&gt;&lt;span style=&quot;&quot;&gt;&lt;span style=&quot;&quot;&gt;&amp;nbsp;&amp;nbsp;&amp;nbsp;&amp;nbsp;&lt;/span&gt;&lt;/span&gt;&lt;span style=&quot;&quot;&gt;&lt;span style=&quot;&quot;&gt;&amp;nbsp;&amp;nbsp;&amp;nbsp;&amp;nbsp;&lt;/span&gt;&lt;/span&gt;&lt;span style=&quot;&quot;&gt;&lt;span style=&quot;&quot;&gt;&amp;nbsp;&amp;nbsp;&amp;nbsp;&amp;nbsp;&lt;/span&gt;&lt;/span&gt;&lt;span style=&quot;&quot;&gt;&lt;span style=&quot;&quot;&gt;&amp;nbsp;&amp;nbsp;&amp;nbsp;&amp;nbsp;&lt;/span&gt;&lt;/span&gt;&lt;span style=&quot;&quot;&gt;&lt;span style=&quot;&quot;&gt;&amp;nbsp;&amp;nbsp;&amp;nbsp;&amp;nbsp;&lt;/span&gt;&lt;/span&gt;&lt;span style=&quot;&quot;&gt;&lt;span style=&quot;&quot;&gt;&amp;nbsp;&amp;nbsp;&amp;nbsp;&amp;nbsp;&lt;/span&gt;&lt;/span&gt;&lt;span style=&quot;&quot;&gt;&lt;span style=&quot;&quot;&gt;&amp;nbsp;&amp;nbsp;&amp;nbsp;&amp;nbsp;&lt;/span&gt;&lt;/span&gt;&lt;span style=&quot;&quot;&gt;&lt;span style=&quot;&quot;&gt;&amp;nbsp;&amp;nbsp;&amp;nbsp;&amp;nbsp;&lt;/span&gt;&lt;/span&gt;&lt;/span&gt;&lt;span style=&quot;&quot;&gt;&lt;span style=&quot;&quot;&gt;&amp;nbsp;&amp;nbsp;&amp;nbsp;&amp;nbsp;&lt;/span&gt;&lt;/span&gt;&lt;span style=&quot;&quot;&gt;&lt;span style=&quot;&quot;&gt;&amp;nbsp;&amp;nbsp;&amp;nbsp;&amp;nbsp;&lt;/span&gt;&lt;/span&gt;&lt;span style=&quot;&quot;&gt;&lt;span style=&quot;&quot;&gt;&amp;nbsp;&amp;nbsp;&amp;nbsp;&amp;nbsp;&lt;/span&gt;&lt;/span&gt;&amp;nbsp;&amp;nbsp;&amp;nbsp;&lt;/span&gt;&lt;/span&gt;&lt;span style=&quot;&quot;&gt;&lt;span style=&quot;&quot;&gt;&amp;nbsp; &amp;nbsp;&amp;nbsp;&lt;/span&gt;&lt;/span&gt;средний ремонт сентябрь-2020" style="rounded=0;whiteSpace=wrap;html=1;" parent="1" vertex="1">
          <mxGeometry x="4100" y="623" width="2700" height="20" as="geometry" />
        </mxCell>
        <mxCell id="NoI6XiGcojnPfRf8fFsN-1" value="10" style="text;html=1;strokeColor=none;fillColor=none;align=center;verticalAlign=middle;whiteSpace=wrap;rounded=0;" parent="1" vertex="1">
          <mxGeometry x="410" y="209" width="20" height="7" as="geometry" />
        </mxCell>
        <mxCell id="NoI6XiGcojnPfRf8fFsN-2" value="" style="endArrow=none;html=1;rounded=0;" parent="1" edge="1">
          <mxGeometry width="50" height="50" relative="1" as="geometry">
            <mxPoint x="404" y="220" as="sourcePoint" />
            <mxPoint x="410" y="211" as="targetPoint" />
          </mxGeometry>
        </mxCell>
        <mxCell id="NoI6XiGcojnPfRf8fFsN-3" value="" style="endArrow=none;html=1;rounded=0;" parent="1" edge="1">
          <mxGeometry width="50" height="50" relative="1" as="geometry">
            <mxPoint x="598" y="220" as="sourcePoint" />
            <mxPoint x="592" y="212" as="targetPoint" />
          </mxGeometry>
        </mxCell>
        <mxCell id="NoI6XiGcojnPfRf8fFsN-4" value="9" style="text;html=1;strokeColor=none;fillColor=none;align=center;verticalAlign=middle;whiteSpace=wrap;rounded=0;" parent="1" vertex="1">
          <mxGeometry x="577" y="209" width="20" height="7" as="geometry" />
        </mxCell>
        <mxCell id="NoI6XiGcojnPfRf8fFsN-5" value="10" style="text;html=1;strokeColor=none;fillColor=none;align=center;verticalAlign=middle;whiteSpace=wrap;rounded=0;" parent="1" vertex="1">
          <mxGeometry x="6480" y="208" width="20" height="7" as="geometry" />
        </mxCell>
        <mxCell id="NoI6XiGcojnPfRf8fFsN-6" value="" style="endArrow=none;html=1;rounded=0;" parent="1" edge="1">
          <mxGeometry width="50" height="50" relative="1" as="geometry">
            <mxPoint x="6477.08" y="220" as="sourcePoint" />
            <mxPoint x="6483.08" y="211" as="targetPoint" />
          </mxGeometry>
        </mxCell>
        <mxCell id="NoI6XiGcojnPfRf8fFsN-7" value="" style="endArrow=none;html=1;rounded=0;" parent="1" edge="1">
          <mxGeometry width="50" height="50" relative="1" as="geometry">
            <mxPoint x="6721" y="220" as="sourcePoint" />
            <mxPoint x="6715" y="212" as="targetPoint" />
          </mxGeometry>
        </mxCell>
        <mxCell id="NoI6XiGcojnPfRf8fFsN-8" value="9" style="text;html=1;strokeColor=none;fillColor=none;align=center;verticalAlign=middle;whiteSpace=wrap;rounded=0;" parent="1" vertex="1">
          <mxGeometry x="6700" y="209" width="20" height="7" as="geometry" />
        </mxCell>
        <mxCell id="ALS_42Yh5530uxFC-9ye-1" value="" style="endArrow=none;html=1;rounded=0;" edge="1" parent="1" target="ALS_42Yh5530uxFC-9ye-2">
          <mxGeometry width="50" height="50" relative="1" as="geometry">
            <mxPoint x="360" y="160" as="sourcePoint" />
            <mxPoint x="360" y="140" as="targetPoint" />
          </mxGeometry>
        </mxCell>
        <mxCell id="ALS_42Yh5530uxFC-9ye-2" value="" style="shape=xor;whiteSpace=wrap;html=1;" vertex="1" parent="1">
          <mxGeometry x="355" y="140" width="10" height="10" as="geometry" />
        </mxCell>
        <mxCell id="ALS_42Yh5530uxFC-9ye-3" value="Ч" style="text;html=1;strokeColor=none;fillColor=none;align=center;verticalAlign=middle;whiteSpace=wrap;rounded=0;" vertex="1" parent="1">
          <mxGeometry x="345" y="120" width="30" height="15" as="geometry" />
        </mxCell>
        <mxCell id="ALS_42Yh5530uxFC-9ye-4" value="" style="endArrow=none;html=1;rounded=0;" edge="1" parent="1" target="ALS_42Yh5530uxFC-9ye-5">
          <mxGeometry width="50" height="50" relative="1" as="geometry">
            <mxPoint x="640" y="160" as="sourcePoint" />
            <mxPoint x="640" y="140" as="targetPoint" />
          </mxGeometry>
        </mxCell>
        <mxCell id="ALS_42Yh5530uxFC-9ye-5" value="" style="shape=xor;whiteSpace=wrap;html=1;direction=west;" vertex="1" parent="1">
          <mxGeometry x="635" y="140" width="10" height="10" as="geometry" />
        </mxCell>
        <mxCell id="ALS_42Yh5530uxFC-9ye-6" value="Н" style="text;html=1;strokeColor=none;fillColor=none;align=center;verticalAlign=middle;whiteSpace=wrap;rounded=0;" vertex="1" parent="1">
          <mxGeometry x="625" y="122.5" width="30" height="15" as="geometry" />
        </mxCell>
        <mxCell id="ALS_42Yh5530uxFC-9ye-7" value="" style="endArrow=none;html=1;rounded=0;" edge="1" parent="1" target="ALS_42Yh5530uxFC-9ye-8">
          <mxGeometry width="50" height="50" relative="1" as="geometry">
            <mxPoint x="875" y="160" as="sourcePoint" />
            <mxPoint x="875" y="140" as="targetPoint" />
          </mxGeometry>
        </mxCell>
        <mxCell id="ALS_42Yh5530uxFC-9ye-8" value="" style="shape=xor;whiteSpace=wrap;html=1;direction=west;" vertex="1" parent="1">
          <mxGeometry x="870" y="140" width="10" height="10" as="geometry" />
        </mxCell>
        <mxCell id="ALS_42Yh5530uxFC-9ye-9" value="1" style="text;html=1;strokeColor=none;fillColor=none;align=center;verticalAlign=middle;whiteSpace=wrap;rounded=0;" vertex="1" parent="1">
          <mxGeometry x="860" y="122.5" width="30" height="15" as="geometry" />
        </mxCell>
        <mxCell id="ALS_42Yh5530uxFC-9ye-10" value="" style="endArrow=none;html=1;rounded=0;" edge="1" parent="1" target="ALS_42Yh5530uxFC-9ye-11">
          <mxGeometry width="50" height="50" relative="1" as="geometry">
            <mxPoint x="1215" y="160" as="sourcePoint" />
            <mxPoint x="1215" y="140" as="targetPoint" />
          </mxGeometry>
        </mxCell>
        <mxCell id="ALS_42Yh5530uxFC-9ye-11" value="" style="shape=xor;whiteSpace=wrap;html=1;direction=west;" vertex="1" parent="1">
          <mxGeometry x="1210" y="140" width="10" height="10" as="geometry" />
        </mxCell>
        <mxCell id="ALS_42Yh5530uxFC-9ye-12" value="3" style="text;html=1;strokeColor=none;fillColor=none;align=center;verticalAlign=middle;whiteSpace=wrap;rounded=0;" vertex="1" parent="1">
          <mxGeometry x="1200" y="122.5" width="30" height="15" as="geometry" />
        </mxCell>
        <mxCell id="ALS_42Yh5530uxFC-9ye-13" value="" style="endArrow=none;html=1;rounded=0;" edge="1" parent="1" target="ALS_42Yh5530uxFC-9ye-14">
          <mxGeometry width="50" height="50" relative="1" as="geometry">
            <mxPoint x="1563" y="160" as="sourcePoint" />
            <mxPoint x="1563" y="140" as="targetPoint" />
          </mxGeometry>
        </mxCell>
        <mxCell id="ALS_42Yh5530uxFC-9ye-14" value="" style="shape=xor;whiteSpace=wrap;html=1;direction=west;" vertex="1" parent="1">
          <mxGeometry x="1558" y="140" width="10" height="10" as="geometry" />
        </mxCell>
        <mxCell id="ALS_42Yh5530uxFC-9ye-15" value="5" style="text;html=1;strokeColor=none;fillColor=none;align=center;verticalAlign=middle;whiteSpace=wrap;rounded=0;" vertex="1" parent="1">
          <mxGeometry x="1548" y="122.5" width="30" height="15" as="geometry" />
        </mxCell>
        <mxCell id="ALS_42Yh5530uxFC-9ye-16" value="" style="endArrow=none;html=1;rounded=0;" edge="1" parent="1" target="ALS_42Yh5530uxFC-9ye-17">
          <mxGeometry width="50" height="50" relative="1" as="geometry">
            <mxPoint x="1905" y="160" as="sourcePoint" />
            <mxPoint x="1905" y="140" as="targetPoint" />
          </mxGeometry>
        </mxCell>
        <mxCell id="ALS_42Yh5530uxFC-9ye-17" value="" style="shape=xor;whiteSpace=wrap;html=1;direction=west;" vertex="1" parent="1">
          <mxGeometry x="1900" y="140" width="10" height="10" as="geometry" />
        </mxCell>
        <mxCell id="ALS_42Yh5530uxFC-9ye-18" value="7" style="text;html=1;strokeColor=none;fillColor=none;align=center;verticalAlign=middle;whiteSpace=wrap;rounded=0;" vertex="1" parent="1">
          <mxGeometry x="1890" y="122.5" width="30" height="15" as="geometry" />
        </mxCell>
        <mxCell id="ALS_42Yh5530uxFC-9ye-19" value="" style="endArrow=none;html=1;rounded=0;" edge="1" parent="1" target="ALS_42Yh5530uxFC-9ye-20">
          <mxGeometry width="50" height="50" relative="1" as="geometry">
            <mxPoint x="2205" y="160" as="sourcePoint" />
            <mxPoint x="2205" y="140" as="targetPoint" />
          </mxGeometry>
        </mxCell>
        <mxCell id="ALS_42Yh5530uxFC-9ye-20" value="" style="shape=xor;whiteSpace=wrap;html=1;direction=west;" vertex="1" parent="1">
          <mxGeometry x="2200" y="140" width="10" height="10" as="geometry" />
        </mxCell>
        <mxCell id="ALS_42Yh5530uxFC-9ye-21" value="9" style="text;html=1;strokeColor=none;fillColor=none;align=center;verticalAlign=middle;whiteSpace=wrap;rounded=0;" vertex="1" parent="1">
          <mxGeometry x="2190" y="122.5" width="30" height="15" as="geometry" />
        </mxCell>
        <mxCell id="ALS_42Yh5530uxFC-9ye-22" value="" style="endArrow=none;html=1;rounded=0;" edge="1" parent="1" target="ALS_42Yh5530uxFC-9ye-23">
          <mxGeometry width="50" height="50" relative="1" as="geometry">
            <mxPoint x="2575" y="160" as="sourcePoint" />
            <mxPoint x="2575" y="140" as="targetPoint" />
          </mxGeometry>
        </mxCell>
        <mxCell id="ALS_42Yh5530uxFC-9ye-23" value="" style="shape=xor;whiteSpace=wrap;html=1;direction=west;" vertex="1" parent="1">
          <mxGeometry x="2570" y="140" width="10" height="10" as="geometry" />
        </mxCell>
        <mxCell id="ALS_42Yh5530uxFC-9ye-24" value="11" style="text;html=1;strokeColor=none;fillColor=none;align=center;verticalAlign=middle;whiteSpace=wrap;rounded=0;" vertex="1" parent="1">
          <mxGeometry x="2560" y="122.5" width="30" height="15" as="geometry" />
        </mxCell>
        <mxCell id="ALS_42Yh5530uxFC-9ye-25" value="" style="endArrow=none;html=1;rounded=0;" edge="1" parent="1" target="ALS_42Yh5530uxFC-9ye-26">
          <mxGeometry width="50" height="50" relative="1" as="geometry">
            <mxPoint x="2970" y="160" as="sourcePoint" />
            <mxPoint x="2970" y="140" as="targetPoint" />
          </mxGeometry>
        </mxCell>
        <mxCell id="ALS_42Yh5530uxFC-9ye-26" value="" style="shape=xor;whiteSpace=wrap;html=1;direction=west;" vertex="1" parent="1">
          <mxGeometry x="2965" y="140" width="10" height="10" as="geometry" />
        </mxCell>
        <mxCell id="ALS_42Yh5530uxFC-9ye-27" value="13" style="text;html=1;strokeColor=none;fillColor=none;align=center;verticalAlign=middle;whiteSpace=wrap;rounded=0;" vertex="1" parent="1">
          <mxGeometry x="2955" y="122.5" width="30" height="15" as="geometry" />
        </mxCell>
        <mxCell id="ALS_42Yh5530uxFC-9ye-28" value="" style="endArrow=none;html=1;rounded=0;" edge="1" parent="1" target="ALS_42Yh5530uxFC-9ye-29">
          <mxGeometry width="50" height="50" relative="1" as="geometry">
            <mxPoint x="3310" y="160" as="sourcePoint" />
            <mxPoint x="3310" y="140" as="targetPoint" />
          </mxGeometry>
        </mxCell>
        <mxCell id="ALS_42Yh5530uxFC-9ye-29" value="" style="shape=xor;whiteSpace=wrap;html=1;direction=west;" vertex="1" parent="1">
          <mxGeometry x="3305" y="140" width="10" height="10" as="geometry" />
        </mxCell>
        <mxCell id="ALS_42Yh5530uxFC-9ye-30" value="15" style="text;html=1;strokeColor=none;fillColor=none;align=center;verticalAlign=middle;whiteSpace=wrap;rounded=0;" vertex="1" parent="1">
          <mxGeometry x="3295" y="122.5" width="30" height="15" as="geometry" />
        </mxCell>
        <mxCell id="ALS_42Yh5530uxFC-9ye-31" value="" style="endArrow=none;html=1;rounded=0;" edge="1" parent="1" target="ALS_42Yh5530uxFC-9ye-32">
          <mxGeometry width="50" height="50" relative="1" as="geometry">
            <mxPoint x="3586.08" y="160" as="sourcePoint" />
            <mxPoint x="3586.08" y="140" as="targetPoint" />
          </mxGeometry>
        </mxCell>
        <mxCell id="ALS_42Yh5530uxFC-9ye-32" value="" style="shape=xor;whiteSpace=wrap;html=1;direction=west;" vertex="1" parent="1">
          <mxGeometry x="3581.08" y="140" width="10" height="10" as="geometry" />
        </mxCell>
        <mxCell id="ALS_42Yh5530uxFC-9ye-33" value="17" style="text;html=1;strokeColor=none;fillColor=none;align=center;verticalAlign=middle;whiteSpace=wrap;rounded=0;" vertex="1" parent="1">
          <mxGeometry x="3571.08" y="122.5" width="30" height="15" as="geometry" />
        </mxCell>
        <mxCell id="ALS_42Yh5530uxFC-9ye-34" value="" style="endArrow=none;html=1;rounded=0;" edge="1" parent="1" target="ALS_42Yh5530uxFC-9ye-35">
          <mxGeometry width="50" height="50" relative="1" as="geometry">
            <mxPoint x="3889.56" y="160" as="sourcePoint" />
            <mxPoint x="3889.56" y="140" as="targetPoint" />
          </mxGeometry>
        </mxCell>
        <mxCell id="ALS_42Yh5530uxFC-9ye-35" value="" style="shape=xor;whiteSpace=wrap;html=1;direction=east;" vertex="1" parent="1">
          <mxGeometry x="3884.56" y="140" width="10" height="10" as="geometry" />
        </mxCell>
        <mxCell id="ALS_42Yh5530uxFC-9ye-36" value="Ч" style="text;html=1;strokeColor=none;fillColor=none;align=center;verticalAlign=middle;whiteSpace=wrap;rounded=0;" vertex="1" parent="1">
          <mxGeometry x="3874.56" y="122.5" width="30" height="15" as="geometry" />
        </mxCell>
        <mxCell id="ALS_42Yh5530uxFC-9ye-37" value="" style="endArrow=none;html=1;rounded=0;" edge="1" parent="1" target="ALS_42Yh5530uxFC-9ye-38">
          <mxGeometry width="50" height="50" relative="1" as="geometry">
            <mxPoint x="4120" y="160" as="sourcePoint" />
            <mxPoint x="4125" y="140" as="targetPoint" />
          </mxGeometry>
        </mxCell>
        <mxCell id="ALS_42Yh5530uxFC-9ye-38" value="" style="shape=xor;whiteSpace=wrap;html=1;direction=west;" vertex="1" parent="1">
          <mxGeometry x="4115" y="140" width="10" height="10" as="geometry" />
        </mxCell>
        <mxCell id="ALS_42Yh5530uxFC-9ye-39" value="Н" style="text;html=1;strokeColor=none;fillColor=none;align=center;verticalAlign=middle;whiteSpace=wrap;rounded=0;" vertex="1" parent="1">
          <mxGeometry x="4105" y="122.5" width="30" height="15" as="geometry" />
        </mxCell>
        <mxCell id="ALS_42Yh5530uxFC-9ye-40" value="" style="endArrow=none;html=1;rounded=0;" edge="1" parent="1" target="ALS_42Yh5530uxFC-9ye-41">
          <mxGeometry width="50" height="50" relative="1" as="geometry">
            <mxPoint x="4460.68" y="160" as="sourcePoint" />
            <mxPoint x="4465.68" y="140" as="targetPoint" />
          </mxGeometry>
        </mxCell>
        <mxCell id="ALS_42Yh5530uxFC-9ye-41" value="" style="shape=xor;whiteSpace=wrap;html=1;direction=west;" vertex="1" parent="1">
          <mxGeometry x="4455.68" y="140" width="10" height="10" as="geometry" />
        </mxCell>
        <mxCell id="ALS_42Yh5530uxFC-9ye-42" value="1" style="text;html=1;strokeColor=none;fillColor=none;align=center;verticalAlign=middle;whiteSpace=wrap;rounded=0;" vertex="1" parent="1">
          <mxGeometry x="4445.68" y="122.5" width="30" height="15" as="geometry" />
        </mxCell>
        <mxCell id="ALS_42Yh5530uxFC-9ye-43" value="" style="endArrow=none;html=1;rounded=0;" edge="1" parent="1" target="ALS_42Yh5530uxFC-9ye-44">
          <mxGeometry width="50" height="50" relative="1" as="geometry">
            <mxPoint x="4795" y="160" as="sourcePoint" />
            <mxPoint x="4800" y="140" as="targetPoint" />
          </mxGeometry>
        </mxCell>
        <mxCell id="ALS_42Yh5530uxFC-9ye-44" value="" style="shape=xor;whiteSpace=wrap;html=1;direction=west;" vertex="1" parent="1">
          <mxGeometry x="4790" y="140" width="10" height="10" as="geometry" />
        </mxCell>
        <mxCell id="ALS_42Yh5530uxFC-9ye-45" value="3" style="text;html=1;strokeColor=none;fillColor=none;align=center;verticalAlign=middle;whiteSpace=wrap;rounded=0;" vertex="1" parent="1">
          <mxGeometry x="4780" y="122.5" width="30" height="15" as="geometry" />
        </mxCell>
        <mxCell id="ALS_42Yh5530uxFC-9ye-46" value="" style="endArrow=none;html=1;rounded=0;" edge="1" parent="1" target="ALS_42Yh5530uxFC-9ye-47">
          <mxGeometry width="50" height="50" relative="1" as="geometry">
            <mxPoint x="5165" y="160" as="sourcePoint" />
            <mxPoint x="5170" y="140" as="targetPoint" />
          </mxGeometry>
        </mxCell>
        <mxCell id="ALS_42Yh5530uxFC-9ye-47" value="" style="shape=xor;whiteSpace=wrap;html=1;direction=west;" vertex="1" parent="1">
          <mxGeometry x="5160" y="140" width="10" height="10" as="geometry" />
        </mxCell>
        <mxCell id="ALS_42Yh5530uxFC-9ye-48" value="5" style="text;html=1;strokeColor=none;fillColor=none;align=center;verticalAlign=middle;whiteSpace=wrap;rounded=0;" vertex="1" parent="1">
          <mxGeometry x="5150" y="122.5" width="30" height="15" as="geometry" />
        </mxCell>
        <mxCell id="ALS_42Yh5530uxFC-9ye-49" value="" style="endArrow=none;html=1;rounded=0;" edge="1" parent="1" target="ALS_42Yh5530uxFC-9ye-50">
          <mxGeometry width="50" height="50" relative="1" as="geometry">
            <mxPoint x="5505" y="160" as="sourcePoint" />
            <mxPoint x="5510" y="140" as="targetPoint" />
          </mxGeometry>
        </mxCell>
        <mxCell id="ALS_42Yh5530uxFC-9ye-50" value="" style="shape=xor;whiteSpace=wrap;html=1;direction=west;" vertex="1" parent="1">
          <mxGeometry x="5500" y="140" width="10" height="10" as="geometry" />
        </mxCell>
        <mxCell id="ALS_42Yh5530uxFC-9ye-51" value="7" style="text;html=1;strokeColor=none;fillColor=none;align=center;verticalAlign=middle;whiteSpace=wrap;rounded=0;" vertex="1" parent="1">
          <mxGeometry x="5490" y="122.5" width="30" height="15" as="geometry" />
        </mxCell>
        <mxCell id="ALS_42Yh5530uxFC-9ye-52" value="" style="endArrow=none;html=1;rounded=0;" edge="1" parent="1" target="ALS_42Yh5530uxFC-9ye-53">
          <mxGeometry width="50" height="50" relative="1" as="geometry">
            <mxPoint x="5880.56" y="160" as="sourcePoint" />
            <mxPoint x="5885.56" y="140" as="targetPoint" />
          </mxGeometry>
        </mxCell>
        <mxCell id="ALS_42Yh5530uxFC-9ye-53" value="" style="shape=xor;whiteSpace=wrap;html=1;direction=west;" vertex="1" parent="1">
          <mxGeometry x="5875.56" y="140" width="10" height="10" as="geometry" />
        </mxCell>
        <mxCell id="ALS_42Yh5530uxFC-9ye-54" value="9" style="text;html=1;strokeColor=none;fillColor=none;align=center;verticalAlign=middle;whiteSpace=wrap;rounded=0;" vertex="1" parent="1">
          <mxGeometry x="5865.56" y="122.5" width="30" height="15" as="geometry" />
        </mxCell>
        <mxCell id="ALS_42Yh5530uxFC-9ye-55" value="" style="endArrow=none;html=1;rounded=0;" edge="1" parent="1" target="ALS_42Yh5530uxFC-9ye-56">
          <mxGeometry width="50" height="50" relative="1" as="geometry">
            <mxPoint x="6163" y="160" as="sourcePoint" />
            <mxPoint x="6170" y="140" as="targetPoint" />
          </mxGeometry>
        </mxCell>
        <mxCell id="ALS_42Yh5530uxFC-9ye-56" value="" style="shape=xor;whiteSpace=wrap;html=1;direction=west;" vertex="1" parent="1">
          <mxGeometry x="6158" y="140" width="10" height="10" as="geometry" />
        </mxCell>
        <mxCell id="ALS_42Yh5530uxFC-9ye-57" value="11" style="text;html=1;strokeColor=none;fillColor=none;align=center;verticalAlign=middle;whiteSpace=wrap;rounded=0;" vertex="1" parent="1">
          <mxGeometry x="6148" y="122.5" width="30" height="15" as="geometry" />
        </mxCell>
        <mxCell id="ALS_42Yh5530uxFC-9ye-58" value="" style="endArrow=none;html=1;rounded=0;" edge="1" parent="1" target="ALS_42Yh5530uxFC-9ye-59">
          <mxGeometry width="50" height="50" relative="1" as="geometry">
            <mxPoint x="6440" y="160" as="sourcePoint" />
            <mxPoint x="6449.48" y="140" as="targetPoint" />
          </mxGeometry>
        </mxCell>
        <mxCell id="ALS_42Yh5530uxFC-9ye-59" value="" style="shape=xor;whiteSpace=wrap;html=1;direction=east;" vertex="1" parent="1">
          <mxGeometry x="6435" y="140" width="10" height="10" as="geometry" />
        </mxCell>
        <mxCell id="ALS_42Yh5530uxFC-9ye-60" value="Ч" style="text;html=1;strokeColor=none;fillColor=none;align=center;verticalAlign=middle;whiteSpace=wrap;rounded=0;" vertex="1" parent="1">
          <mxGeometry x="6425" y="122.5" width="30" height="15" as="geometry" />
        </mxCell>
        <mxCell id="ALS_42Yh5530uxFC-9ye-61" value="" style="endArrow=none;html=1;rounded=0;" edge="1" parent="1" target="ALS_42Yh5530uxFC-9ye-62">
          <mxGeometry width="50" height="50" relative="1" as="geometry">
            <mxPoint x="6781" y="160" as="sourcePoint" />
            <mxPoint x="6790.48" y="140" as="targetPoint" />
          </mxGeometry>
        </mxCell>
        <mxCell id="ALS_42Yh5530uxFC-9ye-62" value="" style="shape=xor;whiteSpace=wrap;html=1;direction=west;" vertex="1" parent="1">
          <mxGeometry x="6776" y="140" width="10" height="10" as="geometry" />
        </mxCell>
        <mxCell id="ALS_42Yh5530uxFC-9ye-63" value="Н" style="text;html=1;strokeColor=none;fillColor=none;align=center;verticalAlign=middle;whiteSpace=wrap;rounded=0;" vertex="1" parent="1">
          <mxGeometry x="6766" y="122.5" width="30" height="15" as="geometry" />
        </mxCell>
      </root>
    </mxGraphModel>
  </diagram>
</mxfile>
